<svg width="1350" height="691" viewBox="0 0 1350 691" fill="none" xmlns="http://www.w3.org/2000/svg">
<path d="M1256.42 641.243H1266.25" stroke="#A2BADD" stroke-width="2" stroke-linecap="round" stroke-linejoin="round"/>
<path d="M1261.33 635.876V646.613" stroke="#A2BADD" stroke-width="2" stroke-linecap="round" stroke-linejoin="round"/>
<path d="M1256.42 618.03H1266.25" stroke="#A2BADD" stroke-width="2" stroke-linecap="round" stroke-linejoin="round"/>
<path d="M1261.33 612.661V623.397" stroke="#A2BADD" stroke-width="2" stroke-linecap="round" stroke-linejoin="round"/>
<path d="M1256.42 594.815H1266.25" stroke="#A2BADD" stroke-width="2" stroke-linecap="round" stroke-linejoin="round"/>
<path d="M1261.33 589.448V600.185" stroke="#A2BADD" stroke-width="2" stroke-linecap="round" stroke-linejoin="round"/>
<path d="M680.39 386.967V397.704" stroke="#F87F28" stroke-width="2" stroke-linecap="round" stroke-linejoin="round"/>
<path d="M685.31 392.334H675.471" stroke="#F87F28" stroke-width="2" stroke-linecap="round" stroke-linejoin="round"/>
<path d="M878.411 257.629V268.367" stroke="#F87F28" stroke-width="2" stroke-linecap="round" stroke-linejoin="round"/>
<path d="M883.334 262.997H873.495" stroke="#F87F28" stroke-width="2" stroke-linecap="round" stroke-linejoin="round"/>
<path d="M1141.71 40.8169V51.5544" stroke="#F87F28" stroke-width="2" stroke-linecap="round" stroke-linejoin="round"/>
<path d="M1146.62 46.1841H1136.78" stroke="#F87F28" stroke-width="2" stroke-linecap="round" stroke-linejoin="round"/>
<path d="M295.32 229.153V239.89" stroke="#F87F28" stroke-width="2" stroke-linecap="round" stroke-linejoin="round"/>
<path d="M300.241 234.521H290.401" stroke="#F87F28" stroke-width="2" stroke-linecap="round" stroke-linejoin="round"/>
<path d="M730.584 676.373V687.11" stroke="#FAFAFA" stroke-opacity="0.28" stroke-width="2" stroke-linecap="round" stroke-linejoin="round"/>
<path d="M735.507 681.741H725.668" stroke="#FAFAFA" stroke-opacity="0.28" stroke-width="2" stroke-linecap="round" stroke-linejoin="round"/>
<path d="M751.864 676.373V687.11" stroke="#FAFAFA" stroke-opacity="0.28" stroke-width="2" stroke-linecap="round" stroke-linejoin="round"/>
<path d="M756.78 681.741H746.94" stroke="#FAFAFA" stroke-opacity="0.28" stroke-width="2" stroke-linecap="round" stroke-linejoin="round"/>
<path d="M773.136 676.373V687.11" stroke="#FAFAFA" stroke-opacity="0.28" stroke-width="2" stroke-linecap="round" stroke-linejoin="round"/>
<path d="M778.052 681.741H768.213" stroke="#FAFAFA" stroke-opacity="0.28" stroke-width="2" stroke-linecap="round" stroke-linejoin="round"/>
<path d="M156.65 194.541V205.277" stroke="#F87F28" stroke-width="2" stroke-linecap="round" stroke-linejoin="round"/>
<path d="M161.57 199.908H151.731" stroke="#F87F28" stroke-width="2" stroke-linecap="round" stroke-linejoin="round"/>
<path d="M63.8904 147.771H54.051" stroke="#EAF1FD" stroke-width="2" stroke-linecap="round" stroke-linejoin="round"/>
<path d="M58.9717 153.14V142.403" stroke="#EAF1FD" stroke-width="2" stroke-linecap="round" stroke-linejoin="round"/>
<path d="M63.8904 170.986H54.051" stroke="#EAF1FD" stroke-width="2" stroke-linecap="round" stroke-linejoin="round"/>
<path d="M58.9717 176.353V165.616" stroke="#EAF1FD" stroke-width="2" stroke-linecap="round" stroke-linejoin="round"/>
<path d="M63.8904 194.199H54.051" stroke="#EAF1FD" stroke-width="2" stroke-linecap="round" stroke-linejoin="round"/>
<path d="M58.9717 199.568V188.831" stroke="#EAF1FD" stroke-width="2" stroke-linecap="round" stroke-linejoin="round"/>
<path d="M285.766 385.597C285.766 385.957 285.669 386.308 285.485 386.608C285.301 386.908 285.041 387.141 284.736 387.279C284.431 387.417 284.096 387.452 283.772 387.382C283.448 387.312 283.151 387.138 282.917 386.883C282.685 386.629 282.525 386.304 282.461 385.951C282.397 385.598 282.43 385.232 282.557 384.899C282.683 384.567 282.897 384.282 283.171 384.082C283.446 383.882 283.768 383.776 284.098 383.776C284.318 383.776 284.535 383.823 284.737 383.915C284.939 384.006 285.123 384.14 285.278 384.309C285.433 384.478 285.555 384.679 285.639 384.9C285.723 385.121 285.766 385.358 285.766 385.597Z" fill="#A2BADD"/>
<path d="M297.092 385.597C297.092 385.957 296.994 386.308 296.811 386.608C296.628 386.908 296.367 387.141 296.062 387.279C295.758 387.417 295.422 387.452 295.098 387.382C294.774 387.312 294.477 387.138 294.244 386.883C294.01 386.629 293.852 386.304 293.788 385.951C293.723 385.598 293.756 385.232 293.883 384.899C294.009 384.567 294.223 384.282 294.498 384.082C294.772 383.882 295.095 383.776 295.425 383.776C295.644 383.776 295.861 383.823 296.063 383.915C296.266 384.006 296.449 384.14 296.604 384.309C296.759 384.478 296.882 384.679 296.966 384.9C297.05 385.121 297.092 385.358 297.092 385.597Z" fill="#A2BADD"/>
<path d="M308.423 385.597C308.423 385.957 308.325 386.308 308.142 386.608C307.959 386.908 307.698 387.141 307.393 387.279C307.088 387.417 306.753 387.452 306.429 387.383C306.105 387.312 305.809 387.139 305.575 386.884C305.342 386.629 305.182 386.305 305.118 385.951C305.054 385.598 305.087 385.233 305.213 384.9C305.34 384.567 305.553 384.283 305.828 384.082C306.102 383.883 306.425 383.776 306.755 383.776C306.974 383.776 307.191 383.822 307.393 383.914C307.596 384.006 307.78 384.14 307.934 384.309C308.089 384.478 308.213 384.679 308.297 384.9C308.38 385.121 308.423 385.358 308.423 385.597Z" fill="#A2BADD"/>
<path d="M285.766 397.956C285.766 398.316 285.669 398.667 285.485 398.967C285.302 399.267 285.042 399.5 284.737 399.638C284.431 399.777 284.096 399.812 283.773 399.742C283.449 399.672 283.151 399.499 282.918 399.244C282.685 398.989 282.525 398.664 282.461 398.311C282.397 397.958 282.43 397.592 282.557 397.26C282.683 396.927 282.897 396.643 283.171 396.442C283.446 396.242 283.768 396.136 284.098 396.136C284.541 396.136 284.965 396.327 285.278 396.669C285.59 397.01 285.766 397.473 285.766 397.956Z" fill="#A2BADD"/>
<path d="M297.092 397.956C297.092 398.316 296.995 398.667 296.811 398.967C296.628 399.267 296.367 399.5 296.063 399.638C295.758 399.777 295.423 399.812 295.099 399.742C294.775 399.672 294.478 399.499 294.244 399.244C294.011 398.989 293.852 398.664 293.788 398.311C293.723 397.958 293.756 397.592 293.883 397.26C294.009 396.927 294.223 396.643 294.498 396.442C294.772 396.242 295.095 396.136 295.425 396.136C295.867 396.136 296.291 396.327 296.604 396.669C296.917 397.01 297.092 397.473 297.092 397.956Z" fill="#A2BADD"/>
<path d="M308.423 397.956C308.423 398.316 308.326 398.667 308.142 398.967C307.959 399.267 307.698 399.5 307.394 399.638C307.089 399.777 306.753 399.812 306.43 399.742C306.106 399.672 305.809 399.499 305.575 399.244C305.342 398.99 305.182 398.665 305.118 398.312C305.054 397.959 305.087 397.593 305.213 397.26C305.34 396.927 305.553 396.643 305.828 396.442C306.102 396.243 306.425 396.136 306.755 396.136C306.974 396.136 307.191 396.182 307.393 396.274C307.596 396.366 307.779 396.5 307.934 396.668C308.089 396.837 308.212 397.038 308.296 397.259C308.38 397.48 308.423 397.717 308.423 397.956Z" fill="#A2BADD"/>
<path d="M285.766 410.316C285.766 410.676 285.669 411.028 285.485 411.327C285.302 411.626 285.042 411.86 284.737 411.998C284.431 412.136 284.096 412.172 283.773 412.102C283.449 412.032 283.151 411.859 282.918 411.604C282.685 411.349 282.525 411.024 282.461 410.671C282.397 410.318 282.43 409.952 282.557 409.619C282.683 409.286 282.897 409.002 283.171 408.802C283.446 408.602 283.768 408.496 284.098 408.496C284.541 408.496 284.965 408.687 285.278 409.029C285.59 409.37 285.766 409.833 285.766 410.316Z" fill="#A2BADD"/>
<path d="M297.092 410.316C297.092 410.676 296.995 411.028 296.811 411.327C296.628 411.626 296.367 411.86 296.063 411.998C295.758 412.136 295.423 412.172 295.099 412.102C294.775 412.032 294.478 411.859 294.244 411.604C294.011 411.349 293.852 411.024 293.788 410.671C293.723 410.318 293.756 409.952 293.883 409.619C294.009 409.286 294.223 409.002 294.498 408.802C294.772 408.602 295.095 408.496 295.425 408.496C295.867 408.496 296.291 408.687 296.604 409.029C296.917 409.37 297.092 409.833 297.092 410.316Z" fill="#A2BADD"/>
<path d="M308.423 410.316C308.423 410.676 308.326 411.027 308.142 411.327C307.959 411.626 307.698 411.86 307.394 411.998C307.089 412.136 306.753 412.172 306.43 412.102C306.106 412.032 305.809 411.859 305.575 411.604C305.342 411.349 305.182 411.025 305.118 410.672C305.054 410.319 305.087 409.952 305.213 409.619C305.34 409.287 305.553 409.002 305.828 408.803C306.102 408.603 306.425 408.496 306.755 408.496C306.974 408.496 307.191 408.543 307.393 408.634C307.596 408.725 307.779 408.86 307.934 409.028C308.089 409.197 308.212 409.398 308.296 409.619C308.38 409.84 308.423 410.077 308.423 410.316Z" fill="#A2BADD"/>
<path d="M62.3395 2.179C62.3393 2.53594 62.2422 2.8848 62.0604 3.18151C61.8786 3.47815 61.6202 3.70943 61.318 3.84587C61.0158 3.98239 60.6833 4.01809 60.3625 3.9484C60.0417 3.8787 59.7471 3.70687 59.5158 3.45447C59.2845 3.20208 59.1269 2.88054 59.0631 2.53043C58.9992 2.1804 59.0319 1.81756 59.157 1.48771C59.2821 1.15794 59.494 0.87605 59.7659 0.677596C60.0378 0.47922 60.3575 0.373202 60.6845 0.373047C60.9019 0.372892 61.1172 0.419537 61.318 0.510265C61.5189 0.600993 61.7014 0.734019 61.855 0.901738C62.0087 1.06946 62.1306 1.26861 62.2137 1.48771C62.2969 1.70689 62.3396 1.94182 62.3395 2.179Z" fill="#A2BADD"/>
<path d="M71.9193 3.98495C72.8335 3.98495 73.5748 3.17639 73.5748 2.179C73.5748 1.18161 72.8335 0.373047 71.9193 0.373047C71.0057 0.373047 70.2644 1.18161 70.2644 2.179C70.2644 3.17639 71.0057 3.98495 71.9193 3.98495Z" fill="#A2BADD"/>
<path d="M84.8082 2.179C84.8082 2.53617 84.7107 2.88534 84.5293 3.18229C84.3472 3.47931 84.0889 3.71075 83.7865 3.84742C83.4842 3.98418 83.1512 4.01988 82.8303 3.95026C82.5095 3.88056 82.2142 3.70857 81.983 3.45595C81.7511 3.2034 81.5938 2.88162 81.5298 2.53128C81.4658 2.18102 81.4992 1.81787 81.6244 1.48787C81.7496 1.15786 81.9617 0.875817 82.2334 0.677441C82.5059 0.478988 82.8261 0.373047 83.1533 0.373047C83.5923 0.373047 84.0128 0.563351 84.323 0.901972C84.6339 1.24067 84.8082 1.70006 84.8082 2.179Z" fill="#A2BADD"/>
<path d="M96.0449 2.179C96.0449 2.53617 95.9475 2.88534 95.766 3.18229C95.5839 3.47931 95.3257 3.71075 95.0233 3.84742C94.7209 3.98418 94.3879 4.01988 94.0671 3.95026C93.7462 3.88056 93.451 3.70857 93.2197 3.45595C92.9878 3.2034 92.8306 2.88162 92.7665 2.53128C92.7025 2.18102 92.7352 1.81787 92.8612 1.48787C92.9864 1.15786 93.1984 0.875817 93.4702 0.677441C93.7427 0.478988 94.0628 0.373047 94.3901 0.373047C94.6071 0.373047 94.8226 0.41977 95.0233 0.510498C95.2239 0.601304 95.406 0.73433 95.5597 0.901972C95.7134 1.06969 95.8358 1.26877 95.919 1.48787C96.0023 1.70696 96.0449 1.94182 96.0449 2.179Z" fill="#A2BADD"/>
<path d="M105.625 3.98495C106.539 3.98495 107.28 3.17639 107.28 2.179C107.28 1.18161 106.539 0.373047 105.625 0.373047C104.711 0.373047 103.97 1.18161 103.97 2.179C103.97 3.17639 104.711 3.98495 105.625 3.98495Z" fill="#A2BADD"/>
<path d="M118.514 2.179C118.514 2.53617 118.417 2.88534 118.235 3.18229C118.053 3.47931 117.795 3.71075 117.493 3.84742C117.19 3.98418 116.857 4.01988 116.536 3.95026C116.215 3.88056 115.92 3.70857 115.689 3.45595C115.457 3.2034 115.3 2.88162 115.236 2.53128C115.172 2.18102 115.204 1.81787 115.33 1.48787C115.455 1.15786 115.668 0.875818 115.939 0.677442C116.212 0.478988 116.531 0.373047 116.859 0.373047C117.076 0.372892 117.292 0.419537 117.493 0.510265C117.693 0.600993 117.876 0.734019 118.03 0.901738C118.183 1.06946 118.305 1.26861 118.388 1.48771C118.471 1.70689 118.514 1.94182 118.514 2.179Z" fill="#A2BADD"/>
<path d="M129.748 2.179C129.748 2.53617 129.651 2.88534 129.469 3.18229C129.288 3.47931 129.029 3.71075 128.726 3.84742C128.424 3.98418 128.091 4.01988 127.77 3.95026C127.449 3.88056 127.155 3.70857 126.923 3.45595C126.692 3.2034 126.534 2.88162 126.47 2.53128C126.406 2.18102 126.439 1.81787 126.564 1.48787C126.69 1.15786 126.902 0.875818 127.174 0.677442C127.446 0.478988 127.766 0.373047 128.093 0.373047C128.311 0.372892 128.526 0.419537 128.726 0.510265C128.928 0.600993 129.11 0.734019 129.264 0.901738C129.417 1.06946 129.54 1.26861 129.622 1.48771C129.705 1.70689 129.748 1.94182 129.748 2.179Z" fill="#A2BADD"/>
<path d="M62.3395 14.4393C62.3393 14.7962 62.2422 15.1451 62.0604 15.4418C61.8786 15.7385 61.6202 15.9697 61.318 16.1062C61.0158 16.2427 60.6833 16.2783 60.3625 16.2087C60.0417 16.139 59.7471 15.9671 59.5158 15.7147C59.2845 15.4623 59.1269 15.1408 59.0631 14.7908C58.9992 14.4407 59.0319 14.0778 59.157 13.748C59.2821 13.4183 59.494 13.1363 59.7659 12.9379C60.0378 12.7395 60.3575 12.6335 60.6845 12.6333C61.1235 12.6333 61.5444 12.8236 61.8548 13.1623C62.1651 13.5009 62.3395 13.9603 62.3395 14.4393Z" fill="#A2BADD"/>
<path d="M73.575 14.4393C73.575 14.7964 73.4775 15.1456 73.2961 15.4426C73.114 15.7396 72.8557 15.9711 72.5533 16.1078C72.251 16.2444 71.918 16.2802 71.5971 16.2105C71.2756 16.1408 70.981 15.9688 70.7498 15.7163C70.5178 15.4637 70.3606 15.1419 70.2966 14.7916C70.2326 14.4413 70.2653 14.0781 70.3905 13.7482C70.5157 13.4182 70.7284 13.1361 71.0002 12.9377C71.2727 12.7392 71.5921 12.6333 71.9194 12.6333C72.3584 12.6335 72.7796 12.8239 73.0898 13.1625C73.4 13.5012 73.5743 13.9604 73.575 14.4393Z" fill="#A2BADD"/>
<path d="M84.8082 14.4393C84.8082 14.7964 84.7107 15.1456 84.5293 15.4426C84.3472 15.7396 84.0889 15.9711 83.7865 16.1078C83.4842 16.2444 83.1512 16.2802 82.8303 16.2105C82.5095 16.1408 82.2142 15.9688 81.983 15.7163C81.7511 15.4637 81.5938 15.1419 81.5298 14.7916C81.4658 14.4413 81.4992 14.0781 81.6244 13.7482C81.7496 13.4182 81.9617 13.1361 82.2334 12.9377C82.5059 12.7392 82.8261 12.6333 83.1533 12.6333C83.5916 12.6335 84.0128 12.8239 84.323 13.1625C84.6332 13.5012 84.8075 13.9604 84.8082 14.4393Z" fill="#A2BADD"/>
<path d="M96.0449 14.4393C96.0449 14.7964 95.9475 15.1456 95.766 15.4426C95.5839 15.7396 95.3257 15.9711 95.0233 16.1078C94.7209 16.2444 94.3879 16.2802 94.0671 16.2105C93.7462 16.1408 93.451 15.9688 93.2197 15.7163C92.9878 15.4637 92.8306 15.1419 92.7665 14.7916C92.7025 14.4413 92.7352 14.0781 92.8612 13.7482C92.9864 13.4182 93.1984 13.1361 93.4702 12.9377C93.7427 12.7392 94.0628 12.6333 94.3901 12.6333C94.8283 12.6335 95.2495 12.8239 95.5597 13.1625C95.8699 13.5012 96.0442 13.9604 96.0449 14.4393Z" fill="#A2BADD"/>
<path d="M107.279 14.4393C107.279 14.7965 107.182 15.1457 107 15.4427C106.818 15.7397 106.56 15.9712 106.257 16.1078C105.955 16.2445 105.622 16.2802 105.301 16.2104C104.979 16.1407 104.685 15.9686 104.454 15.716C104.222 15.4633 104.064 15.1414 104 14.7911C103.937 14.4407 103.97 14.0775 104.095 13.7476C104.22 13.4176 104.433 13.1356 104.705 12.9372C104.977 12.7389 105.297 12.6331 105.625 12.6333C106.064 12.6335 106.484 12.8239 106.794 13.1626C107.105 13.5012 107.279 13.9605 107.279 14.4393Z" fill="#A2BADD"/>
<path d="M118.514 14.4393C118.514 14.7964 118.417 15.1456 118.235 15.4426C118.053 15.7396 117.795 15.9711 117.493 16.1078C117.19 16.2444 116.857 16.2802 116.536 16.2105C116.215 16.1408 115.92 15.9688 115.689 15.7163C115.457 15.4637 115.3 15.1419 115.236 14.7916C115.172 14.4413 115.204 14.0781 115.33 13.7482C115.455 13.4182 115.668 13.1361 115.939 12.9377C116.212 12.7392 116.531 12.6333 116.859 12.6333C117.298 12.6333 117.719 12.8236 118.029 13.1623C118.34 13.5009 118.514 13.9603 118.514 14.4393Z" fill="#A2BADD"/>
<path d="M129.748 14.4393C129.748 14.7964 129.651 15.1456 129.469 15.4426C129.288 15.7396 129.029 15.9711 128.726 16.1078C128.424 16.2444 128.091 16.2802 127.77 16.2105C127.449 16.1408 127.155 15.9688 126.923 15.7163C126.692 15.4637 126.534 15.1419 126.47 14.7916C126.406 14.4413 126.439 14.0781 126.564 13.7482C126.69 13.4182 126.902 13.1361 127.174 12.9377C127.446 12.7392 127.766 12.6333 128.093 12.6333C128.532 12.6333 128.953 12.8236 129.264 13.1623C129.574 13.5009 129.748 13.9603 129.748 14.4393Z" fill="#A2BADD"/>
<path d="M62.3395 26.6992C62.3387 27.056 62.241 27.4045 62.0588 27.7007C61.8766 27.9969 61.618 28.2276 61.3157 28.3636C61.0134 28.4995 60.6811 28.5347 60.3605 28.4646C60.0399 28.3945 59.7456 28.2223 59.5146 27.9698C59.2836 27.7173 59.1265 27.3957 59.0629 27.0458C58.9992 26.6958 59.0321 26.3332 59.1573 26.0035C59.2825 25.6739 59.4944 25.3923 59.7662 25.194C60.038 24.9957 60.3576 24.8899 60.6845 24.8896C60.9022 24.8896 61.1176 24.9365 61.3187 25.0275C61.5197 25.1184 61.7022 25.2518 61.856 25.4199C62.0097 25.588 62.1315 25.7875 62.2145 26.007C62.2975 26.2265 62.34 26.4618 62.3395 26.6992Z" fill="#A2BADD"/>
<path d="M73.575 26.6992C73.5743 27.0563 73.4761 27.4051 73.294 27.7015C73.1119 27.9981 72.8536 28.229 72.5505 28.3651C72.2482 28.5012 71.9159 28.5365 71.595 28.4664C71.2742 28.3963 70.9796 28.224 70.7484 27.9713C70.5172 27.7186 70.36 27.3968 70.2966 27.0466C70.2326 26.6964 70.2661 26.3335 70.3913 26.0037C70.5165 25.6739 70.7285 25.392 71.001 25.1938C71.2728 24.9955 71.5929 24.8896 71.9195 24.8896C72.1372 24.8898 72.3528 24.9367 72.5541 25.0277C72.7547 25.1188 72.9376 25.2521 73.0912 25.4201C73.2449 25.5882 73.3666 25.7877 73.4498 26.0071C73.5323 26.2266 73.575 26.4618 73.575 26.6992Z" fill="#A2BADD"/>
<path d="M84.8082 26.6992C84.8075 27.0563 84.71 27.4052 84.5271 27.7018C84.345 27.9983 84.086 28.2292 83.7837 28.3653C83.4813 28.5014 83.1483 28.5365 82.8275 28.4662C82.5066 28.3961 82.2121 28.2236 81.9808 27.9707C81.7503 27.7178 81.5931 27.3958 81.5298 27.0455C81.4657 26.6951 81.4992 26.3321 81.6251 26.0024C81.7503 25.6727 81.963 25.3909 82.2348 25.1929C82.5073 24.9948 82.8275 24.8893 83.1547 24.8896C83.3724 24.89 83.5873 24.9371 83.7879 25.0283C83.9886 25.1194 84.1714 25.2527 84.3251 25.4208C84.4781 25.5889 84.5997 25.7882 84.683 26.0076C84.7655 26.2269 84.8082 26.4619 84.8082 26.6992Z" fill="#A2BADD"/>
<path d="M96.045 26.6992C96.0443 27.0563 95.9468 27.4051 95.764 27.7015C95.5819 27.9981 95.3236 28.229 95.0212 28.3651C94.7181 28.5012 94.3859 28.5365 94.065 28.4664C93.7442 28.3963 93.4496 28.224 93.2184 27.9713C92.9872 27.7186 92.8299 27.3968 92.7666 27.0466C92.7026 26.6964 92.736 26.3335 92.8612 26.0037C92.9865 25.6739 93.1985 25.392 93.471 25.1938C93.7427 24.9955 94.0629 24.8896 94.3902 24.8896C94.6072 24.8898 94.8227 24.9367 95.0241 25.0277C95.2247 25.1188 95.4076 25.2521 95.5612 25.4201C95.7149 25.5882 95.8366 25.7877 95.9198 26.0071C96.0023 26.2266 96.045 26.4618 96.045 26.6992Z" fill="#A2BADD"/>
<path d="M107.279 26.6992C107.278 27.0563 107.181 27.4051 106.998 27.7016C106.816 27.9982 106.557 28.2291 106.255 28.3652C105.952 28.5013 105.62 28.5365 105.299 28.4663C104.978 28.3962 104.683 28.2238 104.452 27.971C104.221 27.7182 104.064 27.3964 104 27.046C103.937 26.6958 103.97 26.3328 104.096 26.0031C104.221 25.6733 104.433 25.3915 104.705 25.1933C104.977 24.9952 105.297 24.8895 105.625 24.8896C105.842 24.8898 106.058 24.9367 106.259 25.0277C106.459 25.1188 106.642 25.2522 106.796 25.4202C106.949 25.5882 107.071 25.7878 107.154 26.0072C107.237 26.2267 107.28 26.4618 107.279 26.6992Z" fill="#A2BADD"/>
<path d="M118.514 26.6989C118.514 27.0562 118.417 27.4053 118.235 27.7023C118.053 27.9993 117.795 28.2308 117.493 28.3674C117.19 28.5041 116.857 28.5399 116.536 28.4702C116.215 28.4005 115.92 28.2285 115.689 27.976C115.457 27.7234 115.3 27.4016 115.236 27.0513C115.172 26.701 115.204 26.3379 115.33 26.0079C115.455 25.6779 115.668 25.3958 115.939 25.1974C116.212 24.9989 116.531 24.8931 116.859 24.8931C117.298 24.8931 117.719 25.0833 118.029 25.422C118.34 25.7607 118.514 26.22 118.514 26.6989Z" fill="#A2BADD"/>
<path d="M129.748 26.6989C129.748 27.0562 129.651 27.4053 129.469 27.7023C129.288 27.9993 129.029 28.2308 128.726 28.3674C128.424 28.5041 128.091 28.5399 127.77 28.4702C127.449 28.4005 127.155 28.2285 126.923 27.976C126.692 27.7234 126.534 27.4016 126.47 27.0513C126.406 26.701 126.439 26.3379 126.564 26.0079C126.69 25.6779 126.902 25.3958 127.174 25.1974C127.446 24.9989 127.766 24.8931 128.093 24.8931C128.532 24.8931 128.953 25.0833 129.264 25.422C129.574 25.7607 129.748 26.22 129.748 26.6989Z" fill="#A2BADD"/>
<path d="M62.3395 38.9593C62.3393 39.3162 62.2422 39.6651 62.0604 39.9614C61.8786 40.2587 61.6202 40.4899 61.318 40.6265C61.0158 40.7623 60.6833 40.7981 60.3625 40.729C60.0417 40.6591 59.7471 40.4868 59.5158 40.2346C59.2845 39.9823 59.1269 39.6608 59.0631 39.3107C58.9992 38.9607 59.0319 38.5978 59.157 38.268C59.2821 37.9382 59.494 37.6563 59.7659 37.4579C60.0378 37.2595 60.3575 37.1535 60.6845 37.1533C60.9019 37.1532 61.1172 37.1998 61.318 37.2905C61.5189 37.3813 61.7014 37.5143 61.855 37.682C62.0087 37.8497 62.1306 38.0489 62.2137 38.268C62.2969 38.4872 62.3396 38.7221 62.3395 38.9593Z" fill="#A2BADD"/>
<path d="M73.575 38.9593C73.575 39.3164 73.4775 39.6656 73.2961 39.963C73.114 40.2594 72.8557 40.4907 72.5533 40.6281C72.251 40.7647 71.918 40.8004 71.5971 40.7305C71.2756 40.6607 70.981 40.4892 70.7498 40.2361C70.5178 39.9839 70.3606 39.6619 70.2966 39.3116C70.2326 38.9613 70.2653 38.5981 70.3905 38.2681C70.5157 37.9381 70.7284 37.6561 71.0002 37.4576C71.2727 37.2593 71.5921 37.1533 71.9194 37.1533C72.3584 37.1533 72.7796 37.3435 73.0898 37.6822C73.4007 38.0209 73.575 38.4803 73.575 38.9593Z" fill="#A2BADD"/>
<path d="M84.8082 38.9593C84.8082 39.3164 84.7107 39.6656 84.5293 39.963C84.3472 40.2594 84.0889 40.4907 83.7865 40.6281C83.4842 40.7647 83.1512 40.8004 82.8303 40.7305C82.5095 40.6607 82.2142 40.4892 81.983 40.2361C81.7511 39.9839 81.5938 39.6619 81.5298 39.3116C81.4658 38.9613 81.4992 38.5981 81.6244 38.2681C81.7496 37.9381 81.9617 37.6561 82.2334 37.4576C82.5059 37.2593 82.8261 37.1533 83.1533 37.1533C83.5923 37.1533 84.0128 37.3435 84.323 37.6822C84.6339 38.0209 84.8082 38.4803 84.8082 38.9593Z" fill="#A2BADD"/>
<path d="M96.0449 38.9593C96.0449 39.3164 95.9475 39.6656 95.766 39.963C95.5839 40.2594 95.3257 40.4907 95.0233 40.6281C94.7209 40.7647 94.3879 40.8004 94.0671 40.7305C93.7462 40.6607 93.451 40.4892 93.2197 40.2361C92.9878 39.9839 92.8306 39.6619 92.7665 39.3116C92.7025 38.9613 92.7352 38.5981 92.8612 38.2681C92.9864 37.9381 93.1984 37.6561 93.4702 37.4576C93.7427 37.2593 94.0628 37.1533 94.3901 37.1533C94.6071 37.1533 94.8226 37.2 95.0233 37.2908C95.2239 37.3816 95.406 37.5146 95.5597 37.6822C95.7134 37.85 95.8358 38.049 95.919 38.2681C96.0023 38.4872 96.0449 38.7221 96.0449 38.9593Z" fill="#A2BADD"/>
<path d="M107.279 38.9593C107.279 39.3164 107.182 39.6657 107 39.963C106.818 40.2594 106.56 40.4915 106.257 40.6281C105.955 40.7647 105.622 40.8004 105.301 40.7305C104.979 40.6607 104.685 40.4884 104.454 40.2361C104.222 39.9831 104.064 39.6614 104 39.311C103.937 38.9607 103.97 38.5975 104.095 38.2675C104.22 37.9375 104.433 37.6555 104.705 37.4573C104.977 37.2589 105.297 37.1532 105.625 37.1533C105.842 37.1533 106.057 37.2 106.258 37.2908C106.459 37.3816 106.641 37.5146 106.794 37.6823C106.948 37.85 107.07 38.0491 107.153 38.2682C107.236 38.4873 107.279 38.7222 107.279 38.9593Z" fill="#A2BADD"/>
<path d="M118.514 38.9593C118.514 39.3164 118.417 39.6656 118.235 39.963C118.053 40.2594 117.795 40.4907 117.493 40.6281C117.19 40.7647 116.857 40.8004 116.536 40.7305C116.215 40.6607 115.92 40.4892 115.689 40.2361C115.457 39.9839 115.3 39.6619 115.236 39.3116C115.172 38.9613 115.204 38.5981 115.33 38.2681C115.455 37.9381 115.668 37.6561 115.939 37.4576C116.212 37.2593 116.531 37.1533 116.859 37.1533C117.076 37.1532 117.292 37.1998 117.493 37.2905C117.693 37.3813 117.876 37.5143 118.03 37.682C118.183 37.8497 118.305 38.0489 118.388 38.268C118.471 38.4872 118.514 38.7221 118.514 38.9593Z" fill="#A2BADD"/>
<path d="M129.748 38.9593C129.748 39.3164 129.651 39.6656 129.469 39.963C129.288 40.2594 129.029 40.4907 128.726 40.6281C128.424 40.7647 128.091 40.8004 127.77 40.7305C127.449 40.6607 127.155 40.4892 126.923 40.2361C126.692 39.9839 126.534 39.6619 126.47 39.3116C126.406 38.9613 126.439 38.5981 126.564 38.2681C126.69 37.9381 126.902 37.6561 127.174 37.4576C127.446 37.2593 127.766 37.1533 128.093 37.1533C128.311 37.1532 128.526 37.1998 128.726 37.2905C128.928 37.3813 129.11 37.5143 129.264 37.682C129.417 37.8497 129.54 38.0489 129.622 38.268C129.705 38.4872 129.748 38.7221 129.748 38.9593Z" fill="#A2BADD"/>
<path d="M62.3395 51.2181C62.3395 51.5751 62.2425 51.9243 62.0608 52.2208C61.8791 52.5181 61.6208 52.7493 61.3186 52.8859C61.0163 53.0225 60.6838 53.0582 60.363 52.9884C60.0422 52.9193 59.7474 52.747 59.516 52.4948C59.2847 52.2425 59.1271 51.9212 59.0631 51.5712C58.9992 51.2212 59.0319 50.8579 59.1569 50.5281C59.282 50.1982 59.4939 49.9165 59.7658 49.7178C60.0377 49.5191 60.3574 49.4136 60.6845 49.4136C60.9018 49.4128 61.117 49.4594 61.3178 49.5502C61.5186 49.641 61.7011 49.7737 61.8547 49.9413C62.0084 50.109 62.1304 50.3085 62.2135 50.5273C62.2967 50.7462 62.3395 50.9813 62.3395 51.2181Z" fill="#A2BADD"/>
<path d="M71.9193 53.0249C72.8335 53.0249 73.5748 52.2169 73.5748 51.2188C73.5748 50.2215 72.8335 49.4136 71.9193 49.4136C71.0057 49.4136 70.2644 50.2215 70.2644 51.2188C70.2644 52.2169 71.0057 53.0249 71.9193 53.0249Z" fill="#A2BADD"/>
<path d="M84.8081 51.2181C84.8081 51.5758 84.7114 51.9251 84.5292 52.2216C84.3478 52.5188 84.0896 52.7509 83.7872 52.8875C83.4848 53.0241 83.1519 53.0598 82.831 52.9907C82.5094 52.9209 82.2149 52.7493 81.9829 52.4963C81.7517 52.2441 81.5938 51.922 81.5297 51.572C81.4657 51.2212 81.4984 50.8579 81.6236 50.5281C81.7489 50.1982 81.9616 49.9157 82.2334 49.7178C82.5059 49.5191 82.826 49.4136 83.1533 49.4136C83.5915 49.4136 84.0127 49.6037 84.3229 49.9421C84.6331 50.2805 84.8074 50.7392 84.8081 51.2181Z" fill="#A2BADD"/>
<path d="M96.045 51.2181C96.045 51.5758 95.9482 51.9251 95.7661 52.2216C95.5846 52.5188 95.3264 52.7509 95.024 52.8875C94.7216 53.0241 94.3887 53.0598 94.0671 52.9907C93.7462 52.9209 93.4517 52.7493 93.2198 52.4963C92.9885 52.2441 92.8306 51.922 92.7666 51.572C92.7025 51.2212 92.7352 50.8579 92.8605 50.5281C92.9857 50.1982 93.1984 49.9157 93.4702 49.7178C93.7427 49.5191 94.0621 49.4136 94.3901 49.4136C94.8284 49.4136 95.2495 49.6037 95.5597 49.9421C95.8699 50.2805 96.0442 50.7392 96.045 51.2181Z" fill="#A2BADD"/>
<path d="M105.625 53.0249C106.539 53.0249 107.28 52.2169 107.28 51.2188C107.28 50.2215 106.539 49.4136 105.625 49.4136C104.711 49.4136 103.97 50.2215 103.97 51.2188C103.97 52.2169 104.711 53.0249 105.625 53.0249Z" fill="#A2BADD"/>
<path d="M118.514 51.2181C118.514 51.5759 118.417 51.9251 118.235 52.2216C118.054 52.5188 117.796 52.7509 117.493 52.8875C117.191 53.0241 116.858 53.0598 116.537 52.9907C116.215 52.9209 115.921 52.7493 115.689 52.4963C115.458 52.2441 115.3 51.922 115.236 51.572C115.172 51.2212 115.204 50.8579 115.33 50.5281C115.455 50.1982 115.668 49.9157 115.939 49.7178C116.212 49.5191 116.531 49.4136 116.859 49.4136C117.076 49.4128 117.291 49.4594 117.493 49.5502C117.693 49.641 117.875 49.7737 118.029 49.9413C118.183 50.109 118.305 50.3085 118.388 50.5273C118.471 50.7462 118.514 50.9813 118.514 51.2181Z" fill="#A2BADD"/>
<path d="M129.748 51.2181C129.748 51.5759 129.651 51.9251 129.47 52.2216C129.288 52.5188 129.03 52.7509 128.727 52.8875C128.425 53.0241 128.092 53.0598 127.771 52.9907C127.45 52.9209 127.155 52.7493 126.924 52.4963C126.692 52.2441 126.534 51.922 126.47 51.572C126.406 51.2212 126.439 50.8579 126.564 50.5281C126.69 50.1982 126.902 49.9157 127.174 49.7178C127.446 49.5191 127.766 49.4136 128.093 49.4136C128.31 49.4128 128.526 49.4594 128.726 49.5502C128.927 49.641 129.11 49.7737 129.264 49.9413C129.417 50.109 129.539 50.3085 129.622 50.5273C129.705 50.7462 129.748 50.9813 129.748 51.2181Z" fill="#A2BADD"/>
<path d="M954.871 207.661C954.871 207.981 954.786 208.293 954.622 208.559C954.459 208.824 954.231 209.031 953.961 209.154C953.69 209.276 953.391 209.309 953.107 209.246C952.815 209.184 952.552 209.03 952.346 208.803C952.139 208.577 951.997 208.289 951.94 207.976C951.883 207.662 951.912 207.338 952.025 207.042C952.139 206.747 952.324 206.495 952.573 206.317C952.815 206.14 953.1 206.045 953.391 206.045C953.783 206.045 954.16 206.215 954.437 206.518C954.715 206.821 954.871 207.232 954.871 207.661Z" fill="#A2BADD"/>
<path d="M963.444 209.277C964.262 209.277 964.924 208.553 964.924 207.661C964.924 206.768 964.262 206.045 963.444 206.045C962.626 206.045 961.964 206.768 961.964 207.661C961.964 208.553 962.626 209.277 963.444 209.277Z" fill="#A2BADD"/>
<path d="M974.977 207.661C974.977 207.981 974.892 208.293 974.728 208.559C974.564 208.825 974.337 209.031 974.066 209.154C973.796 209.277 973.497 209.309 973.213 209.246C972.921 209.184 972.658 209.029 972.451 208.803C972.245 208.577 972.103 208.289 972.046 207.976C971.989 207.662 972.017 207.337 972.131 207.042C972.245 206.747 972.43 206.494 972.679 206.317C972.921 206.14 973.205 206.045 973.497 206.045C973.696 206.045 973.888 206.087 974.066 206.168C974.244 206.249 974.408 206.369 974.543 206.518C974.685 206.668 974.792 206.847 974.87 207.042C974.941 207.239 974.977 207.449 974.977 207.661Z" fill="#A2BADD"/>
<path d="M985.03 207.661C985.03 207.981 984.945 208.293 984.781 208.559C984.617 208.824 984.39 209.031 984.119 209.154C983.849 209.276 983.55 209.309 983.265 209.246C982.974 209.184 982.711 209.03 982.504 208.803C982.298 208.577 982.156 208.289 982.099 207.976C982.042 207.662 982.07 207.338 982.184 207.042C982.298 206.747 982.483 206.495 982.732 206.317C982.974 206.14 983.258 206.045 983.55 206.045C983.749 206.045 983.941 206.087 984.119 206.168C984.297 206.249 984.461 206.368 984.603 206.518C984.738 206.668 984.845 206.847 984.923 207.042C984.994 207.239 985.03 207.449 985.03 207.661Z" fill="#A2BADD"/>
<path d="M993.603 209.277C994.421 209.277 995.09 208.553 995.09 207.661C995.09 206.768 994.421 206.045 993.603 206.045C992.785 206.045 992.123 206.768 992.123 207.661C992.123 208.553 992.785 209.277 993.603 209.277Z" fill="#A2BADD"/>
<path d="M1005.14 207.661C1005.14 207.981 1005.05 208.293 1004.89 208.559C1004.73 208.824 1004.5 209.031 1004.23 209.154C1003.95 209.276 1003.66 209.309 1003.37 209.246C1003.08 209.184 1002.82 209.03 1002.61 208.803C1002.4 208.577 1002.26 208.289 1002.2 207.976C1002.15 207.662 1002.18 207.338 1002.29 207.042C1002.4 206.747 1002.6 206.495 1002.84 206.317C1003.08 206.14 1003.36 206.045 1003.66 206.045C1004.05 206.045 1004.43 206.215 1004.71 206.518C1004.99 206.821 1005.14 207.232 1005.14 207.661Z" fill="#A2BADD"/>
<path d="M1015.2 207.661C1015.2 207.981 1015.1 208.293 1014.95 208.559C1014.78 208.824 1014.55 209.031 1014.28 209.154C1014.01 209.276 1013.71 209.309 1013.42 209.246C1013.14 209.184 1012.87 209.03 1012.66 208.803C1012.46 208.577 1012.31 208.289 1012.26 207.976C1012.2 207.662 1012.23 207.338 1012.34 207.042C1012.46 206.747 1012.65 206.495 1012.89 206.317C1013.13 206.14 1013.42 206.045 1013.72 206.045C1014.11 206.045 1014.48 206.215 1014.76 206.518C1015.04 206.821 1015.2 207.232 1015.2 207.661Z" fill="#A2BADD"/>
<path d="M964.924 218.632C964.924 218.951 964.839 219.264 964.675 219.529C964.511 219.795 964.284 220.002 964.013 220.124C963.743 220.247 963.444 220.279 963.16 220.217C962.868 220.155 962.605 220 962.398 219.774C962.192 219.548 962.05 219.26 961.993 218.947C961.936 218.633 961.964 218.308 962.078 218.013C962.192 217.718 962.377 217.465 962.626 217.288C962.868 217.111 963.152 217.015 963.444 217.015C963.835 217.016 964.213 217.186 964.49 217.489C964.768 217.792 964.924 218.203 964.924 218.632Z" fill="#A2BADD"/>
<path d="M974.977 218.632C974.977 218.952 974.892 219.264 974.728 219.53C974.564 219.795 974.337 220.002 974.066 220.124C973.796 220.247 973.497 220.279 973.213 220.217C972.921 220.154 972.658 220 972.451 219.774C972.245 219.548 972.103 219.26 972.046 218.946C971.989 218.633 972.017 218.308 972.131 218.012C972.245 217.718 972.43 217.465 972.679 217.288C972.921 217.11 973.205 217.015 973.497 217.015C973.896 217.016 974.266 217.186 974.543 217.489C974.82 217.792 974.977 218.203 974.977 218.632Z" fill="#A2BADD"/>
<path d="M985.03 218.632C985.03 218.951 984.945 219.264 984.781 219.529C984.617 219.795 984.39 220.002 984.119 220.124C983.849 220.247 983.55 220.279 983.265 220.217C982.974 220.155 982.711 220 982.504 219.774C982.298 219.548 982.156 219.26 982.099 218.947C982.042 218.633 982.07 218.308 982.184 218.013C982.298 217.718 982.483 217.465 982.732 217.288C982.974 217.111 983.258 217.015 983.55 217.015C983.941 217.015 984.318 217.186 984.596 217.489C984.88 217.792 985.03 218.203 985.03 218.632Z" fill="#A2BADD"/>
<path d="M995.09 218.632C995.09 218.951 994.997 219.264 994.834 219.529C994.677 219.795 994.442 220.002 994.172 220.124C993.902 220.247 993.603 220.279 993.318 220.217C993.026 220.155 992.763 220 992.557 219.774C992.351 219.548 992.208 219.26 992.152 218.947C992.095 218.633 992.123 218.308 992.237 218.013C992.351 217.718 992.543 217.465 992.785 217.288C993.026 217.111 993.311 217.015 993.603 217.015C994.001 217.015 994.378 217.186 994.656 217.489C994.933 217.792 995.09 218.203 995.09 218.632Z" fill="#A2BADD"/>
<path d="M1005.14 218.632C1005.14 218.951 1005.05 219.264 1004.89 219.529C1004.73 219.795 1004.5 220.002 1004.23 220.124C1003.95 220.247 1003.66 220.279 1003.37 220.217C1003.08 220.155 1002.82 220 1002.61 219.774C1002.4 219.548 1002.26 219.26 1002.2 218.947C1002.15 218.633 1002.18 218.308 1002.29 218.013C1002.4 217.718 1002.6 217.465 1002.84 217.288C1003.08 217.111 1003.36 217.015 1003.66 217.015C1004.05 217.016 1004.43 217.186 1004.71 217.489C1004.99 217.792 1005.14 218.203 1005.14 218.632Z" fill="#A2BADD"/>
<path d="M1015.2 218.632C1015.2 218.951 1015.1 219.264 1014.95 219.529C1014.78 219.795 1014.55 220.002 1014.28 220.124C1014.01 220.247 1013.71 220.279 1013.42 220.217C1013.14 220.155 1012.87 220 1012.66 219.774C1012.46 219.548 1012.31 219.26 1012.26 218.947C1012.2 218.633 1012.23 218.308 1012.34 218.013C1012.46 217.718 1012.65 217.465 1012.89 217.288C1013.13 217.111 1013.42 217.015 1013.72 217.015C1014.11 217.016 1014.48 217.186 1014.76 217.489C1015.04 217.792 1015.2 218.203 1015.2 218.632Z" fill="#A2BADD"/>
<path d="M1025.25 218.632C1025.25 218.952 1025.16 219.264 1025 219.53C1024.84 219.795 1024.6 220.002 1024.33 220.124C1024.06 220.247 1023.76 220.279 1023.48 220.217C1023.19 220.154 1022.92 220 1022.72 219.774C1022.51 219.548 1022.37 219.26 1022.31 218.946C1022.25 218.633 1022.29 218.308 1022.4 218.012C1022.51 217.718 1022.7 217.465 1022.94 217.288C1023.19 217.11 1023.47 217.015 1023.77 217.015C1024.16 217.016 1024.54 217.186 1024.81 217.489C1025.09 217.792 1025.25 218.203 1025.25 218.632Z" fill="#A2BADD"/>
<path d="M1027.78 675.094C1027.78 675.988 1027.54 676.861 1027.08 677.604C1026.63 678.347 1025.98 678.926 1025.22 679.267C1024.47 679.609 1023.63 679.698 1022.83 679.523C1022.03 679.349 1021.29 678.919 1020.71 678.286C1020.13 677.655 1019.74 676.85 1019.58 675.973C1019.42 675.097 1019.5 674.188 1019.81 673.363C1020.13 672.538 1020.66 671.832 1021.34 671.336C1022.02 670.839 1022.82 670.575 1023.64 670.575C1024.18 670.575 1024.72 670.691 1025.23 670.919C1025.73 671.146 1026.18 671.479 1026.56 671.899C1026.96 672.318 1027.25 672.816 1027.47 673.365C1027.67 673.913 1027.78 674.501 1027.78 675.094Z" stroke="#DFEAFC" stroke-miterlimit="10"/>
<path d="M1055.9 675.094C1055.9 675.988 1055.66 676.862 1055.2 677.606C1054.75 678.348 1054.1 678.928 1053.34 679.27C1052.58 679.612 1051.75 679.702 1050.95 679.527C1050.14 679.353 1049.4 678.923 1048.83 678.29C1048.24 677.658 1047.85 676.853 1047.7 675.976C1047.53 675.099 1047.62 674.191 1047.93 673.365C1048.24 672.539 1048.77 671.833 1049.45 671.336C1050.14 670.839 1050.93 670.575 1051.76 670.575C1052.85 670.575 1053.91 671.05 1054.68 671.898C1055.46 672.746 1055.9 673.896 1055.9 675.094Z" stroke="#DFEAFC" stroke-miterlimit="10"/>
<path d="M1084.01 675.094C1084.01 675.988 1083.77 676.862 1083.31 677.606C1082.86 678.348 1082.21 678.928 1081.45 679.27C1080.7 679.612 1079.86 679.702 1079.06 679.527C1078.26 679.353 1077.52 678.923 1076.94 678.29C1076.36 677.658 1075.97 676.853 1075.8 675.976C1075.65 675.099 1075.73 674.191 1076.04 673.365C1076.35 672.539 1076.89 671.833 1077.57 671.336C1078.25 670.839 1079.05 670.575 1079.87 670.575C1080.42 670.575 1080.95 670.691 1081.45 670.918C1081.96 671.145 1082.41 671.478 1082.8 671.898C1083.18 672.318 1083.49 672.816 1083.69 673.364C1083.9 673.913 1084.01 674.5 1084.01 675.094Z" stroke="#DFEAFC" stroke-miterlimit="10"/>
<path d="M1.32603 562.192C1.89186 562.192 2.35056 561.69 2.35056 561.073C2.35056 560.456 1.89186 559.955 1.32603 559.955C0.760205 559.955 0.301514 560.456 0.301514 561.073C0.301514 561.69 0.760205 562.192 1.32603 562.192Z" fill="#4181E0"/>
<path d="M14.6894 562.192C15.2552 562.192 15.7139 561.69 15.7139 561.073C15.7139 560.456 15.2552 559.955 14.6894 559.955C14.1235 559.955 13.6648 560.456 13.6648 561.073C13.6648 561.69 14.1235 562.192 14.6894 562.192Z" fill="#4181E0"/>
<path d="M1.32603 576.65C1.89186 576.65 2.35056 576.149 2.35056 575.532C2.35056 574.914 1.89186 574.414 1.32603 574.414C0.760205 574.414 0.301514 574.914 0.301514 575.532C0.301514 576.149 0.760205 576.65 1.32603 576.65Z" fill="#4181E0"/>
<path d="M14.6894 576.65C15.2552 576.65 15.7139 576.149 15.7139 575.532C15.7139 574.914 15.2552 574.414 14.6894 574.414C14.1235 574.414 13.6648 574.914 13.6648 575.532C13.6648 576.149 14.1235 576.65 14.6894 576.65Z" fill="#4181E0"/>
<path d="M2.35056 589.99C2.35056 590.212 2.29044 590.427 2.17789 590.611C2.06531 590.795 1.90531 590.939 1.7181 591.023C1.5309 591.108 1.32489 591.13 1.12615 591.087C0.927422 591.044 0.744876 590.937 0.601589 590.781C0.458308 590.625 0.360731 590.425 0.321203 590.209C0.281667 589.991 0.301958 589.767 0.3795 589.562C0.457042 589.358 0.588356 589.183 0.756836 589.061C0.925316 588.937 1.1234 588.872 1.32603 588.872C1.59775 588.872 1.85834 588.99 2.05047 589.2C2.24263 589.409 2.35056 589.694 2.35056 589.99Z" fill="#4181E0"/>
<path d="M15.7136 589.99C15.7136 590.212 15.6535 590.427 15.5409 590.611C15.4283 590.795 15.2683 590.939 15.0811 591.023C14.8939 591.108 14.6879 591.13 14.4892 591.087C14.2904 591.044 14.1079 590.937 13.9646 590.781C13.8213 590.625 13.7238 590.425 13.6842 590.209C13.6447 589.991 13.665 589.767 13.7425 589.562C13.8201 589.358 13.9514 589.183 14.1198 589.061C14.2884 588.937 14.4864 588.872 14.6891 588.872C14.8236 588.872 14.9568 588.901 15.0811 588.957C15.2054 589.013 15.3184 589.096 15.4135 589.2C15.5086 589.304 15.5841 589.427 15.6356 589.562C15.6871 589.698 15.7136 589.844 15.7136 589.99Z" fill="#4181E0"/>
<path d="M2.35056 604.449C2.35041 604.671 2.2903 604.886 2.17767 605.07C2.06501 605.254 1.90497 605.398 1.71776 605.482C1.53054 605.567 1.32456 605.589 1.12586 605.545C0.92715 605.503 0.744653 605.396 0.601415 605.24C0.458184 605.083 0.360651 604.884 0.321165 604.667C0.281672 604.45 0.301991 604.225 0.379547 604.021C0.457103 603.817 0.588417 603.642 0.756891 603.519C0.925357 603.396 1.12342 603.331 1.32603 603.331C1.59779 603.331 1.85838 603.449 2.0505 603.659C2.24263 603.868 2.35056 604.153 2.35056 604.449Z" fill="#4181E0"/>
<path d="M15.7136 604.449C15.7135 604.671 15.6533 604.886 15.5407 605.07C15.4281 605.254 15.268 605.398 15.0808 605.482C14.8935 605.567 14.6876 605.589 14.4889 605.545C14.2902 605.503 14.1077 605.396 13.9645 605.24C13.8212 605.083 13.7237 604.884 13.6842 604.667C13.6447 604.45 13.665 604.225 13.7425 604.021C13.8201 603.817 13.9514 603.642 14.1199 603.519C14.2884 603.396 14.4864 603.331 14.6891 603.331C14.8236 603.331 14.9569 603.36 15.0812 603.416C15.2056 603.472 15.3185 603.555 15.4137 603.659C15.5088 603.763 15.5843 603.886 15.6357 604.021C15.6872 604.157 15.7136 604.303 15.7136 604.449Z" fill="#4181E0"/>
<path d="M26.454 562.192C27.0198 562.192 27.4785 561.69 27.4785 561.073C27.4785 560.456 27.0198 559.955 26.454 559.955C25.8882 559.955 25.4294 560.456 25.4294 561.073C25.4294 561.69 25.8882 562.192 26.454 562.192Z" fill="#4181E0"/>
<path d="M39.8175 562.192C40.3834 562.192 40.842 561.69 40.842 561.073C40.842 560.456 40.3834 559.955 39.8175 559.955C39.2517 559.955 38.793 560.456 38.793 561.073C38.793 561.69 39.2517 562.192 39.8175 562.192Z" fill="#4181E0"/>
<path d="M53.1808 562.192C53.7466 562.192 54.2053 561.69 54.2053 561.073C54.2053 560.456 53.7466 559.955 53.1808 559.955C52.615 559.955 52.1562 560.456 52.1562 561.073C52.1562 561.69 52.615 562.192 53.1808 562.192Z" fill="#4181E0"/>
<path d="M66.5443 562.192C67.1099 562.192 67.5688 561.69 67.5688 561.073C67.5688 560.456 67.1099 559.955 66.5443 559.955C65.9785 559.955 65.5198 560.456 65.5198 561.073C65.5198 561.69 65.9785 562.192 66.5443 562.192Z" fill="#4181E0"/>
<path d="M26.454 576.65C27.0198 576.65 27.4785 576.149 27.4785 575.532C27.4785 574.914 27.0198 574.414 26.454 574.414C25.8882 574.414 25.4294 574.914 25.4294 575.532C25.4294 576.149 25.8882 576.65 26.454 576.65Z" fill="#4181E0"/>
<path d="M39.8175 576.65C40.3834 576.65 40.842 576.149 40.842 575.532C40.842 574.914 40.3834 574.414 39.8175 574.414C39.2517 574.414 38.793 574.914 38.793 575.532C38.793 576.149 39.2517 576.65 39.8175 576.65Z" fill="#4181E0"/>
<path d="M53.1808 576.65C53.7466 576.65 54.2053 576.149 54.2053 575.532C54.2053 574.914 53.7466 574.414 53.1808 574.414C52.615 574.414 52.1562 574.914 52.1562 575.532C52.1562 576.149 52.615 576.65 53.1808 576.65Z" fill="#4181E0"/>
<path d="M66.5443 576.65C67.1099 576.65 67.5688 576.149 67.5688 575.532C67.5688 574.914 67.1099 574.414 66.5443 574.414C65.9785 574.414 65.5198 574.914 65.5198 575.532C65.5198 576.149 65.9785 576.65 66.5443 576.65Z" fill="#4181E0"/>
<path d="M27.4787 589.99C27.4787 590.212 27.4186 590.427 27.306 590.611C27.1935 590.795 27.0335 590.939 26.8462 591.023C26.659 591.108 26.4531 591.13 26.2543 591.087C26.0556 591.044 25.873 590.937 25.7297 590.781C25.5864 590.625 25.4889 590.425 25.4493 590.209C25.4099 589.991 25.4301 589.767 25.5077 589.562C25.5852 589.358 25.7165 589.183 25.885 589.061C26.0534 588.937 26.2516 588.872 26.4542 588.872C26.7259 588.872 26.9865 588.99 27.1786 589.2C27.3708 589.409 27.4787 589.694 27.4787 589.99Z" fill="#4181E0"/>
<path d="M40.842 589.99C40.842 590.212 40.7819 590.427 40.6693 590.611C40.5568 590.795 40.3968 590.939 40.2095 591.023C40.0223 591.108 39.8164 591.13 39.6176 591.087C39.4189 591.044 39.2363 590.937 39.093 590.781C38.9497 590.625 38.8522 590.425 38.8126 590.209C38.7731 589.991 38.7934 589.767 38.871 589.562C38.9485 589.358 39.0798 589.183 39.2483 589.061C39.4167 588.937 39.6149 588.872 39.8175 588.872C40.0892 588.872 40.3498 588.99 40.5419 589.2C40.7341 589.409 40.842 589.694 40.842 589.99Z" fill="#4181E0"/>
<path d="M54.2055 589.99C54.2055 590.212 54.1454 590.427 54.0328 590.611C53.9203 590.795 53.7603 590.939 53.5731 591.023C53.3858 591.108 53.1799 591.13 52.9811 591.087C52.7824 591.044 52.5998 590.937 52.4565 590.781C52.3132 590.625 52.2157 590.425 52.1762 590.209C52.1367 589.991 52.1569 589.767 52.2345 589.562C52.312 589.358 52.4433 589.183 52.6118 589.061C52.7803 588.937 52.9784 588.872 53.181 588.872C53.4527 588.872 53.7133 588.99 53.9054 589.2C54.0976 589.409 54.2055 589.694 54.2055 589.99Z" fill="#4181E0"/>
<path d="M67.5681 589.99C67.5681 590.212 67.5083 590.427 67.3959 590.611C67.2828 590.795 67.1234 590.939 66.9356 591.023C66.7485 591.108 66.5429 591.13 66.3437 591.087C66.1452 591.044 65.9626 590.937 65.8193 590.781C65.6761 590.625 65.5785 590.425 65.539 590.209C65.4994 589.991 65.5197 589.767 65.5973 589.562C65.6748 589.358 65.8061 589.183 65.9746 589.061C66.1431 588.937 66.3408 588.872 66.5436 588.872C66.678 588.872 66.8118 588.901 66.9356 588.957C67.0601 589.013 67.1732 589.096 67.2685 589.2C67.3632 589.304 67.4386 589.427 67.4905 589.562C67.5417 589.698 67.5681 589.844 67.5681 589.99Z" fill="#4181E0"/>
<path d="M27.4787 604.449C27.4786 604.671 27.4184 604.886 27.3058 605.07C27.1932 605.254 27.0331 605.398 26.8459 605.482C26.6587 605.567 26.4527 605.589 26.254 605.545C26.0553 605.503 25.8728 605.396 25.7296 605.24C25.5864 605.083 25.4888 604.884 25.4493 604.667C25.4099 604.45 25.4301 604.225 25.5077 604.021C25.5852 603.817 25.7166 603.642 25.885 603.519C26.0535 603.396 26.2516 603.331 26.4542 603.331C26.5887 603.331 26.722 603.36 26.8464 603.416C26.9707 603.472 27.0836 603.555 27.1788 603.659C27.274 603.763 27.3494 603.886 27.4009 604.021C27.4523 604.157 27.4788 604.303 27.4787 604.449Z" fill="#4181E0"/>
<path d="M40.842 604.449C40.8419 604.671 40.7817 604.886 40.6691 605.07C40.5565 605.254 40.3964 605.398 40.2092 605.482C40.022 605.567 39.816 605.589 39.6173 605.545C39.4186 605.503 39.2361 605.396 39.0929 605.24C38.9497 605.083 38.8521 604.884 38.8126 604.667C38.7731 604.45 38.7934 604.225 38.871 604.021C38.9485 603.817 39.0798 603.642 39.2483 603.519C39.4168 603.396 39.6149 603.331 39.8175 603.331C39.952 603.331 40.0853 603.36 40.2096 603.416C40.334 603.472 40.4469 603.555 40.5421 603.659C40.6372 603.763 40.7126 603.886 40.7642 604.021C40.8156 604.157 40.8421 604.303 40.842 604.449Z" fill="#4181E0"/>
<path d="M54.2055 604.449C54.2054 604.671 54.1453 604.886 54.0326 605.07C53.92 605.254 53.7599 605.398 53.5727 605.482C53.3855 605.567 53.1795 605.589 52.9808 605.545C52.7821 605.503 52.5996 605.396 52.4564 605.24C52.3132 605.083 52.2156 604.884 52.1762 604.667C52.1367 604.45 52.1569 604.225 52.2345 604.021C52.312 603.817 52.4434 603.642 52.6118 603.519C52.7803 603.396 52.9784 603.331 53.181 603.331C53.4528 603.331 53.7133 603.449 53.9055 603.659C54.0976 603.868 54.2055 604.153 54.2055 604.449Z" fill="#4181E0"/>
<path d="M67.5681 604.449C67.5681 604.671 67.5083 604.886 67.3952 605.07C67.2828 605.254 67.1227 605.398 66.9356 605.482C66.7485 605.567 66.5422 605.589 66.3437 605.545C66.1449 605.503 65.9624 605.396 65.8192 605.24C65.676 605.083 65.5784 604.884 65.5389 604.667C65.4995 604.45 65.5197 604.225 65.5973 604.021C65.6749 603.817 65.8062 603.642 65.9746 603.519C66.1431 603.396 66.3415 603.331 66.5436 603.331C66.6781 603.331 66.8118 603.36 66.9363 603.416C67.0601 603.472 67.1732 603.555 67.2686 603.659C67.3639 603.763 67.4393 603.886 67.4906 604.021C67.5418 604.157 67.5681 604.303 67.5681 604.449Z" fill="#4181E0"/>
<path d="M26.454 618.938C27.0198 618.938 27.4785 618.437 27.4785 617.82C27.4785 617.202 27.0198 616.701 26.454 616.701C25.8882 616.701 25.4294 617.202 25.4294 617.82C25.4294 618.437 25.8882 618.938 26.454 618.938Z" fill="#4181E0"/>
<path d="M39.8175 618.938C40.3834 618.938 40.842 618.437 40.842 617.82C40.842 617.202 40.3834 616.701 39.8175 616.701C39.2517 616.701 38.793 617.202 38.793 617.82C38.793 618.437 39.2517 618.938 39.8175 618.938Z" fill="#4181E0"/>
<path d="M53.1808 618.938C53.7466 618.938 54.2053 618.437 54.2053 617.82C54.2053 617.202 53.7466 616.701 53.1808 616.701C52.615 616.701 52.1562 617.202 52.1562 617.82C52.1562 618.437 52.615 618.938 53.1808 618.938Z" fill="#4181E0"/>
<path d="M66.5443 618.938C67.1099 618.938 67.5688 618.437 67.5688 617.82C67.5688 617.202 67.1099 616.701 66.5443 616.701C65.9785 616.701 65.5198 617.202 65.5198 617.82C65.5198 618.437 65.9785 618.938 66.5443 618.938Z" fill="#4181E0"/>
<path d="M26.454 633.396C27.0198 633.396 27.4785 632.896 27.4785 632.278C27.4785 631.66 27.0198 631.16 26.454 631.16C25.8882 631.16 25.4294 631.66 25.4294 632.278C25.4294 632.896 25.8882 633.396 26.454 633.396Z" fill="#4181E0"/>
<path d="M39.8175 633.396C40.3834 633.396 40.842 632.896 40.842 632.278C40.842 631.66 40.3834 631.16 39.8175 631.16C39.2517 631.16 38.793 631.66 38.793 632.278C38.793 632.896 39.2517 633.396 39.8175 633.396Z" fill="#4181E0"/>
<path d="M53.1808 633.396C53.7466 633.396 54.2053 632.896 54.2053 632.278C54.2053 631.66 53.7466 631.16 53.1808 631.16C52.615 631.16 52.1562 631.66 52.1562 632.278C52.1562 632.896 52.615 633.396 53.1808 633.396Z" fill="#4181E0"/>
<path d="M66.5443 633.396C67.1099 633.396 67.5688 632.896 67.5688 632.278C67.5688 631.66 67.1099 631.16 66.5443 631.16C65.9785 631.16 65.5198 631.66 65.5198 632.278C65.5198 632.896 65.9785 633.396 66.5443 633.396Z" fill="#4181E0"/>
<path d="M27.4787 646.736C27.4787 646.957 27.4186 647.174 27.3061 647.358C27.1935 647.542 27.0335 647.684 26.8463 647.769C26.6591 647.854 26.4531 647.876 26.2543 647.833C26.0556 647.79 25.8731 647.683 25.7298 647.527C25.5865 647.37 25.4889 647.171 25.4494 646.954C25.4098 646.738 25.4302 646.513 25.5076 646.308C25.5852 646.104 25.7165 645.93 25.885 645.806C26.0535 645.684 26.2516 645.618 26.4542 645.618C26.7259 645.618 26.9866 645.736 27.1787 645.945C27.3708 646.156 27.4787 646.44 27.4787 646.736Z" fill="#4181E0"/>
<path d="M40.842 646.736C40.842 646.957 40.7819 647.174 40.6694 647.358C40.5568 647.542 40.3968 647.684 40.2095 647.769C40.0224 647.854 39.8164 647.876 39.6176 647.833C39.4189 647.79 39.2363 647.683 39.093 647.527C38.9498 647.37 38.8522 647.171 38.8127 646.954C38.7731 646.738 38.7934 646.513 38.871 646.308C38.9485 646.104 39.0798 645.93 39.2483 645.806C39.4168 645.684 39.6148 645.618 39.8175 645.618C40.0892 645.618 40.3498 645.736 40.5419 645.945C40.7341 646.156 40.842 646.44 40.842 646.736Z" fill="#4181E0"/>
<path d="M54.2055 646.736C54.2055 646.957 54.1454 647.174 54.0328 647.358C53.9203 647.542 53.7603 647.684 53.573 647.769C53.3858 647.854 53.1799 647.876 52.9811 647.833C52.7824 647.79 52.5998 647.683 52.4565 647.527C52.3132 647.37 52.2157 647.171 52.1762 646.954C52.1367 646.738 52.1569 646.513 52.2344 646.308C52.312 646.104 52.4433 645.93 52.6118 645.806C52.7803 645.684 52.9784 645.618 53.181 645.618C53.4527 645.618 53.7133 645.736 53.9054 645.945C54.0976 646.156 54.2055 646.44 54.2055 646.736Z" fill="#4181E0"/>
<path d="M67.5681 646.736C67.5681 646.957 67.5083 647.174 67.3959 647.358C67.2828 647.542 67.1227 647.684 66.9356 647.769C66.7485 647.854 66.5429 647.876 66.3437 647.833C66.1452 647.79 65.9626 647.683 65.8193 647.527C65.676 647.37 65.5785 647.171 65.5389 646.954C65.4995 646.738 65.5197 646.513 65.5973 646.308C65.6748 646.104 65.8061 645.93 65.9746 645.806C66.1431 645.684 66.3408 645.618 66.5436 645.618C66.6781 645.618 66.8118 645.647 66.9356 645.703C67.0601 645.759 67.1732 645.842 67.2686 645.945C67.3632 646.049 67.4386 646.173 67.4906 646.308C67.5418 646.444 67.5681 646.589 67.5681 646.736Z" fill="#4181E0"/>
<path d="M27.4787 661.196C27.4786 661.417 27.4185 661.633 27.3059 661.817C27.1932 662.001 27.0332 662.144 26.846 662.229C26.6587 662.313 26.4527 662.335 26.254 662.292C26.0553 662.249 25.8728 662.142 25.7296 661.986C25.5863 661.83 25.4889 661.63 25.4494 661.414C25.4098 661.196 25.4302 660.972 25.5077 660.767C25.5853 660.563 25.7166 660.388 25.8851 660.266C26.0535 660.143 26.2516 660.077 26.4542 660.077C26.5888 660.077 26.722 660.106 26.8464 660.163C26.9707 660.218 27.0837 660.301 27.1788 660.405C27.274 660.509 27.3494 660.632 27.4009 660.768C27.4523 660.904 27.4788 661.049 27.4787 661.196Z" fill="#4181E0"/>
<path d="M40.842 661.196C40.8419 661.417 40.7818 661.633 40.6691 661.817C40.5564 662.001 40.3964 662.144 40.2093 662.229C40.022 662.313 39.816 662.335 39.6173 662.292C39.4186 662.249 39.2361 662.142 39.0929 661.986C38.9496 661.83 38.8521 661.63 38.8127 661.414C38.7731 661.196 38.7934 660.972 38.871 660.767C38.9485 660.563 39.0799 660.388 39.2484 660.266C39.4168 660.143 39.6149 660.077 39.8175 660.077C39.9521 660.077 40.0853 660.106 40.2097 660.163C40.334 660.218 40.447 660.301 40.5421 660.405C40.6373 660.509 40.7127 660.632 40.7642 660.768C40.8156 660.904 40.8421 661.049 40.842 661.196Z" fill="#4181E0"/>
<path d="M54.2053 661.196C54.2052 661.417 54.145 661.633 54.0324 661.817C53.9198 662.001 53.7597 662.144 53.5725 662.229C53.3853 662.313 53.1793 662.335 52.9806 662.292C52.7819 662.249 52.5994 662.142 52.4562 661.986C52.313 661.83 52.2154 661.63 52.1759 661.414C52.1364 661.196 52.1567 660.972 52.2343 660.767C52.3118 660.563 52.4432 660.388 52.6116 660.266C52.7801 660.143 52.9782 660.077 53.1808 660.077C53.4526 660.077 53.7131 660.195 53.9052 660.405C54.0974 660.615 54.2053 660.899 54.2053 661.196Z" fill="#4181E0"/>
<path d="M67.5681 661.196C67.5681 661.417 67.5083 661.633 67.3952 661.817C67.2828 662.001 67.1227 662.144 66.9356 662.229C66.7485 662.313 66.5422 662.335 66.3437 662.292C66.1449 662.249 65.9624 662.142 65.8192 661.986C65.676 661.83 65.5784 661.63 65.5389 661.414C65.4995 661.196 65.5197 660.972 65.5973 660.767C65.6749 660.563 65.8062 660.388 65.9746 660.266C66.1431 660.143 66.3415 660.077 66.5436 660.077C66.6781 660.077 66.8118 660.106 66.9363 660.163C67.0601 660.218 67.1732 660.301 67.2686 660.405C67.3639 660.509 67.4393 660.632 67.4906 660.768C67.5418 660.904 67.5681 661.049 67.5681 661.196Z" fill="#4181E0"/>
<path d="M1.32603 618.938C1.89186 618.938 2.35056 618.437 2.35056 617.82C2.35056 617.202 1.89186 616.701 1.32603 616.701C0.760205 616.701 0.301514 617.202 0.301514 617.82C0.301514 618.437 0.760205 618.938 1.32603 618.938Z" fill="#4181E0"/>
<path d="M14.6894 618.938C15.2552 618.938 15.7139 618.437 15.7139 617.82C15.7139 617.202 15.2552 616.701 14.6894 616.701C14.1235 616.701 13.6648 617.202 13.6648 617.82C13.6648 618.437 14.1235 618.938 14.6894 618.938Z" fill="#4181E0"/>
<path d="M1.32603 633.396C1.89186 633.396 2.35056 632.896 2.35056 632.278C2.35056 631.66 1.89186 631.16 1.32603 631.16C0.760205 631.16 0.301514 631.66 0.301514 632.278C0.301514 632.896 0.760205 633.396 1.32603 633.396Z" fill="#4181E0"/>
<path d="M14.6894 633.396C15.2552 633.396 15.7139 632.896 15.7139 632.278C15.7139 631.66 15.2552 631.16 14.6894 631.16C14.1235 631.16 13.6648 631.66 13.6648 632.278C13.6648 632.896 14.1235 633.396 14.6894 633.396Z" fill="#4181E0"/>
<path d="M2.35056 646.736C2.35056 646.957 2.29044 647.174 2.17789 647.358C2.06531 647.542 1.90531 647.684 1.7181 647.769C1.5309 647.854 1.32489 647.876 1.12615 647.833C0.927422 647.79 0.744876 647.683 0.601589 647.527C0.458308 647.37 0.360731 647.171 0.321203 646.954C0.281667 646.738 0.301958 646.513 0.3795 646.308C0.457042 646.104 0.588356 645.93 0.756836 645.806C0.925316 645.684 1.1234 645.618 1.32603 645.618C1.59775 645.618 1.85834 645.736 2.05047 645.945C2.24263 646.156 2.35056 646.44 2.35056 646.736Z" fill="#4181E0"/>
<path d="M15.7136 646.736C15.7136 646.957 15.6535 647.174 15.5409 647.358C15.4283 647.542 15.2683 647.684 15.0811 647.769C14.8939 647.854 14.6879 647.876 14.4892 647.833C14.2904 647.79 14.1079 647.683 13.9646 647.527C13.8213 647.37 13.7238 647.171 13.6842 646.954C13.6447 646.738 13.665 646.513 13.7425 646.308C13.8201 646.104 13.9514 645.93 14.1198 645.806C14.2884 645.684 14.4864 645.618 14.6891 645.618C14.8236 645.618 14.9568 645.647 15.0811 645.703C15.2054 645.759 15.3184 645.842 15.4135 645.945C15.5086 646.049 15.5841 646.173 15.6356 646.308C15.6871 646.444 15.7136 646.589 15.7136 646.736Z" fill="#4181E0"/>
<path d="M2.35056 661.196C2.35041 661.417 2.2903 661.633 2.17767 661.817C2.06501 662.001 1.90497 662.144 1.71776 662.229C1.53054 662.313 1.32456 662.335 1.12586 662.292C0.92715 662.249 0.744653 662.142 0.601415 661.986C0.458184 661.83 0.360651 661.63 0.321165 661.414C0.281672 661.196 0.301991 660.972 0.379547 660.767C0.457103 660.563 0.588417 660.388 0.756891 660.266C0.925357 660.143 1.12342 660.077 1.32603 660.077C1.59779 660.077 1.85838 660.195 2.0505 660.405C2.24263 660.615 2.35056 660.899 2.35056 661.196Z" fill="#4181E0"/>
<path d="M15.7136 661.196C15.7135 661.417 15.6533 661.633 15.5407 661.817C15.4281 662.001 15.268 662.144 15.0808 662.229C14.8935 662.313 14.6876 662.335 14.4889 662.292C14.2902 662.249 14.1077 662.142 13.9645 661.986C13.8212 661.83 13.7237 661.63 13.6842 661.414C13.6447 661.196 13.665 660.972 13.7425 660.767C13.8201 660.563 13.9514 660.388 14.1199 660.266C14.2884 660.143 14.4864 660.077 14.6891 660.077C14.8236 660.077 14.9569 660.106 15.0812 660.163C15.2056 660.218 15.3185 660.301 15.4137 660.405C15.5088 660.509 15.5843 660.632 15.6357 660.768C15.6872 660.904 15.7136 661.049 15.7136 661.196Z" fill="#4181E0"/>
<path d="M1.32603 675.684C1.89186 675.684 2.35056 675.183 2.35056 674.566C2.35056 673.948 1.89186 673.448 1.32603 673.448C0.760205 673.448 0.301514 673.948 0.301514 674.566C0.301514 675.183 0.760205 675.684 1.32603 675.684Z" fill="#4181E0"/>
<path d="M14.6894 675.684C15.2552 675.684 15.7139 675.183 15.7139 674.566C15.7139 673.948 15.2552 673.448 14.6894 673.448C14.1235 673.448 13.6648 673.948 13.6648 674.566C13.6648 675.183 14.1235 675.684 14.6894 675.684Z" fill="#4181E0"/>
<path d="M1.32603 690.142C1.89186 690.142 2.35056 689.642 2.35056 689.025C2.35056 688.407 1.89186 687.906 1.32603 687.906C0.760205 687.906 0.301514 688.407 0.301514 689.025C0.301514 689.642 0.760205 690.142 1.32603 690.142Z" fill="#4181E0"/>
<path d="M14.6894 690.142C15.2552 690.142 15.7139 689.642 15.7139 689.025C15.7139 688.407 15.2552 687.906 14.6894 687.906C14.1235 687.906 13.6648 688.407 13.6648 689.025C13.6648 689.642 14.1235 690.142 14.6894 690.142Z" fill="#4181E0"/>
<path d="M26.454 675.684C27.0198 675.684 27.4785 675.183 27.4785 674.566C27.4785 673.948 27.0198 673.448 26.454 673.448C25.8882 673.448 25.4294 673.948 25.4294 674.566C25.4294 675.183 25.8882 675.684 26.454 675.684Z" fill="#4181E0"/>
<path d="M39.8175 675.684C40.3834 675.684 40.842 675.183 40.842 674.566C40.842 673.948 40.3834 673.448 39.8175 673.448C39.2517 673.448 38.793 673.948 38.793 674.566C38.793 675.183 39.2517 675.684 39.8175 675.684Z" fill="#4181E0"/>
<path d="M53.1808 675.684C53.7466 675.684 54.2053 675.183 54.2053 674.566C54.2053 673.948 53.7466 673.448 53.1808 673.448C52.615 673.448 52.1562 673.948 52.1562 674.566C52.1562 675.183 52.615 675.684 53.1808 675.684Z" fill="#4181E0"/>
<path d="M66.5443 675.684C67.1099 675.684 67.5688 675.183 67.5688 674.566C67.5688 673.948 67.1099 673.448 66.5443 673.448C65.9785 673.448 65.5198 673.948 65.5198 674.566C65.5198 675.183 65.9785 675.684 66.5443 675.684Z" fill="#4181E0"/>
<path d="M26.454 690.142C27.0198 690.142 27.4785 689.642 27.4785 689.025C27.4785 688.407 27.0198 687.906 26.454 687.906C25.8882 687.906 25.4294 688.407 25.4294 689.025C25.4294 689.642 25.8882 690.142 26.454 690.142Z" fill="#4181E0"/>
<path d="M39.8175 690.142C40.3834 690.142 40.842 689.642 40.842 689.025C40.842 688.407 40.3834 687.906 39.8175 687.906C39.2517 687.906 38.793 688.407 38.793 689.025C38.793 689.642 39.2517 690.142 39.8175 690.142Z" fill="#4181E0"/>
<path d="M53.1808 690.142C53.7466 690.142 54.2053 689.642 54.2053 689.025C54.2053 688.407 53.7466 687.906 53.1808 687.906C52.615 687.906 52.1562 688.407 52.1562 689.025C52.1562 689.642 52.615 690.142 53.1808 690.142Z" fill="#4181E0"/>
<path d="M66.5443 690.142C67.1099 690.142 67.5688 689.642 67.5688 689.025C67.5688 688.407 67.1099 687.906 66.5443 687.906C65.9785 687.906 65.5198 688.407 65.5198 689.025C65.5198 689.642 65.9785 690.142 66.5443 690.142Z" fill="#4181E0"/>
<path d="M1308.96 209.319C1309.79 209.319 1310.46 208.586 1310.46 207.682C1310.46 206.778 1309.79 206.045 1308.96 206.045C1308.13 206.045 1307.46 206.778 1307.46 207.682C1307.46 208.586 1308.13 209.319 1308.96 209.319Z" fill="#4181E0" fill-opacity="0.34"/>
<path d="M1328.53 209.319C1329.36 209.319 1330.03 208.586 1330.03 207.682C1330.03 206.778 1329.36 206.045 1328.53 206.045C1327.7 206.045 1327.03 206.778 1327.03 207.682C1327.03 208.586 1327.7 209.319 1328.53 209.319Z" fill="#4181E0" fill-opacity="0.34"/>
<path d="M1348.1 209.319C1348.93 209.319 1349.6 208.586 1349.6 207.682C1349.6 206.778 1348.93 206.045 1348.1 206.045C1347.28 206.045 1346.6 206.778 1346.6 207.682C1346.6 208.586 1347.28 209.319 1348.1 209.319Z" fill="#4181E0" fill-opacity="0.34"/>
<path d="M1308.96 230.482C1309.79 230.482 1310.46 229.749 1310.46 228.845C1310.46 227.941 1309.79 227.208 1308.96 227.208C1308.13 227.208 1307.46 227.941 1307.46 228.845C1307.46 229.749 1308.13 230.482 1308.96 230.482Z" fill="#4181E0" fill-opacity="0.34"/>
<path d="M1328.53 230.482C1329.36 230.482 1330.03 229.749 1330.03 228.845C1330.03 227.941 1329.36 227.208 1328.53 227.208C1327.7 227.208 1327.03 227.941 1327.03 228.845C1327.03 229.749 1327.7 230.482 1328.53 230.482Z" fill="#4181E0" fill-opacity="0.34"/>
<path d="M1348.1 230.482C1348.93 230.482 1349.6 229.749 1349.6 228.845C1349.6 227.941 1348.93 227.208 1348.1 227.208C1347.28 227.208 1346.6 227.941 1346.6 228.845C1346.6 229.749 1347.28 230.482 1348.1 230.482Z" fill="#4181E0" fill-opacity="0.34"/>
<path d="M1310.46 250.009C1310.46 250.333 1310.37 250.65 1310.21 250.919C1310.05 251.188 1309.81 251.398 1309.53 251.521C1309.26 251.645 1308.96 251.678 1308.66 251.614C1308.37 251.552 1308.11 251.396 1307.9 251.167C1307.69 250.938 1307.55 250.647 1307.49 250.328C1307.43 250.011 1307.46 249.682 1307.58 249.383C1307.69 249.084 1307.88 248.828 1308.12 248.648C1308.37 248.469 1308.66 248.373 1308.96 248.373C1309.36 248.373 1309.74 248.545 1310.02 248.852C1310.3 249.159 1310.46 249.576 1310.46 250.009Z" fill="#4181E0" fill-opacity="0.34"/>
<path d="M1330.03 250.009C1330.03 250.333 1329.94 250.65 1329.78 250.919C1329.61 251.188 1329.38 251.398 1329.11 251.521C1328.83 251.645 1328.53 251.678 1328.24 251.614C1327.95 251.552 1327.68 251.396 1327.47 251.167C1327.26 250.938 1327.12 250.647 1327.06 250.328C1327 250.011 1327.03 249.682 1327.14 249.383C1327.26 249.084 1327.45 248.828 1327.7 248.648C1327.95 248.469 1328.24 248.373 1328.53 248.373C1328.93 248.373 1329.31 248.545 1329.59 248.852C1329.87 249.159 1330.03 249.576 1330.03 250.009Z" fill="#4181E0" fill-opacity="0.34"/>
<path d="M1349.6 250.009C1349.6 250.333 1349.52 250.65 1349.35 250.919C1349.18 251.188 1348.95 251.398 1348.68 251.521C1348.4 251.645 1348.1 251.678 1347.81 251.614C1347.52 251.552 1347.25 251.396 1347.04 251.167C1346.83 250.938 1346.69 250.647 1346.63 250.328C1346.57 250.011 1346.6 249.682 1346.71 249.383C1346.83 249.084 1347.02 248.828 1347.27 248.648C1347.52 248.469 1347.8 248.373 1348.1 248.373C1348.5 248.373 1348.88 248.545 1349.16 248.852C1349.45 249.159 1349.6 249.576 1349.6 250.009Z" fill="#4181E0" fill-opacity="0.34"/>
<path d="M1310.46 271.175C1310.46 271.499 1310.37 271.815 1310.21 272.084C1310.05 272.353 1309.81 272.563 1309.53 272.687C1309.26 272.81 1308.96 272.843 1308.66 272.779C1308.37 272.717 1308.11 272.561 1307.9 272.332C1307.69 272.103 1307.55 271.811 1307.49 271.493C1307.43 271.176 1307.46 270.847 1307.58 270.548C1307.69 270.248 1307.88 269.993 1308.12 269.813C1308.37 269.634 1308.66 269.538 1308.96 269.538C1309.16 269.538 1309.36 269.58 1309.53 269.663C1309.72 269.745 1309.88 269.865 1310.02 270.017C1310.16 270.169 1310.27 270.35 1310.34 270.549C1310.42 270.748 1310.46 270.96 1310.46 271.175Z" fill="#4181E0" fill-opacity="0.34"/>
<path d="M1330.03 271.175C1330.03 271.499 1329.94 271.815 1329.78 272.084C1329.61 272.353 1329.38 272.563 1329.11 272.687C1328.83 272.81 1328.53 272.843 1328.24 272.779C1327.95 272.717 1327.68 272.561 1327.47 272.332C1327.26 272.103 1327.12 271.811 1327.06 271.493C1327 271.176 1327.03 270.847 1327.14 270.548C1327.26 270.248 1327.45 269.993 1327.7 269.813C1327.95 269.634 1328.24 269.538 1328.53 269.538C1328.73 269.538 1328.92 269.58 1329.11 269.663C1329.29 269.745 1329.45 269.865 1329.59 270.017C1329.73 270.169 1329.85 270.35 1329.92 270.549C1329.99 270.748 1330.03 270.96 1330.03 271.175Z" fill="#4181E0" fill-opacity="0.34"/>
<path d="M1349.6 271.175C1349.6 271.499 1349.52 271.815 1349.35 272.084C1349.18 272.353 1348.95 272.563 1348.68 272.687C1348.4 272.81 1348.1 272.843 1347.81 272.779C1347.52 272.717 1347.25 272.561 1347.04 272.332C1346.83 272.103 1346.69 271.811 1346.63 271.493C1346.57 271.176 1346.6 270.847 1346.71 270.548C1346.83 270.248 1347.02 269.993 1347.27 269.813C1347.52 269.634 1347.8 269.538 1348.1 269.538C1348.5 269.538 1348.88 269.711 1349.16 270.017C1349.45 270.325 1349.6 270.741 1349.6 271.175Z" fill="#4181E0" fill-opacity="0.34"/>
<path d="M1233.02 209.319C1233.84 209.319 1234.52 208.586 1234.52 207.682C1234.52 206.778 1233.84 206.045 1233.02 206.045C1232.18 206.045 1231.51 206.778 1231.51 207.682C1231.51 208.586 1232.18 209.319 1233.02 209.319Z" fill="#4181E0" fill-opacity="0.34"/>
<path d="M1252.59 209.319C1253.41 209.319 1254.09 208.586 1254.09 207.682C1254.09 206.778 1253.41 206.045 1252.59 206.045C1251.76 206.045 1251.09 206.778 1251.09 207.682C1251.09 208.586 1251.76 209.319 1252.59 209.319Z" fill="#4181E0" fill-opacity="0.34"/>
<path d="M1272.16 209.319C1272.99 209.319 1273.66 208.586 1273.66 207.682C1273.66 206.778 1272.99 206.045 1272.16 206.045C1271.33 206.045 1270.66 206.778 1270.66 207.682C1270.66 208.586 1271.33 209.319 1272.16 209.319Z" fill="#4181E0" fill-opacity="0.34"/>
<path d="M1291.73 209.319C1292.56 209.319 1293.23 208.586 1293.23 207.682C1293.23 206.778 1292.56 206.045 1291.73 206.045C1290.9 206.045 1290.23 206.778 1290.23 207.682C1290.23 208.586 1290.9 209.319 1291.73 209.319Z" fill="#4181E0" fill-opacity="0.34"/>
<path d="M1233.02 230.482C1233.84 230.482 1234.52 229.749 1234.52 228.845C1234.52 227.941 1233.84 227.208 1233.02 227.208C1232.18 227.208 1231.51 227.941 1231.51 228.845C1231.51 229.749 1232.18 230.482 1233.02 230.482Z" fill="#4181E0" fill-opacity="0.34"/>
<path d="M1252.59 230.482C1253.41 230.482 1254.09 229.749 1254.09 228.845C1254.09 227.941 1253.41 227.208 1252.59 227.208C1251.76 227.208 1251.09 227.941 1251.09 228.845C1251.09 229.749 1251.76 230.482 1252.59 230.482Z" fill="#4181E0" fill-opacity="0.34"/>
<path d="M1272.16 230.482C1272.99 230.482 1273.66 229.749 1273.66 228.845C1273.66 227.941 1272.99 227.208 1272.16 227.208C1271.33 227.208 1270.66 227.941 1270.66 228.845C1270.66 229.749 1271.33 230.482 1272.16 230.482Z" fill="#4181E0" fill-opacity="0.34"/>
<path d="M1291.73 230.482C1292.56 230.482 1293.23 229.749 1293.23 228.845C1293.23 227.941 1292.56 227.208 1291.73 227.208C1290.9 227.208 1290.23 227.941 1290.23 228.845C1290.23 229.749 1290.9 230.482 1291.73 230.482Z" fill="#4181E0" fill-opacity="0.34"/>
<path d="M1234.52 250.009C1234.52 250.333 1234.42 250.65 1234.26 250.919C1234.1 251.188 1233.86 251.398 1233.59 251.521C1233.31 251.645 1233.02 251.678 1232.72 251.614C1232.43 251.552 1232.16 251.396 1231.96 251.167C1231.74 250.938 1231.6 250.647 1231.54 250.328C1231.49 250.011 1231.51 249.682 1231.63 249.383C1231.74 249.084 1231.93 248.828 1232.18 248.648C1232.43 248.469 1232.72 248.373 1233.02 248.373C1233.41 248.373 1233.79 248.545 1234.08 248.852C1234.36 249.159 1234.52 249.576 1234.52 250.009Z" fill="#4181E0" fill-opacity="0.34"/>
<path d="M1254.09 250.009C1254.09 250.333 1254 250.65 1253.83 250.919C1253.67 251.188 1253.43 251.398 1253.16 251.521C1252.89 251.645 1252.59 251.678 1252.3 251.614C1252 251.552 1251.73 251.396 1251.53 251.167C1251.31 250.938 1251.17 250.647 1251.12 250.328C1251.06 250.011 1251.09 249.682 1251.2 249.383C1251.31 249.084 1251.51 248.828 1251.76 248.648C1252 248.469 1252.29 248.373 1252.59 248.373C1252.99 248.373 1253.36 248.545 1253.65 248.852C1253.93 249.159 1254.09 249.576 1254.09 250.009Z" fill="#4181E0" fill-opacity="0.34"/>
<path d="M1273.66 250.009C1273.66 250.333 1273.57 250.65 1273.41 250.919C1273.24 251.188 1273.01 251.398 1272.73 251.521C1272.46 251.645 1272.15 251.678 1271.87 251.614C1271.58 251.552 1271.31 251.396 1271.1 251.167C1270.89 250.938 1270.74 250.647 1270.69 250.328C1270.63 250.011 1270.66 249.682 1270.77 249.383C1270.89 249.084 1271.08 248.828 1271.33 248.648C1271.57 248.469 1271.86 248.373 1272.16 248.373C1272.56 248.373 1272.94 248.545 1273.22 248.852C1273.5 249.159 1273.66 249.576 1273.66 250.009Z" fill="#4181E0" fill-opacity="0.34"/>
<path d="M1293.23 250.009C1293.23 250.333 1293.14 250.65 1292.98 250.919C1292.81 251.188 1292.58 251.398 1292.3 251.521C1292.03 251.645 1291.73 251.678 1291.43 251.614C1291.14 251.552 1290.88 251.396 1290.67 251.167C1290.46 250.938 1290.32 250.647 1290.26 250.328C1290.2 250.011 1290.23 249.682 1290.35 249.383C1290.46 249.084 1290.65 248.828 1290.89 248.648C1291.14 248.469 1291.43 248.373 1291.73 248.373C1291.92 248.373 1292.12 248.415 1292.3 248.498C1292.49 248.58 1292.65 248.7 1292.79 248.852C1292.93 249.004 1293.04 249.184 1293.11 249.383C1293.19 249.582 1293.23 249.794 1293.23 250.009Z" fill="#4181E0" fill-opacity="0.34"/>
<path d="M1234.52 271.175C1234.52 271.499 1234.42 271.815 1234.26 272.084C1234.1 272.353 1233.86 272.563 1233.59 272.687C1233.31 272.81 1233.02 272.843 1232.72 272.779C1232.43 272.717 1232.16 272.561 1231.96 272.332C1231.74 272.103 1231.6 271.811 1231.54 271.493C1231.49 271.176 1231.51 270.847 1231.63 270.548C1231.74 270.248 1231.93 269.993 1232.18 269.813C1232.43 269.634 1232.72 269.538 1233.02 269.538C1233.21 269.538 1233.41 269.58 1233.59 269.663C1233.77 269.745 1233.93 269.865 1234.08 270.017C1234.22 270.169 1234.32 270.35 1234.4 270.549C1234.47 270.748 1234.52 270.96 1234.52 271.175Z" fill="#4181E0" fill-opacity="0.34"/>
<path d="M1254.09 271.175C1254.09 271.499 1254 271.815 1253.83 272.084C1253.67 272.353 1253.43 272.563 1253.16 272.687C1252.89 272.81 1252.58 272.843 1252.3 272.779C1252 272.717 1251.73 272.561 1251.53 272.332C1251.31 272.103 1251.17 271.811 1251.12 271.493C1251.06 271.176 1251.09 270.847 1251.2 270.548C1251.31 270.248 1251.51 269.993 1251.76 269.813C1252 269.634 1252.29 269.538 1252.59 269.538C1252.79 269.538 1252.98 269.58 1253.16 269.663C1253.34 269.745 1253.51 269.865 1253.65 270.017C1253.79 270.169 1253.9 270.35 1253.98 270.549C1254.05 270.748 1254.09 270.96 1254.09 271.175Z" fill="#4181E0" fill-opacity="0.34"/>
<path d="M1273.66 271.175C1273.66 271.499 1273.57 271.815 1273.41 272.084C1273.24 272.353 1273.01 272.563 1272.73 272.687C1272.46 272.81 1272.15 272.843 1271.86 272.779C1271.58 272.717 1271.31 272.561 1271.1 272.332C1270.89 272.103 1270.74 271.811 1270.69 271.493C1270.63 271.176 1270.66 270.847 1270.77 270.548C1270.89 270.248 1271.08 269.993 1271.33 269.813C1271.57 269.634 1271.86 269.538 1272.16 269.538C1272.56 269.538 1272.94 269.711 1273.22 270.017C1273.5 270.325 1273.66 270.741 1273.66 271.175Z" fill="#4181E0" fill-opacity="0.34"/>
<path d="M1293.23 271.175C1293.23 271.499 1293.14 271.815 1292.98 272.084C1292.81 272.353 1292.58 272.563 1292.3 272.687C1292.03 272.81 1291.73 272.843 1291.43 272.779C1291.14 272.717 1290.88 272.561 1290.67 272.332C1290.46 272.103 1290.32 271.811 1290.26 271.493C1290.2 271.176 1290.23 270.847 1290.35 270.548C1290.46 270.248 1290.65 269.993 1290.89 269.813C1291.14 269.634 1291.43 269.538 1291.73 269.538C1291.92 269.538 1292.12 269.58 1292.3 269.663C1292.49 269.745 1292.65 269.865 1292.79 270.017C1292.93 270.169 1293.04 270.35 1293.11 270.549C1293.19 270.748 1293.23 270.96 1293.23 271.175Z" fill="#4181E0" fill-opacity="0.34"/>
<path d="M1233.02 292.384C1233.84 292.384 1234.52 291.651 1234.52 290.747C1234.52 289.843 1233.84 289.11 1233.02 289.11C1232.18 289.11 1231.51 289.843 1231.51 290.747C1231.51 291.651 1232.18 292.384 1233.02 292.384Z" fill="#4181E0" fill-opacity="0.34"/>
<path d="M1252.59 292.384C1253.41 292.384 1254.09 291.651 1254.09 290.747C1254.09 289.843 1253.41 289.11 1252.59 289.11C1251.76 289.11 1251.09 289.843 1251.09 290.747C1251.09 291.651 1251.76 292.384 1252.59 292.384Z" fill="#4181E0" fill-opacity="0.34"/>
<path d="M1272.16 292.384C1272.99 292.384 1273.66 291.651 1273.66 290.747C1273.66 289.843 1272.99 289.11 1272.16 289.11C1271.33 289.11 1270.66 289.843 1270.66 290.747C1270.66 291.651 1271.33 292.384 1272.16 292.384Z" fill="#4181E0" fill-opacity="0.34"/>
<path d="M1291.73 292.384C1292.56 292.384 1293.23 291.651 1293.23 290.747C1293.23 289.843 1292.56 289.11 1291.73 289.11C1290.9 289.11 1290.23 289.843 1290.23 290.747C1290.23 291.651 1290.9 292.384 1291.73 292.384Z" fill="#4181E0" fill-opacity="0.34"/>
<path d="M1233.02 313.547C1233.84 313.547 1234.52 312.814 1234.52 311.91C1234.52 311.006 1233.84 310.273 1233.02 310.273C1232.18 310.273 1231.51 311.006 1231.51 311.91C1231.51 312.814 1232.18 313.547 1233.02 313.547Z" fill="#4181E0" fill-opacity="0.34"/>
<path d="M1252.59 313.547C1253.41 313.547 1254.09 312.814 1254.09 311.91C1254.09 311.006 1253.41 310.273 1252.59 310.273C1251.76 310.273 1251.09 311.006 1251.09 311.91C1251.09 312.814 1251.76 313.547 1252.59 313.547Z" fill="#4181E0" fill-opacity="0.34"/>
<path d="M1272.16 313.547C1272.99 313.547 1273.66 312.814 1273.66 311.91C1273.66 311.006 1272.99 310.273 1272.16 310.273C1271.33 310.273 1270.66 311.006 1270.66 311.91C1270.66 312.814 1271.33 313.547 1272.16 313.547Z" fill="#4181E0" fill-opacity="0.34"/>
<path d="M1291.73 313.547C1292.56 313.547 1293.23 312.814 1293.23 311.91C1293.23 311.006 1292.56 310.273 1291.73 310.273C1290.9 310.273 1290.23 311.006 1290.23 311.91C1290.23 312.814 1290.9 313.547 1291.73 313.547Z" fill="#4181E0" fill-opacity="0.34"/>
<path d="M1234.52 333.074C1234.52 333.398 1234.42 333.715 1234.26 333.984C1234.1 334.253 1233.86 334.463 1233.59 334.586C1233.31 334.71 1233.02 334.743 1232.72 334.679C1232.43 334.617 1232.16 334.461 1231.96 334.232C1231.74 334.003 1231.6 333.712 1231.54 333.393C1231.49 333.076 1231.51 332.747 1231.63 332.448C1231.74 332.149 1231.93 331.893 1232.18 331.713C1232.43 331.534 1232.72 331.438 1233.02 331.438C1233.41 331.438 1233.79 331.61 1234.08 331.917C1234.36 332.224 1234.52 332.641 1234.52 333.074Z" fill="#4181E0" fill-opacity="0.34"/>
<path d="M1254.09 333.074C1254.09 333.398 1254 333.715 1253.83 333.984C1253.67 334.253 1253.43 334.463 1253.16 334.586C1252.89 334.71 1252.59 334.743 1252.3 334.679C1252 334.617 1251.73 334.461 1251.53 334.232C1251.31 334.003 1251.17 333.712 1251.12 333.393C1251.06 333.076 1251.09 332.747 1251.2 332.448C1251.31 332.149 1251.51 331.893 1251.76 331.713C1252 331.534 1252.29 331.438 1252.59 331.438C1252.99 331.438 1253.36 331.61 1253.65 331.917C1253.93 332.224 1254.09 332.641 1254.09 333.074Z" fill="#4181E0" fill-opacity="0.34"/>
<path d="M1273.66 333.074C1273.66 333.398 1273.57 333.715 1273.41 333.984C1273.24 334.253 1273.01 334.463 1272.73 334.586C1272.46 334.71 1272.15 334.743 1271.87 334.679C1271.58 334.617 1271.31 334.461 1271.1 334.232C1270.89 334.003 1270.74 333.712 1270.69 333.393C1270.63 333.076 1270.66 332.747 1270.77 332.448C1270.89 332.149 1271.08 331.893 1271.33 331.713C1271.57 331.534 1271.86 331.438 1272.16 331.438C1272.56 331.438 1272.94 331.61 1273.22 331.917C1273.5 332.224 1273.66 332.641 1273.66 333.074Z" fill="#4181E0" fill-opacity="0.34"/>
<path d="M1293.23 333.074C1293.23 333.398 1293.14 333.715 1292.98 333.984C1292.81 334.253 1292.58 334.463 1292.3 334.586C1292.03 334.71 1291.73 334.743 1291.43 334.679C1291.14 334.617 1290.88 334.461 1290.67 334.232C1290.46 334.003 1290.32 333.712 1290.26 333.393C1290.2 333.076 1290.23 332.747 1290.35 332.448C1290.46 332.149 1290.65 331.893 1290.89 331.713C1291.14 331.534 1291.43 331.438 1291.73 331.438C1291.92 331.438 1292.12 331.48 1292.3 331.562C1292.49 331.645 1292.65 331.765 1292.79 331.917C1292.93 332.069 1293.04 332.249 1293.11 332.448C1293.19 332.647 1293.23 332.859 1293.23 333.074Z" fill="#4181E0" fill-opacity="0.34"/>
<path d="M1234.52 354.24C1234.52 354.564 1234.42 354.88 1234.26 355.149C1234.1 355.418 1233.86 355.628 1233.59 355.752C1233.31 355.875 1233.02 355.908 1232.72 355.844C1232.43 355.781 1232.16 355.626 1231.96 355.397C1231.74 355.168 1231.6 354.876 1231.54 354.558C1231.49 354.241 1231.51 353.912 1231.63 353.613C1231.74 353.313 1231.93 353.058 1232.18 352.878C1232.43 352.699 1232.72 352.603 1233.02 352.603C1233.21 352.603 1233.41 352.645 1233.59 352.727C1233.77 352.81 1233.93 352.93 1234.08 353.082C1234.22 353.234 1234.32 353.415 1234.4 353.614C1234.47 353.812 1234.52 354.025 1234.52 354.24Z" fill="#4181E0" fill-opacity="0.34"/>
<path d="M1254.09 354.24C1254.09 354.564 1254 354.88 1253.83 355.149C1253.67 355.418 1253.43 355.628 1253.16 355.752C1252.89 355.875 1252.58 355.908 1252.3 355.844C1252 355.781 1251.73 355.626 1251.53 355.397C1251.31 355.168 1251.17 354.876 1251.12 354.558C1251.06 354.241 1251.09 353.912 1251.2 353.613C1251.31 353.313 1251.51 353.058 1251.76 352.878C1252 352.699 1252.29 352.603 1252.59 352.603C1252.79 352.603 1252.98 352.645 1253.16 352.727C1253.34 352.81 1253.51 352.93 1253.65 353.082C1253.79 353.234 1253.9 353.415 1253.98 353.614C1254.05 353.812 1254.09 354.025 1254.09 354.24Z" fill="#4181E0" fill-opacity="0.34"/>
<path d="M1273.66 354.24C1273.66 354.564 1273.57 354.88 1273.41 355.149C1273.24 355.418 1273.01 355.628 1272.73 355.752C1272.46 355.875 1272.15 355.908 1271.86 355.844C1271.58 355.781 1271.31 355.626 1271.1 355.397C1270.89 355.168 1270.74 354.876 1270.69 354.558C1270.63 354.241 1270.66 353.912 1270.77 353.613C1270.89 353.313 1271.08 353.058 1271.33 352.878C1271.57 352.699 1271.86 352.603 1272.16 352.603C1272.56 352.603 1272.94 352.776 1273.22 353.082C1273.5 353.39 1273.66 353.806 1273.66 354.24Z" fill="#4181E0" fill-opacity="0.34"/>
<path d="M1293.23 354.24C1293.23 354.564 1293.14 354.88 1292.98 355.149C1292.81 355.418 1292.58 355.628 1292.3 355.752C1292.03 355.875 1291.73 355.908 1291.43 355.844C1291.14 355.781 1290.88 355.626 1290.67 355.397C1290.46 355.168 1290.32 354.876 1290.26 354.558C1290.2 354.241 1290.23 353.912 1290.35 353.613C1290.46 353.313 1290.65 353.058 1290.89 352.878C1291.14 352.699 1291.43 352.603 1291.73 352.603C1291.92 352.603 1292.12 352.645 1292.3 352.727C1292.49 352.81 1292.65 352.93 1292.79 353.082C1292.93 353.234 1293.04 353.415 1293.11 353.614C1293.19 353.812 1293.23 354.025 1293.23 354.24Z" fill="#4181E0" fill-opacity="0.34"/>
<path d="M1308.96 292.384C1309.79 292.384 1310.46 291.651 1310.46 290.747C1310.46 289.843 1309.79 289.11 1308.96 289.11C1308.13 289.11 1307.46 289.843 1307.46 290.747C1307.46 291.651 1308.13 292.384 1308.96 292.384Z" fill="#4181E0" fill-opacity="0.34"/>
<path d="M1328.53 292.384C1329.36 292.384 1330.03 291.651 1330.03 290.747C1330.03 289.843 1329.36 289.11 1328.53 289.11C1327.7 289.11 1327.03 289.843 1327.03 290.747C1327.03 291.651 1327.7 292.384 1328.53 292.384Z" fill="#4181E0" fill-opacity="0.34"/>
<path d="M1348.1 292.384C1348.93 292.384 1349.6 291.651 1349.6 290.747C1349.6 289.843 1348.93 289.11 1348.1 289.11C1347.28 289.11 1346.6 289.843 1346.6 290.747C1346.6 291.651 1347.28 292.384 1348.1 292.384Z" fill="#4181E0" fill-opacity="0.34"/>
<path d="M1308.96 313.547C1309.79 313.547 1310.46 312.814 1310.46 311.91C1310.46 311.006 1309.79 310.273 1308.96 310.273C1308.13 310.273 1307.46 311.006 1307.46 311.91C1307.46 312.814 1308.13 313.547 1308.96 313.547Z" fill="#4181E0" fill-opacity="0.34"/>
<path d="M1328.53 313.547C1329.36 313.547 1330.03 312.814 1330.03 311.91C1330.03 311.006 1329.36 310.273 1328.53 310.273C1327.7 310.273 1327.03 311.006 1327.03 311.91C1327.03 312.814 1327.7 313.547 1328.53 313.547Z" fill="#4181E0" fill-opacity="0.34"/>
<path d="M1348.1 313.547C1348.93 313.547 1349.6 312.814 1349.6 311.91C1349.6 311.006 1348.93 310.273 1348.1 310.273C1347.28 310.273 1346.6 311.006 1346.6 311.91C1346.6 312.814 1347.28 313.547 1348.1 313.547Z" fill="#4181E0" fill-opacity="0.34"/>
<path d="M1310.46 333.074C1310.46 333.398 1310.37 333.715 1310.21 333.984C1310.05 334.253 1309.81 334.463 1309.53 334.586C1309.26 334.71 1308.96 334.743 1308.66 334.679C1308.37 334.617 1308.11 334.461 1307.9 334.232C1307.69 334.003 1307.55 333.712 1307.49 333.393C1307.43 333.076 1307.46 332.747 1307.58 332.448C1307.69 332.149 1307.88 331.893 1308.12 331.713C1308.37 331.534 1308.66 331.438 1308.96 331.438C1309.36 331.438 1309.74 331.61 1310.02 331.917C1310.3 332.224 1310.46 332.641 1310.46 333.074Z" fill="#4181E0" fill-opacity="0.34"/>
<path d="M1330.03 333.074C1330.03 333.398 1329.94 333.715 1329.78 333.984C1329.61 334.253 1329.38 334.463 1329.11 334.586C1328.83 334.71 1328.53 334.743 1328.24 334.679C1327.95 334.617 1327.68 334.461 1327.47 334.232C1327.26 334.003 1327.12 333.712 1327.06 333.393C1327 333.076 1327.03 332.747 1327.14 332.448C1327.26 332.149 1327.45 331.893 1327.7 331.713C1327.95 331.534 1328.24 331.438 1328.53 331.438C1328.93 331.438 1329.31 331.61 1329.59 331.917C1329.87 332.224 1330.03 332.641 1330.03 333.074Z" fill="#4181E0" fill-opacity="0.34"/>
<path d="M1349.6 333.074C1349.6 333.398 1349.52 333.715 1349.35 333.984C1349.18 334.253 1348.95 334.463 1348.68 334.586C1348.4 334.71 1348.1 334.743 1347.81 334.679C1347.52 334.617 1347.25 334.461 1347.04 334.232C1346.83 334.003 1346.69 333.712 1346.63 333.393C1346.57 333.076 1346.6 332.747 1346.71 332.448C1346.83 332.149 1347.02 331.893 1347.27 331.713C1347.52 331.534 1347.8 331.438 1348.1 331.438C1348.5 331.438 1348.88 331.61 1349.16 331.917C1349.45 332.224 1349.6 332.641 1349.6 333.074Z" fill="#4181E0" fill-opacity="0.34"/>
<path d="M1310.46 354.24C1310.46 354.564 1310.37 354.88 1310.21 355.149C1310.05 355.418 1309.81 355.628 1309.53 355.752C1309.26 355.875 1308.96 355.908 1308.66 355.844C1308.37 355.781 1308.11 355.626 1307.9 355.397C1307.69 355.168 1307.55 354.876 1307.49 354.558C1307.43 354.241 1307.46 353.912 1307.58 353.613C1307.69 353.313 1307.88 353.058 1308.12 352.878C1308.37 352.699 1308.66 352.603 1308.96 352.603C1309.16 352.603 1309.36 352.645 1309.53 352.727C1309.72 352.81 1309.88 352.93 1310.02 353.082C1310.16 353.234 1310.27 353.415 1310.34 353.614C1310.42 353.812 1310.46 354.025 1310.46 354.24Z" fill="#4181E0" fill-opacity="0.34"/>
<path d="M1330.03 354.24C1330.03 354.564 1329.94 354.88 1329.78 355.149C1329.61 355.418 1329.38 355.628 1329.11 355.752C1328.83 355.875 1328.53 355.908 1328.24 355.844C1327.95 355.781 1327.68 355.626 1327.47 355.397C1327.26 355.168 1327.12 354.876 1327.06 354.558C1327 354.241 1327.03 353.912 1327.14 353.613C1327.26 353.313 1327.45 353.058 1327.7 352.878C1327.95 352.699 1328.24 352.603 1328.53 352.603C1328.73 352.603 1328.92 352.645 1329.11 352.727C1329.29 352.81 1329.45 352.93 1329.59 353.082C1329.73 353.234 1329.85 353.415 1329.92 353.614C1329.99 353.812 1330.03 354.025 1330.03 354.24Z" fill="#4181E0" fill-opacity="0.34"/>
<path d="M1349.6 354.24C1349.6 354.564 1349.52 354.88 1349.35 355.149C1349.18 355.418 1348.95 355.628 1348.68 355.752C1348.4 355.875 1348.1 355.908 1347.81 355.844C1347.52 355.781 1347.25 355.626 1347.04 355.397C1346.83 355.168 1346.69 354.876 1346.63 354.558C1346.57 354.241 1346.6 353.912 1346.71 353.613C1346.83 353.313 1347.02 353.058 1347.27 352.878C1347.52 352.699 1347.8 352.603 1348.1 352.603C1348.5 352.603 1348.88 352.776 1349.16 353.082C1349.45 353.39 1349.6 353.806 1349.6 354.24Z" fill="#4181E0" fill-opacity="0.34"/>
<path d="M1233.02 375.448C1233.84 375.448 1234.52 374.716 1234.52 373.812C1234.52 372.907 1233.84 372.175 1233.02 372.175C1232.18 372.175 1231.51 372.907 1231.51 373.812C1231.51 374.716 1232.18 375.448 1233.02 375.448Z" fill="#4181E0" fill-opacity="0.34"/>
<path d="M1252.59 375.448C1253.41 375.448 1254.09 374.716 1254.09 373.812C1254.09 372.907 1253.41 372.175 1252.59 372.175C1251.76 372.175 1251.09 372.907 1251.09 373.812C1251.09 374.716 1251.76 375.448 1252.59 375.448Z" fill="#4181E0" fill-opacity="0.34"/>
<path d="M1272.16 375.448C1272.99 375.448 1273.66 374.716 1273.66 373.812C1273.66 372.907 1272.99 372.175 1272.16 372.175C1271.33 372.175 1270.66 372.907 1270.66 373.812C1270.66 374.716 1271.33 375.448 1272.16 375.448Z" fill="#4181E0" fill-opacity="0.34"/>
<path d="M1291.73 375.448C1292.56 375.448 1293.23 374.716 1293.23 373.812C1293.23 372.907 1292.56 372.175 1291.73 372.175C1290.9 372.175 1290.23 372.907 1290.23 373.812C1290.23 374.716 1290.9 375.448 1291.73 375.448Z" fill="#4181E0" fill-opacity="0.34"/>
<path d="M1233.02 396.613C1233.84 396.613 1234.52 395.88 1234.52 394.976C1234.52 394.072 1233.84 393.339 1233.02 393.339C1232.18 393.339 1231.51 394.072 1231.51 394.976C1231.51 395.88 1232.18 396.613 1233.02 396.613Z" fill="#4181E0" fill-opacity="0.34"/>
<path d="M1252.59 396.613C1253.41 396.613 1254.09 395.88 1254.09 394.976C1254.09 394.072 1253.41 393.339 1252.59 393.339C1251.76 393.339 1251.09 394.072 1251.09 394.976C1251.09 395.88 1251.76 396.613 1252.59 396.613Z" fill="#4181E0" fill-opacity="0.34"/>
<path d="M1272.16 396.613C1272.99 396.613 1273.66 395.88 1273.66 394.976C1273.66 394.072 1272.99 393.339 1272.16 393.339C1271.33 393.339 1270.66 394.072 1270.66 394.976C1270.66 395.88 1271.33 396.613 1272.16 396.613Z" fill="#4181E0" fill-opacity="0.34"/>
<path d="M1291.73 396.613C1292.56 396.613 1293.23 395.88 1293.23 394.976C1293.23 394.072 1292.56 393.339 1291.73 393.339C1290.9 393.339 1290.23 394.072 1290.23 394.976C1290.23 395.88 1290.9 396.613 1291.73 396.613Z" fill="#4181E0" fill-opacity="0.34"/>
<path d="M1234.52 416.139C1234.52 416.463 1234.42 416.78 1234.26 417.049C1234.1 417.318 1233.86 417.528 1233.59 417.651C1233.31 417.775 1233.02 417.808 1232.72 417.744C1232.43 417.681 1232.16 417.525 1231.96 417.296C1231.74 417.067 1231.6 416.776 1231.54 416.458C1231.49 416.141 1231.51 415.812 1231.63 415.513C1231.74 415.214 1231.93 414.958 1232.18 414.778C1232.43 414.599 1232.72 414.502 1233.02 414.502C1233.41 414.502 1233.79 414.675 1234.08 414.982C1234.36 415.289 1234.52 415.705 1234.52 416.139Z" fill="#4181E0" fill-opacity="0.34"/>
<path d="M1254.09 416.139C1254.09 416.463 1254 416.78 1253.83 417.049C1253.67 417.318 1253.43 417.528 1253.16 417.651C1252.89 417.775 1252.59 417.808 1252.3 417.744C1252 417.681 1251.73 417.525 1251.53 417.296C1251.31 417.067 1251.17 416.776 1251.12 416.458C1251.06 416.141 1251.09 415.812 1251.2 415.513C1251.31 415.214 1251.51 414.958 1251.76 414.778C1252 414.599 1252.29 414.502 1252.59 414.502C1252.99 414.502 1253.36 414.675 1253.65 414.982C1253.93 415.289 1254.09 415.705 1254.09 416.139Z" fill="#4181E0" fill-opacity="0.34"/>
<path d="M1273.66 416.139C1273.66 416.463 1273.57 416.78 1273.41 417.049C1273.24 417.318 1273.01 417.528 1272.73 417.651C1272.46 417.775 1272.15 417.808 1271.87 417.744C1271.58 417.681 1271.31 417.525 1271.1 417.296C1270.89 417.067 1270.74 416.776 1270.69 416.458C1270.63 416.141 1270.66 415.812 1270.77 415.513C1270.89 415.214 1271.08 414.958 1271.33 414.778C1271.57 414.599 1271.86 414.502 1272.16 414.502C1272.56 414.502 1272.94 414.675 1273.22 414.982C1273.5 415.289 1273.66 415.705 1273.66 416.139Z" fill="#4181E0" fill-opacity="0.34"/>
<path d="M1293.23 416.139C1293.23 416.463 1293.14 416.78 1292.98 417.049C1292.81 417.318 1292.58 417.528 1292.3 417.651C1292.03 417.775 1291.73 417.808 1291.43 417.744C1291.14 417.681 1290.88 417.525 1290.67 417.296C1290.46 417.067 1290.32 416.776 1290.26 416.458C1290.2 416.141 1290.23 415.812 1290.35 415.513C1290.46 415.214 1290.65 414.958 1290.89 414.778C1291.14 414.599 1291.43 414.502 1291.73 414.502C1291.92 414.502 1292.12 414.545 1292.3 414.627C1292.49 414.71 1292.65 414.83 1292.79 414.982C1292.93 415.134 1293.04 415.314 1293.11 415.513C1293.19 415.712 1293.23 415.924 1293.23 416.139Z" fill="#4181E0" fill-opacity="0.34"/>
<path d="M1234.52 437.305C1234.52 437.629 1234.42 437.945 1234.26 438.214C1234.1 438.483 1233.86 438.693 1233.59 438.817C1233.31 438.94 1233.02 438.973 1232.72 438.909C1232.43 438.846 1232.16 438.69 1231.96 438.462C1231.74 438.233 1231.6 437.941 1231.54 437.623C1231.49 437.306 1231.51 436.977 1231.63 436.678C1231.74 436.378 1231.93 436.123 1232.18 435.943C1232.43 435.764 1232.72 435.667 1233.02 435.667C1233.21 435.667 1233.41 435.71 1233.59 435.792C1233.77 435.875 1233.93 435.995 1234.08 436.147C1234.22 436.299 1234.32 436.48 1234.4 436.679C1234.47 436.877 1234.52 437.09 1234.52 437.305Z" fill="#4181E0" fill-opacity="0.34"/>
<path d="M1254.09 437.305C1254.09 437.629 1254 437.945 1253.83 438.214C1253.67 438.483 1253.43 438.693 1253.16 438.817C1252.89 438.94 1252.58 438.973 1252.3 438.909C1252 438.846 1251.73 438.69 1251.53 438.462C1251.31 438.233 1251.17 437.941 1251.12 437.623C1251.06 437.306 1251.09 436.977 1251.2 436.678C1251.31 436.378 1251.51 436.123 1251.76 435.943C1252 435.764 1252.29 435.667 1252.59 435.667C1252.79 435.667 1252.98 435.71 1253.16 435.792C1253.34 435.875 1253.51 435.995 1253.65 436.147C1253.79 436.299 1253.9 436.48 1253.98 436.679C1254.05 436.877 1254.09 437.09 1254.09 437.305Z" fill="#4181E0" fill-opacity="0.34"/>
<path d="M1273.66 437.305C1273.66 437.629 1273.57 437.945 1273.41 438.214C1273.24 438.483 1273.01 438.693 1272.73 438.817C1272.46 438.94 1272.15 438.973 1271.86 438.909C1271.58 438.846 1271.31 438.69 1271.1 438.462C1270.89 438.233 1270.74 437.941 1270.69 437.623C1270.63 437.306 1270.66 436.977 1270.77 436.678C1270.89 436.378 1271.08 436.123 1271.33 435.943C1271.57 435.764 1271.86 435.667 1272.16 435.667C1272.56 435.667 1272.94 435.841 1273.22 436.147C1273.5 436.454 1273.66 436.871 1273.66 437.305Z" fill="#4181E0" fill-opacity="0.34"/>
<path d="M1293.23 437.305C1293.23 437.629 1293.14 437.945 1292.98 438.214C1292.81 438.483 1292.58 438.693 1292.3 438.817C1292.03 438.94 1291.73 438.973 1291.43 438.909C1291.14 438.846 1290.88 438.69 1290.67 438.462C1290.46 438.233 1290.32 437.941 1290.26 437.623C1290.2 437.306 1290.23 436.977 1290.35 436.678C1290.46 436.378 1290.65 436.123 1290.89 435.943C1291.14 435.764 1291.43 435.667 1291.73 435.667C1291.92 435.667 1292.12 435.71 1292.3 435.792C1292.49 435.875 1292.65 435.995 1292.79 436.147C1292.93 436.299 1293.04 436.48 1293.11 436.679C1293.19 436.877 1293.23 437.09 1293.23 437.305Z" fill="#4181E0" fill-opacity="0.34"/>
<path d="M1308.96 375.448C1309.79 375.448 1310.46 374.716 1310.46 373.812C1310.46 372.907 1309.79 372.175 1308.96 372.175C1308.13 372.175 1307.46 372.907 1307.46 373.812C1307.46 374.716 1308.13 375.448 1308.96 375.448Z" fill="#4181E0" fill-opacity="0.34"/>
<path d="M1328.53 375.448C1329.36 375.448 1330.03 374.716 1330.03 373.812C1330.03 372.907 1329.36 372.175 1328.53 372.175C1327.7 372.175 1327.03 372.907 1327.03 373.812C1327.03 374.716 1327.7 375.448 1328.53 375.448Z" fill="#4181E0" fill-opacity="0.34"/>
<path d="M1348.1 375.448C1348.93 375.448 1349.6 374.716 1349.6 373.812C1349.6 372.907 1348.93 372.175 1348.1 372.175C1347.28 372.175 1346.6 372.907 1346.6 373.812C1346.6 374.716 1347.28 375.448 1348.1 375.448Z" fill="#4181E0" fill-opacity="0.34"/>
<path d="M1308.96 396.613C1309.79 396.613 1310.46 395.88 1310.46 394.976C1310.46 394.072 1309.79 393.339 1308.96 393.339C1308.13 393.339 1307.46 394.072 1307.46 394.976C1307.46 395.88 1308.13 396.613 1308.96 396.613Z" fill="#4181E0" fill-opacity="0.34"/>
<path d="M1328.53 396.613C1329.36 396.613 1330.03 395.88 1330.03 394.976C1330.03 394.072 1329.36 393.339 1328.53 393.339C1327.7 393.339 1327.03 394.072 1327.03 394.976C1327.03 395.88 1327.7 396.613 1328.53 396.613Z" fill="#4181E0" fill-opacity="0.34"/>
<path d="M1348.1 396.613C1348.93 396.613 1349.6 395.88 1349.6 394.976C1349.6 394.072 1348.93 393.339 1348.1 393.339C1347.28 393.339 1346.6 394.072 1346.6 394.976C1346.6 395.88 1347.28 396.613 1348.1 396.613Z" fill="#4181E0" fill-opacity="0.34"/>
<path d="M1310.46 416.139C1310.46 416.463 1310.37 416.78 1310.21 417.049C1310.05 417.318 1309.81 417.528 1309.53 417.651C1309.26 417.775 1308.96 417.808 1308.66 417.744C1308.37 417.681 1308.11 417.525 1307.9 417.296C1307.69 417.067 1307.55 416.776 1307.49 416.458C1307.43 416.141 1307.46 415.812 1307.58 415.513C1307.69 415.214 1307.88 414.958 1308.12 414.778C1308.37 414.599 1308.66 414.502 1308.96 414.502C1309.36 414.502 1309.74 414.675 1310.02 414.982C1310.3 415.289 1310.46 415.705 1310.46 416.139Z" fill="#4181E0" fill-opacity="0.34"/>
<path d="M1330.03 416.139C1330.03 416.463 1329.94 416.78 1329.78 417.049C1329.61 417.318 1329.38 417.528 1329.11 417.651C1328.83 417.775 1328.53 417.808 1328.24 417.744C1327.95 417.681 1327.68 417.525 1327.47 417.296C1327.26 417.067 1327.12 416.776 1327.06 416.458C1327 416.141 1327.03 415.812 1327.14 415.513C1327.26 415.214 1327.45 414.958 1327.7 414.778C1327.95 414.599 1328.24 414.502 1328.53 414.502C1328.93 414.502 1329.31 414.675 1329.59 414.982C1329.87 415.289 1330.03 415.705 1330.03 416.139Z" fill="#4181E0" fill-opacity="0.34"/>
<path d="M1349.6 416.139C1349.6 416.463 1349.52 416.78 1349.35 417.049C1349.18 417.318 1348.95 417.528 1348.68 417.651C1348.4 417.775 1348.1 417.808 1347.81 417.744C1347.52 417.681 1347.25 417.525 1347.04 417.296C1346.83 417.067 1346.69 416.776 1346.63 416.458C1346.57 416.141 1346.6 415.812 1346.71 415.513C1346.83 415.214 1347.02 414.958 1347.27 414.778C1347.52 414.599 1347.8 414.502 1348.1 414.502C1348.5 414.502 1348.88 414.675 1349.16 414.982C1349.45 415.289 1349.6 415.705 1349.6 416.139Z" fill="#4181E0" fill-opacity="0.34"/>
<path d="M1310.46 437.305C1310.46 437.629 1310.37 437.945 1310.21 438.214C1310.05 438.483 1309.81 438.693 1309.53 438.817C1309.26 438.94 1308.96 438.973 1308.66 438.909C1308.37 438.846 1308.11 438.69 1307.9 438.462C1307.69 438.233 1307.55 437.941 1307.49 437.623C1307.43 437.306 1307.46 436.977 1307.58 436.678C1307.69 436.378 1307.88 436.123 1308.12 435.943C1308.37 435.764 1308.66 435.667 1308.96 435.667C1309.16 435.667 1309.36 435.71 1309.53 435.792C1309.72 435.875 1309.88 435.995 1310.02 436.147C1310.16 436.299 1310.27 436.48 1310.34 436.679C1310.42 436.877 1310.46 437.09 1310.46 437.305Z" fill="#4181E0" fill-opacity="0.34"/>
<path d="M1330.03 437.305C1330.03 437.629 1329.94 437.945 1329.78 438.214C1329.61 438.483 1329.38 438.693 1329.11 438.817C1328.83 438.94 1328.53 438.973 1328.24 438.909C1327.95 438.846 1327.68 438.69 1327.47 438.462C1327.26 438.233 1327.12 437.941 1327.06 437.623C1327 437.306 1327.03 436.977 1327.14 436.678C1327.26 436.378 1327.45 436.123 1327.7 435.943C1327.95 435.764 1328.24 435.667 1328.53 435.667C1328.73 435.667 1328.92 435.71 1329.11 435.792C1329.29 435.875 1329.45 435.995 1329.59 436.147C1329.73 436.299 1329.85 436.48 1329.92 436.679C1329.99 436.877 1330.03 437.09 1330.03 437.305Z" fill="#4181E0" fill-opacity="0.34"/>
<path d="M1349.6 437.305C1349.6 437.629 1349.52 437.945 1349.35 438.214C1349.18 438.483 1348.95 438.693 1348.68 438.817C1348.4 438.94 1348.1 438.973 1347.81 438.909C1347.52 438.846 1347.25 438.69 1347.04 438.462C1346.83 438.233 1346.69 437.941 1346.63 437.623C1346.57 437.306 1346.6 436.977 1346.71 436.678C1346.83 436.378 1347.02 436.123 1347.27 435.943C1347.52 435.764 1347.8 435.667 1348.1 435.667C1348.5 435.667 1348.88 435.841 1349.16 436.147C1349.45 436.454 1349.6 436.871 1349.6 437.305Z" fill="#4181E0" fill-opacity="0.34"/>
</svg>
