<svg width="1350" height="652" viewBox="0 0 1350 652" fill="none" xmlns="http://www.w3.org/2000/svg">
<path d="M1256.42 605.271H1266.25" stroke="#A2BADD" stroke-width="2" stroke-linecap="round" stroke-linejoin="round"/>
<path d="M1261.33 600.206V610.338" stroke="#A2BADD" stroke-width="2" stroke-linecap="round" stroke-linejoin="round"/>
<path d="M1256.42 583.365H1266.25" stroke="#A2BADD" stroke-width="2" stroke-linecap="round" stroke-linejoin="round"/>
<path d="M1261.33 578.298V588.43" stroke="#A2BADD" stroke-width="2" stroke-linecap="round" stroke-linejoin="round"/>
<path d="M1256.42 561.458H1266.25" stroke="#A2BADD" stroke-width="2" stroke-linecap="round" stroke-linejoin="round"/>
<path d="M1261.33 556.393V566.525" stroke="#A2BADD" stroke-width="2" stroke-linecap="round" stroke-linejoin="round"/>
<path d="M771.45 96.1294V106.262" stroke="#A2BADD" stroke-width="2" stroke-linecap="round" stroke-linejoin="round"/>
<path d="M776.373 101.195H766.534" stroke="#A2BADD" stroke-width="2" stroke-linecap="round" stroke-linejoin="round"/>
<path d="M453.768 285.12V295.253" stroke="#EAF1FD" stroke-width="2" stroke-linecap="round" stroke-linejoin="round"/>
<path d="M458.688 290.186H448.849" stroke="#EAF1FD" stroke-width="2" stroke-linecap="round" stroke-linejoin="round"/>
<path d="M381.736 482.567V492.7" stroke="#F87F28" stroke-width="2" stroke-linecap="round" stroke-linejoin="round"/>
<path d="M386.656 487.634H376.817" stroke="#F87F28" stroke-width="2" stroke-linecap="round" stroke-linejoin="round"/>
<path d="M680.39 365.315V375.448" stroke="#F87F28" stroke-width="2" stroke-linecap="round" stroke-linejoin="round"/>
<path d="M685.31 370.38H675.471" stroke="#F87F28" stroke-width="2" stroke-linecap="round" stroke-linejoin="round"/>
<path d="M878.411 243.262V253.395" stroke="#F87F28" stroke-width="2" stroke-linecap="round" stroke-linejoin="round"/>
<path d="M883.334 248.327H873.495" stroke="#F87F28" stroke-width="2" stroke-linecap="round" stroke-linejoin="round"/>
<path d="M1141.71 38.6597V48.7925" stroke="#F87F28" stroke-width="2" stroke-linecap="round" stroke-linejoin="round"/>
<path d="M1146.62 43.7251H1136.78" stroke="#F87F28" stroke-width="2" stroke-linecap="round" stroke-linejoin="round"/>
<path d="M295.32 216.389V226.522" stroke="#F87F28" stroke-width="2" stroke-linecap="round" stroke-linejoin="round"/>
<path d="M300.241 221.454H290.401" stroke="#F87F28" stroke-width="2" stroke-linecap="round" stroke-linejoin="round"/>
<path d="M448.849 63.9072V74.0394" stroke="#BDD7FE" stroke-width="2" stroke-linecap="round" stroke-linejoin="round"/>
<path d="M453.768 68.9727H443.928" stroke="#BDD7FE" stroke-width="2" stroke-linecap="round" stroke-linejoin="round"/>
<path d="M730.584 638.422V648.555" stroke="#FAFAFA" stroke-opacity="0.28" stroke-width="2" stroke-linecap="round" stroke-linejoin="round"/>
<path d="M735.507 643.488H725.668" stroke="#FAFAFA" stroke-opacity="0.28" stroke-width="2" stroke-linecap="round" stroke-linejoin="round"/>
<path d="M751.864 638.422V648.555" stroke="#FAFAFA" stroke-opacity="0.28" stroke-width="2" stroke-linecap="round" stroke-linejoin="round"/>
<path d="M756.78 643.488H746.94" stroke="#FAFAFA" stroke-opacity="0.28" stroke-width="2" stroke-linecap="round" stroke-linejoin="round"/>
<path d="M773.136 638.422V648.555" stroke="#FAFAFA" stroke-opacity="0.28" stroke-width="2" stroke-linecap="round" stroke-linejoin="round"/>
<path d="M778.052 643.488H768.213" stroke="#FAFAFA" stroke-opacity="0.28" stroke-width="2" stroke-linecap="round" stroke-linejoin="round"/>
<path d="M156.65 183.726V193.858" stroke="#F87F28" stroke-width="2" stroke-linecap="round" stroke-linejoin="round"/>
<path d="M161.57 188.791H151.731" stroke="#F87F28" stroke-width="2" stroke-linecap="round" stroke-linejoin="round"/>
<path d="M63.8904 139.59H54.051" stroke="#EAF1FD" stroke-width="2" stroke-linecap="round" stroke-linejoin="round"/>
<path d="M58.9717 144.657V134.524" stroke="#EAF1FD" stroke-width="2" stroke-linecap="round" stroke-linejoin="round"/>
<path d="M63.8904 161.498H54.051" stroke="#EAF1FD" stroke-width="2" stroke-linecap="round" stroke-linejoin="round"/>
<path d="M58.9717 166.563V156.43" stroke="#EAF1FD" stroke-width="2" stroke-linecap="round" stroke-linejoin="round"/>
<path d="M63.8904 183.403H54.051" stroke="#EAF1FD" stroke-width="2" stroke-linecap="round" stroke-linejoin="round"/>
<path d="M58.9717 188.47V178.338" stroke="#EAF1FD" stroke-width="2" stroke-linecap="round" stroke-linejoin="round"/>
<path d="M285.766 364.022C285.766 364.362 285.668 364.694 285.485 364.976C285.301 365.259 285.041 365.479 284.736 365.609C284.431 365.739 284.095 365.773 283.772 365.706C283.448 365.641 283.15 365.477 282.917 365.236C282.684 364.996 282.525 364.69 282.461 364.357C282.397 364.023 282.43 363.678 282.556 363.364C282.683 363.05 282.896 362.781 283.171 362.593C283.446 362.404 283.768 362.304 284.098 362.304C284.317 362.304 284.534 362.348 284.736 362.435C284.939 362.521 285.123 362.647 285.278 362.807C285.433 362.967 285.555 363.156 285.639 363.364C285.723 363.573 285.766 363.796 285.766 364.022Z" fill="#A2BADD"/>
<path d="M297.092 364.022C297.092 364.362 296.994 364.694 296.811 364.976C296.628 365.259 296.367 365.479 296.062 365.609C295.758 365.739 295.422 365.773 295.098 365.706C294.774 365.641 294.477 365.477 294.244 365.236C294.01 364.996 293.852 364.69 293.788 364.357C293.723 364.023 293.756 363.678 293.883 363.364C294.009 363.05 294.223 362.781 294.498 362.593C294.772 362.404 295.095 362.304 295.425 362.304C295.644 362.304 295.861 362.348 296.063 362.435C296.266 362.521 296.449 362.647 296.604 362.807C296.759 362.967 296.882 363.156 296.966 363.364C297.05 363.573 297.092 363.796 297.092 364.022Z" fill="#A2BADD"/>
<path d="M308.423 364.022C308.423 364.362 308.325 364.694 308.142 364.976C307.959 365.259 307.698 365.479 307.393 365.609C307.088 365.739 306.753 365.773 306.429 365.707C306.105 365.641 305.809 365.477 305.575 365.237C305.342 364.996 305.182 364.691 305.118 364.357C305.054 364.023 305.087 363.678 305.213 363.364C305.34 363.05 305.553 362.782 305.828 362.593C306.102 362.405 306.425 362.304 306.755 362.304C306.974 362.304 307.191 362.348 307.393 362.434C307.596 362.52 307.78 362.647 307.934 362.807C308.089 362.967 308.213 363.156 308.297 363.364C308.38 363.573 308.423 363.796 308.423 364.022Z" fill="#A2BADD"/>
<path d="M285.766 375.685C285.766 376.025 285.668 376.357 285.485 376.64C285.302 376.922 285.042 377.143 284.736 377.273C284.431 377.403 284.096 377.437 283.772 377.371C283.449 377.305 283.151 377.141 282.918 376.901C282.684 376.66 282.525 376.354 282.461 376.021C282.397 375.687 282.43 375.342 282.556 375.028C282.682 374.714 282.896 374.446 283.171 374.257C283.446 374.068 283.768 373.968 284.098 373.968C284.541 373.968 284.965 374.149 285.278 374.471C285.59 374.792 285.766 375.23 285.766 375.685Z" fill="#A2BADD"/>
<path d="M297.092 375.685C297.092 376.025 296.995 376.357 296.811 376.64C296.628 376.922 296.367 377.143 296.063 377.273C295.758 377.403 295.423 377.437 295.099 377.371C294.775 377.305 294.478 377.141 294.244 376.901C294.011 376.66 293.852 376.354 293.788 376.021C293.723 375.687 293.756 375.342 293.883 375.028C294.009 374.714 294.223 374.446 294.498 374.257C294.772 374.068 295.095 373.968 295.425 373.968C295.867 373.968 296.291 374.149 296.604 374.471C296.917 374.792 297.092 375.23 297.092 375.685Z" fill="#A2BADD"/>
<path d="M308.423 375.685C308.423 376.025 308.326 376.357 308.142 376.64C307.959 376.922 307.698 377.143 307.394 377.273C307.089 377.403 306.753 377.437 306.43 377.371C306.106 377.305 305.809 377.141 305.575 376.901C305.342 376.661 305.182 376.355 305.118 376.021C305.054 375.688 305.087 375.343 305.213 375.028C305.34 374.715 305.553 374.446 305.828 374.257C306.102 374.069 306.425 373.968 306.755 373.968C306.974 373.968 307.191 374.012 307.393 374.098C307.596 374.185 307.779 374.311 307.934 374.47C308.089 374.63 308.212 374.82 308.296 375.028C308.38 375.236 308.423 375.46 308.423 375.685Z" fill="#A2BADD"/>
<path d="M285.766 387.348C285.766 387.688 285.668 388.021 285.485 388.303C285.302 388.585 285.042 388.806 284.736 388.936C284.431 389.067 284.096 389.1 283.772 389.034C283.449 388.968 283.151 388.804 282.918 388.564C282.684 388.324 282.525 388.017 282.461 387.684C282.397 387.351 282.43 387.005 282.556 386.691C282.682 386.377 282.896 386.109 283.171 385.92C283.446 385.731 283.768 385.631 284.098 385.631C284.541 385.631 284.965 385.812 285.278 386.134C285.59 386.456 285.766 386.893 285.766 387.348Z" fill="#A2BADD"/>
<path d="M297.092 387.348C297.092 387.688 296.995 388.021 296.811 388.303C296.628 388.585 296.367 388.806 296.063 388.936C295.758 389.067 295.423 389.1 295.099 389.034C294.775 388.968 294.478 388.804 294.244 388.564C294.011 388.324 293.852 388.017 293.788 387.684C293.723 387.351 293.756 387.005 293.883 386.691C294.009 386.377 294.223 386.109 294.498 385.92C294.772 385.731 295.095 385.631 295.425 385.631C295.867 385.631 296.291 385.812 296.604 386.134C296.917 386.456 297.092 386.893 297.092 387.348Z" fill="#A2BADD"/>
<path d="M308.423 387.348C308.423 387.688 308.326 388.02 308.142 388.303C307.959 388.585 307.698 388.806 307.394 388.936C307.089 389.067 306.753 389.1 306.43 389.034C306.106 388.968 305.809 388.804 305.575 388.564C305.342 388.324 305.182 388.018 305.118 387.685C305.054 387.351 305.087 387.006 305.213 386.691C305.34 386.378 305.553 386.109 305.828 385.921C306.102 385.732 306.425 385.631 306.755 385.631C306.974 385.631 307.191 385.676 307.393 385.761C307.596 385.848 307.779 385.974 307.934 386.133C308.089 386.293 308.212 386.483 308.296 386.691C308.38 386.899 308.423 387.123 308.423 387.348Z" fill="#A2BADD"/>
<path d="M62.3395 2.1979C62.3393 2.53473 62.2422 2.86395 62.0604 3.14395C61.8786 3.42387 61.6202 3.64213 61.318 3.77089C61.0158 3.89972 60.6833 3.93341 60.3625 3.86764C60.0417 3.80187 59.7471 3.63972 59.5158 3.40154C59.2845 3.16336 59.1269 2.85992 59.0631 2.52953C58.9992 2.19921 59.0319 1.85681 59.157 1.54554C59.2821 1.23434 59.494 0.968326 59.7659 0.781049C60.0378 0.593845 60.3575 0.493799 60.6845 0.493653C60.9019 0.493506 61.1172 0.537524 61.318 0.623142C61.5189 0.708761 61.7014 0.834295 61.855 0.992568C62.0087 1.15084 62.1306 1.33878 62.2137 1.54554C62.2969 1.75237 62.3396 1.97407 62.3395 2.1979Z" fill="#A2BADD"/>
<path d="M71.9195 3.90214C72.8337 3.90214 73.5751 3.13911 73.5751 2.19789C73.5751 1.25668 72.8337 0.493652 71.9195 0.493652C71.006 0.493652 70.2646 1.25668 70.2646 2.19789C70.2646 3.13911 71.006 3.90214 71.9195 3.90214Z" fill="#A2BADD"/>
<path d="M84.8082 2.1979C84.8082 2.53495 84.7107 2.86446 84.5293 3.14468C84.3472 3.42497 84.0889 3.64338 83.7865 3.77236C83.4842 3.90141 83.1512 3.9351 82.8303 3.8694C82.5095 3.80363 82.2142 3.64133 81.983 3.40293C81.7511 3.1646 81.5938 2.86095 81.5298 2.53034C81.4658 2.1998 81.4992 1.85711 81.6244 1.54569C81.7496 1.23427 81.9617 0.968107 82.2334 0.780904C82.5059 0.593627 82.8261 0.493652 83.1533 0.493652C83.5923 0.493652 84.0128 0.673239 84.323 0.992789C84.6339 1.31241 84.8082 1.74593 84.8082 2.1979Z" fill="#A2BADD"/>
<path d="M96.0449 2.1979C96.0449 2.53495 95.9475 2.86446 95.766 3.14468C95.5839 3.42497 95.3257 3.64338 95.0233 3.77236C94.7209 3.90141 94.3879 3.9351 94.0671 3.8694C93.7462 3.80363 93.451 3.64133 93.2197 3.40293C92.9878 3.1646 92.8306 2.86095 92.7665 2.53034C92.7025 2.1998 92.7352 1.85711 92.8612 1.54569C92.9864 1.23427 93.1984 0.968107 93.4702 0.780904C93.7427 0.593627 94.0628 0.493652 94.3901 0.493652C94.6071 0.493652 94.8226 0.537744 95.0233 0.623363C95.2239 0.709055 95.406 0.834588 95.5597 0.992789C95.7134 1.15106 95.8358 1.33893 95.919 1.54569C96.0023 1.75244 96.0449 1.97407 96.0449 2.1979Z" fill="#A2BADD"/>
<path d="M105.625 3.90214C106.539 3.90214 107.279 3.13911 107.279 2.19789C107.279 1.25668 106.539 0.493652 105.625 0.493652C104.711 0.493652 103.97 1.25668 103.97 2.19789C103.97 3.13911 104.711 3.90214 105.625 3.90214Z" fill="#A2BADD"/>
<path d="M118.514 2.1979C118.514 2.53495 118.417 2.86446 118.235 3.14468C118.053 3.42497 117.795 3.64338 117.493 3.77236C117.19 3.90141 116.857 3.9351 116.536 3.8694C116.215 3.80363 115.92 3.64133 115.689 3.40293C115.457 3.1646 115.3 2.86095 115.236 2.53034C115.172 2.1998 115.204 1.85711 115.33 1.54569C115.455 1.23427 115.668 0.968108 115.939 0.780904C116.212 0.593627 116.531 0.493653 116.859 0.493653C117.076 0.493506 117.292 0.537524 117.493 0.623142C117.693 0.708761 117.876 0.834295 118.03 0.992568C118.183 1.15084 118.305 1.33878 118.388 1.54554C118.471 1.75237 118.514 1.97407 118.514 2.1979Z" fill="#A2BADD"/>
<path d="M129.748 2.1979C129.748 2.53495 129.651 2.86446 129.469 3.14468C129.288 3.42497 129.029 3.64338 128.726 3.77236C128.424 3.90141 128.091 3.9351 127.77 3.8694C127.449 3.80363 127.155 3.64133 126.923 3.40293C126.692 3.1646 126.534 2.86095 126.47 2.53034C126.406 2.1998 126.439 1.85711 126.564 1.54569C126.69 1.23427 126.902 0.968108 127.174 0.780904C127.446 0.593627 127.766 0.493653 128.093 0.493653C128.311 0.493506 128.526 0.537524 128.726 0.623142C128.928 0.708761 129.11 0.834295 129.264 0.992568C129.417 1.15084 129.54 1.33878 129.622 1.54554C129.705 1.75237 129.748 1.97407 129.748 2.1979Z" fill="#A2BADD"/>
<path d="M62.3395 13.7677C62.3393 14.1046 62.2422 14.4338 62.0604 14.7138C61.8786 14.9938 61.6202 15.212 61.318 15.3408C61.0158 15.4696 60.6833 15.5032 60.3625 15.4375C60.0417 15.3718 59.7471 15.2095 59.5158 14.9714C59.2845 14.7332 59.1269 14.4297 59.0631 14.0994C58.9992 13.769 59.0319 13.4266 59.157 13.1154C59.2821 12.8042 59.494 12.5381 59.7659 12.3509C60.0378 12.1637 60.3575 12.0637 60.6845 12.0635C61.1235 12.0635 61.5444 12.2431 61.8548 12.5627C62.1651 12.8822 62.3395 13.3158 62.3395 13.7677Z" fill="#A2BADD"/>
<path d="M73.575 13.7677C73.575 14.1048 73.4775 14.4343 73.2961 14.7146C73.114 14.9948 72.8557 15.2133 72.5533 15.3423C72.251 15.4712 71.918 15.505 71.5971 15.4392C71.2756 15.3735 70.981 15.2112 70.7498 14.9728C70.5178 14.7345 70.3606 14.4308 70.2966 14.1002C70.2326 13.7696 70.2653 13.4269 70.3905 13.1156C70.5157 12.8042 70.7284 12.538 71.0002 12.3507C71.2727 12.1635 71.5921 12.0635 71.9194 12.0635C72.3584 12.0637 72.7796 12.2434 73.0898 12.5629C73.4 12.8825 73.5743 13.3158 73.575 13.7677Z" fill="#A2BADD"/>
<path d="M84.8082 13.7677C84.8082 14.1048 84.7107 14.4343 84.5293 14.7146C84.3472 14.9948 84.0889 15.2133 83.7865 15.3423C83.4842 15.4712 83.1512 15.505 82.8303 15.4392C82.5095 15.3735 82.2142 15.2112 81.983 14.9728C81.7511 14.7345 81.5938 14.4308 81.5298 14.1002C81.4658 13.7696 81.4992 13.4269 81.6244 13.1156C81.7496 12.8042 81.9617 12.538 82.2334 12.3507C82.5059 12.1635 82.8261 12.0635 83.1533 12.0635C83.5916 12.0637 84.0128 12.2434 84.323 12.5629C84.6332 12.8825 84.8075 13.3158 84.8082 13.7677Z" fill="#A2BADD"/>
<path d="M96.0449 13.7677C96.0449 14.1048 95.9475 14.4343 95.766 14.7146C95.5839 14.9948 95.3257 15.2133 95.0233 15.3423C94.7209 15.4712 94.3879 15.505 94.0671 15.4392C93.7462 15.3735 93.451 15.2112 93.2197 14.9728C92.9878 14.7345 92.8306 14.4308 92.7665 14.1002C92.7025 13.7696 92.7352 13.4269 92.8612 13.1156C92.9864 12.8042 93.1984 12.538 93.4702 12.3507C93.7427 12.1635 94.0628 12.0635 94.3901 12.0635C94.8283 12.0637 95.2495 12.2434 95.5597 12.5629C95.8699 12.8825 96.0442 13.3158 96.0449 13.7677Z" fill="#A2BADD"/>
<path d="M107.279 13.7677C107.279 14.1049 107.182 14.4344 107 14.7147C106.818 14.995 106.56 15.2134 106.257 15.3423C105.955 15.4713 105.622 15.505 105.301 15.4392C104.979 15.3733 104.685 15.2109 104.454 14.9725C104.222 14.7341 104.064 14.4303 104 14.0997C103.937 13.769 103.97 13.4263 104.095 13.115C104.22 12.8036 104.433 12.5375 104.705 12.3503C104.977 12.1632 105.297 12.0633 105.625 12.0635C106.064 12.0637 106.484 12.2434 106.794 12.563C107.105 12.8825 107.279 13.3159 107.279 13.7677Z" fill="#A2BADD"/>
<path d="M118.514 13.7677C118.514 14.1048 118.417 14.4343 118.235 14.7146C118.053 14.9948 117.795 15.2133 117.493 15.3423C117.19 15.4712 116.857 15.505 116.536 15.4392C116.215 15.3735 115.92 15.2112 115.689 14.9728C115.457 14.7345 115.3 14.4308 115.236 14.1002C115.172 13.7696 115.204 13.4269 115.33 13.1156C115.455 12.8042 115.668 12.538 115.939 12.3507C116.212 12.1635 116.531 12.0635 116.859 12.0635C117.298 12.0635 117.719 12.2431 118.029 12.5627C118.34 12.8822 118.514 13.3158 118.514 13.7677Z" fill="#A2BADD"/>
<path d="M129.748 13.7677C129.748 14.1048 129.651 14.4343 129.469 14.7146C129.288 14.9948 129.029 15.2133 128.726 15.3423C128.424 15.4712 128.091 15.505 127.77 15.4392C127.449 15.3735 127.155 15.2112 126.923 14.9728C126.692 14.7345 126.534 14.4308 126.47 14.1002C126.406 13.7696 126.439 13.4269 126.564 13.1156C126.69 12.8042 126.902 12.538 127.174 12.3507C127.446 12.1635 127.766 12.0635 128.093 12.0635C128.532 12.0635 128.953 12.2431 129.264 12.5627C129.574 12.8822 129.748 13.3158 129.748 13.7677Z" fill="#A2BADD"/>
<path d="M62.3395 25.337C62.3387 25.6737 62.241 26.0026 62.0588 26.2821C61.8766 26.5617 61.618 26.7793 61.3157 26.9077C61.0134 27.036 60.6811 27.0692 60.3605 27.003C60.0399 26.9369 59.7456 26.7744 59.5146 26.536C59.2836 26.2978 59.1265 25.9943 59.0629 25.6641C58.9992 25.3338 59.0321 24.9916 59.1573 24.6806C59.2825 24.3695 59.4944 24.1037 59.7662 23.9166C60.038 23.7295 60.3576 23.6296 60.6845 23.6294C60.9022 23.6294 61.1176 23.6736 61.3187 23.7595C61.5197 23.8453 61.7022 23.9711 61.856 24.1298C62.0097 24.2884 62.1315 24.4766 62.2145 24.6838C62.2975 24.891 62.34 25.113 62.3395 25.337Z" fill="#A2BADD"/>
<path d="M73.5748 25.337C73.5741 25.674 73.4759 26.0031 73.2938 26.2829C73.1116 26.5628 72.8534 26.7807 72.5503 26.9091C72.2479 27.0376 71.9157 27.0708 71.5948 27.0047C71.2739 26.9386 70.9794 26.776 70.7482 26.5375C70.517 26.299 70.3597 25.9954 70.2964 25.6649C70.2324 25.3344 70.2658 24.9919 70.391 24.6807C70.5162 24.3695 70.7283 24.1035 71.0007 23.9164C71.2725 23.7293 71.5927 23.6294 71.9192 23.6294C72.1369 23.6295 72.3525 23.6738 72.5539 23.7597C72.7545 23.8456 72.9373 23.9714 73.091 24.13C73.2447 24.2886 73.3663 24.4769 73.4496 24.6839C73.5321 24.891 73.5748 25.113 73.5748 25.337Z" fill="#A2BADD"/>
<path d="M84.8082 25.337C84.8075 25.6741 84.71 26.0033 84.5271 26.2831C84.345 26.563 84.086 26.7809 83.7837 26.9093C83.4813 27.0377 83.1483 27.0708 82.8275 27.0046C82.5066 26.9384 82.2121 26.7755 81.9808 26.5369C81.7503 26.2983 81.5931 25.9944 81.5298 25.6638C81.4657 25.3332 81.4992 24.9907 81.6251 24.6795C81.7503 24.3683 81.963 24.1025 82.2348 23.9155C82.5073 23.7286 82.8275 23.6291 83.1547 23.6294C83.3724 23.6298 83.5873 23.6741 83.7879 23.7602C83.9886 23.8462 84.1714 23.972 84.3251 24.1306C84.4781 24.2892 84.5997 24.4773 84.683 24.6844C84.7655 24.8913 84.8082 25.1131 84.8082 25.337Z" fill="#A2BADD"/>
<path d="M96.045 25.337C96.0443 25.674 95.9468 26.0031 95.764 26.2829C95.5819 26.5628 95.3236 26.7807 95.0212 26.9091C94.7181 27.0376 94.3859 27.0708 94.065 27.0047C93.7442 26.9386 93.4496 26.776 93.2184 26.5375C92.9872 26.299 92.8299 25.9954 92.7666 25.6649C92.7026 25.3344 92.736 24.9919 92.8612 24.6807C92.9865 24.3695 93.1985 24.1035 93.471 23.9164C93.7427 23.7293 94.0629 23.6294 94.3902 23.6294C94.6072 23.6295 94.8227 23.6738 95.0241 23.7597C95.2247 23.8456 95.4076 23.9714 95.5612 24.13C95.7149 24.2886 95.8366 24.4769 95.9198 24.6839C96.0023 24.891 96.045 25.113 96.045 25.337Z" fill="#A2BADD"/>
<path d="M107.279 25.337C107.278 25.674 107.181 26.0032 106.998 26.283C106.816 26.5628 106.557 26.7807 106.255 26.9092C105.952 27.0377 105.62 27.0708 105.299 27.0046C104.978 26.9384 104.683 26.7758 104.452 26.5372C104.221 26.2987 104.064 25.9949 104 25.6643C103.937 25.3338 103.97 24.9913 104.096 24.6801C104.221 24.3689 104.433 24.103 104.705 23.916C104.977 23.729 105.297 23.6292 105.625 23.6294C105.842 23.6295 106.058 23.6738 106.259 23.7597C106.459 23.8456 106.642 23.9715 106.796 24.1301C106.949 24.2886 107.071 24.4769 107.154 24.684C107.237 24.8911 107.28 25.113 107.279 25.337Z" fill="#A2BADD"/>
<path d="M118.514 25.337C118.514 25.6741 118.417 26.0036 118.235 26.2838C118.053 26.5641 117.795 26.7825 117.493 26.9115C117.19 27.0405 116.857 27.0743 116.536 27.0085C116.215 26.9427 115.92 26.7804 115.689 26.5421C115.457 26.3038 115.3 26.0001 115.236 25.6695C115.172 25.3389 115.204 24.9963 115.33 24.6848C115.455 24.3734 115.668 24.1073 115.939 23.92C116.212 23.7327 116.531 23.6328 116.859 23.6328C117.298 23.6328 117.719 23.8123 118.029 24.132C118.34 24.4516 118.514 24.885 118.514 25.337Z" fill="#A2BADD"/>
<path d="M129.748 25.337C129.748 25.6741 129.651 26.0036 129.469 26.2838C129.288 26.5641 129.029 26.7825 128.726 26.9115C128.424 27.0405 128.091 27.0743 127.77 27.0085C127.449 26.9427 127.155 26.7804 126.923 26.5421C126.692 26.3038 126.534 26.0001 126.47 25.6695C126.406 25.3389 126.439 24.9963 126.564 24.6848C126.69 24.3734 126.902 24.1073 127.174 23.92C127.446 23.7327 127.766 23.6328 128.093 23.6328C128.532 23.6328 128.953 23.8123 129.264 24.132C129.574 24.4516 129.748 24.885 129.748 25.337Z" fill="#A2BADD"/>
<path d="M62.3395 36.9064C62.3393 37.2432 62.2422 37.5724 62.0604 37.8521C61.8786 38.1326 61.6202 38.3508 61.318 38.4797C61.0158 38.6079 60.6833 38.6416 60.3625 38.5764C60.0417 38.5105 59.7471 38.3479 59.5158 38.1099C59.2845 37.8719 59.1269 37.5684 59.0631 37.238C58.9992 36.9077 59.0319 36.5653 59.157 36.254C59.2821 35.9428 59.494 35.6768 59.7659 35.4895C60.0378 35.3023 60.3575 35.2023 60.6845 35.2021C60.9019 35.202 61.1172 35.246 61.318 35.3316C61.5189 35.4173 61.7014 35.5428 61.855 35.7011C62.0087 35.8593 62.1306 36.0473 62.2137 36.254C62.2969 36.4609 62.3396 36.6826 62.3395 36.9064Z" fill="#A2BADD"/>
<path d="M73.575 36.9064C73.575 37.2434 73.4775 37.573 73.2961 37.8535C73.114 38.1333 72.8557 38.3516 72.5533 38.4812C72.251 38.6101 71.918 38.6438 71.5971 38.5779C71.2756 38.512 70.981 38.3501 70.7498 38.1114C70.5178 37.8733 70.3606 37.5694 70.2966 37.2388C70.2326 36.9083 70.2653 36.5656 70.3905 36.2542C70.5157 35.9428 70.7284 35.6766 71.0002 35.4893C71.2727 35.3021 71.5921 35.2021 71.9194 35.2021C72.3584 35.2021 72.7796 35.3817 73.0898 35.7013C73.4007 36.0209 73.575 36.4544 73.575 36.9064Z" fill="#A2BADD"/>
<path d="M84.8082 36.9064C84.8082 37.2434 84.7107 37.573 84.5293 37.8535C84.3472 38.1333 84.0889 38.3516 83.7865 38.4812C83.4842 38.6101 83.1512 38.6438 82.8303 38.5779C82.5095 38.512 82.2142 38.3501 81.983 38.1114C81.7511 37.8733 81.5938 37.5694 81.5298 37.2388C81.4658 36.9083 81.4992 36.5656 81.6244 36.2542C81.7496 35.9428 81.9617 35.6766 82.2334 35.4893C82.5059 35.3021 82.8261 35.2021 83.1533 35.2021C83.5923 35.2021 84.0128 35.3817 84.323 35.7013C84.6339 36.0209 84.8082 36.4544 84.8082 36.9064Z" fill="#A2BADD"/>
<path d="M96.0449 36.9064C96.0449 37.2434 95.9475 37.573 95.766 37.8535C95.5839 38.1333 95.3257 38.3516 95.0233 38.4812C94.7209 38.6101 94.3879 38.6438 94.0671 38.5779C93.7462 38.512 93.451 38.3501 93.2197 38.1114C92.9878 37.8733 92.8306 37.5694 92.7665 37.2388C92.7025 36.9083 92.7352 36.5656 92.8612 36.2542C92.9864 35.9428 93.1984 35.6766 93.4702 35.4893C93.7427 35.3021 94.0628 35.2021 94.3901 35.2021C94.6071 35.2021 94.8226 35.2462 95.0233 35.3319C95.2239 35.4176 95.406 35.5431 95.5597 35.7013C95.7134 35.8596 95.8358 36.0474 95.919 36.2542C96.0023 36.4609 96.0449 36.6826 96.0449 36.9064Z" fill="#A2BADD"/>
<path d="M107.279 36.9064C107.279 37.2434 107.182 37.573 107 37.8535C106.818 38.1333 106.56 38.3523 106.257 38.4812C105.955 38.6101 105.622 38.6438 105.301 38.5779C104.979 38.512 104.685 38.3494 104.454 38.1114C104.222 37.8726 104.064 37.569 104 37.2383C103.937 36.9077 103.97 36.565 104.095 36.2536C104.22 35.9422 104.433 35.6761 104.705 35.489C104.977 35.3018 105.297 35.202 105.625 35.2021C105.842 35.2021 106.057 35.2462 106.258 35.3319C106.459 35.4176 106.641 35.5431 106.794 35.7014C106.948 35.8596 107.07 36.0475 107.153 36.2543C107.236 36.461 107.279 36.6826 107.279 36.9064Z" fill="#A2BADD"/>
<path d="M118.514 36.9064C118.514 37.2434 118.417 37.573 118.235 37.8535C118.053 38.1333 117.795 38.3516 117.493 38.4812C117.19 38.6101 116.857 38.6438 116.536 38.5779C116.215 38.512 115.92 38.3501 115.689 38.1114C115.457 37.8733 115.3 37.5694 115.236 37.2388C115.172 36.9083 115.204 36.5656 115.33 36.2542C115.455 35.9428 115.668 35.6766 115.939 35.4893C116.212 35.3021 116.531 35.2021 116.859 35.2021C117.076 35.202 117.292 35.246 117.493 35.3316C117.693 35.4173 117.876 35.5428 118.03 35.7011C118.183 35.8593 118.305 36.0473 118.388 36.254C118.471 36.4609 118.514 36.6826 118.514 36.9064Z" fill="#A2BADD"/>
<path d="M129.748 36.9064C129.748 37.2434 129.651 37.573 129.469 37.8535C129.288 38.1333 129.029 38.3516 128.726 38.4812C128.424 38.6101 128.091 38.6438 127.77 38.5779C127.449 38.512 127.155 38.3501 126.923 38.1114C126.692 37.8733 126.534 37.5694 126.47 37.2388C126.406 36.9083 126.439 36.5656 126.564 36.2542C126.69 35.9428 126.902 35.6766 127.174 35.4893C127.446 35.3021 127.766 35.2021 128.093 35.2021C128.311 35.202 128.526 35.246 128.726 35.3316C128.928 35.4173 129.11 35.5428 129.264 35.7011C129.417 35.8593 129.54 36.0473 129.622 36.254C129.705 36.4609 129.748 36.6826 129.748 36.9064Z" fill="#A2BADD"/>
<path d="M62.3395 48.4753C62.3395 48.8122 62.2425 49.1418 62.0608 49.4216C61.8791 49.7021 61.6208 49.9204 61.3186 50.0493C61.0163 50.1782 60.6838 50.2119 60.363 50.1459C60.0422 50.0808 59.7474 49.9182 59.516 49.6801C59.2847 49.4421 59.1271 49.1389 59.0631 48.8086C58.9992 48.4783 59.0319 48.1355 59.1569 47.8242C59.282 47.5129 59.4939 47.2471 59.7658 47.0596C60.0377 46.8721 60.3574 46.7725 60.6845 46.7725C60.9018 46.7717 61.117 46.8157 61.3178 46.9014C61.5186 46.9871 61.7011 47.1123 61.8547 47.2705C62.0084 47.4287 62.1304 47.6169 62.2135 47.8235C62.2967 48.03 62.3395 48.2519 62.3395 48.4753Z" fill="#A2BADD"/>
<path d="M71.9195 50.1804C72.8337 50.1804 73.5751 49.4179 73.5751 48.476C73.5751 47.5349 72.8337 46.7725 71.9195 46.7725C71.006 46.7725 70.2646 47.5349 70.2646 48.476C70.2646 49.4179 71.006 50.1804 71.9195 50.1804Z" fill="#A2BADD"/>
<path d="M84.8081 48.4753C84.8081 48.813 84.7114 49.1425 84.5292 49.4223C84.3478 49.7028 84.0896 49.9218 83.7872 50.0507C83.4848 50.1796 83.1519 50.2133 82.831 50.1481C82.5094 50.0822 82.2149 49.9204 81.9829 49.6816C81.7517 49.4436 81.5938 49.1396 81.5297 48.8093C81.4657 48.4782 81.4984 48.1355 81.6236 47.8242C81.7489 47.5129 81.9616 47.2463 82.2334 47.0596C82.5059 46.8721 82.826 46.7725 83.1533 46.7725C83.5915 46.7725 84.0127 46.9519 84.3229 47.2712C84.6331 47.5906 84.8074 48.0234 84.8081 48.4753Z" fill="#A2BADD"/>
<path d="M96.045 48.4753C96.045 48.813 95.9482 49.1425 95.7661 49.4223C95.5846 49.7028 95.3264 49.9218 95.024 50.0507C94.7216 50.1796 94.3887 50.2133 94.0671 50.1481C93.7462 50.0822 93.4517 49.9204 93.2198 49.6816C92.9885 49.4436 92.8306 49.1396 92.7666 48.8093C92.7025 48.4782 92.7352 48.1355 92.8605 47.8242C92.9857 47.5129 93.1984 47.2463 93.4702 47.0596C93.7427 46.8721 94.0621 46.7725 94.3901 46.7725C94.8284 46.7725 95.2495 46.9519 95.5597 47.2712C95.8699 47.5906 96.0442 48.0234 96.045 48.4753Z" fill="#A2BADD"/>
<path d="M105.625 50.1804C106.539 50.1804 107.279 49.4179 107.279 48.476C107.279 47.5349 106.539 46.7725 105.625 46.7725C104.711 46.7725 103.97 47.5349 103.97 48.476C103.97 49.4179 104.711 50.1804 105.625 50.1804Z" fill="#A2BADD"/>
<path d="M118.514 48.4753C118.514 48.813 118.417 49.1426 118.235 49.4223C118.054 49.7028 117.796 49.9218 117.493 50.0507C117.191 50.1796 116.858 50.2133 116.537 50.1481C116.215 50.0822 115.921 49.9204 115.689 49.6816C115.458 49.4436 115.3 49.1396 115.236 48.8093C115.172 48.4783 115.204 48.1355 115.33 47.8242C115.455 47.5129 115.668 47.2463 115.939 47.0596C116.212 46.8721 116.531 46.7725 116.859 46.7725C117.076 46.7717 117.291 46.8157 117.493 46.9014C117.693 46.9871 117.875 47.1123 118.029 47.2705C118.183 47.4287 118.305 47.6169 118.388 47.8235C118.471 48.03 118.514 48.2519 118.514 48.4753Z" fill="#A2BADD"/>
<path d="M129.748 48.4753C129.748 48.813 129.651 49.1426 129.47 49.4223C129.288 49.7028 129.03 49.9218 128.727 50.0507C128.425 50.1796 128.092 50.2133 127.771 50.1481C127.45 50.0822 127.155 49.9204 126.924 49.6816C126.692 49.4436 126.534 49.1396 126.47 48.8093C126.406 48.4783 126.439 48.1355 126.564 47.8242C126.69 47.5129 126.902 47.2463 127.174 47.0596C127.446 46.8721 127.766 46.7725 128.093 46.7725C128.31 46.7717 128.526 46.8157 128.726 46.9014C128.927 46.9871 129.11 47.1123 129.264 47.2705C129.417 47.4287 129.539 47.6169 129.622 47.8235C129.705 48.03 129.748 48.2519 129.748 48.4753Z" fill="#A2BADD"/>
<path d="M954.871 196.107C954.871 196.409 954.786 196.704 954.622 196.954C954.459 197.205 954.231 197.4 953.961 197.516C953.69 197.631 953.391 197.662 953.107 197.602C952.815 197.544 952.552 197.399 952.346 197.185C952.139 196.972 951.997 196.7 951.94 196.404C951.883 196.108 951.912 195.802 952.025 195.523C952.139 195.245 952.324 195.007 952.573 194.839C952.815 194.671 953.1 194.582 953.391 194.582C953.783 194.582 954.16 194.742 954.437 195.029C954.715 195.314 954.871 195.703 954.871 196.107Z" fill="#A2BADD"/>
<path d="M963.444 197.632C964.262 197.632 964.924 196.949 964.924 196.107C964.924 195.265 964.262 194.582 963.444 194.582C962.626 194.582 961.964 195.265 961.964 196.107C961.964 196.949 962.626 197.632 963.444 197.632Z" fill="#A2BADD"/>
<path d="M974.977 196.107C974.977 196.409 974.892 196.704 974.728 196.954C974.564 197.206 974.337 197.4 974.066 197.516C973.796 197.632 973.497 197.662 973.213 197.602C972.921 197.544 972.658 197.398 972.451 197.185C972.245 196.972 972.103 196.7 972.046 196.404C971.989 196.108 972.017 195.801 972.131 195.523C972.245 195.244 972.43 195.006 972.679 194.838C972.921 194.671 973.205 194.582 973.497 194.582C973.696 194.582 973.888 194.622 974.066 194.698C974.244 194.775 974.408 194.887 974.543 195.029C974.685 195.17 974.792 195.339 974.87 195.523C974.941 195.708 974.977 195.907 974.977 196.107Z" fill="#A2BADD"/>
<path d="M985.03 196.107C985.03 196.409 984.945 196.704 984.781 196.954C984.617 197.205 984.39 197.4 984.119 197.516C983.849 197.631 983.55 197.662 983.265 197.602C982.974 197.544 982.711 197.399 982.504 197.185C982.298 196.972 982.156 196.7 982.099 196.404C982.042 196.108 982.07 195.802 982.184 195.523C982.298 195.245 982.483 195.007 982.732 194.839C982.974 194.671 983.258 194.582 983.55 194.582C983.749 194.582 983.941 194.622 984.119 194.698C984.297 194.775 984.461 194.887 984.603 195.029C984.738 195.17 984.845 195.339 984.923 195.523C984.994 195.708 985.03 195.907 985.03 196.107Z" fill="#A2BADD"/>
<path d="M993.603 197.632C994.421 197.632 995.09 196.949 995.09 196.107C995.09 195.265 994.421 194.582 993.603 194.582C992.785 194.582 992.123 195.265 992.123 196.107C992.123 196.949 992.785 197.632 993.603 197.632Z" fill="#A2BADD"/>
<path d="M1005.14 196.107C1005.14 196.409 1005.05 196.704 1004.89 196.954C1004.73 197.205 1004.5 197.4 1004.23 197.516C1003.95 197.631 1003.66 197.662 1003.37 197.602C1003.08 197.544 1002.82 197.399 1002.61 197.185C1002.4 196.972 1002.26 196.7 1002.2 196.404C1002.15 196.108 1002.18 195.802 1002.29 195.523C1002.4 195.245 1002.6 195.007 1002.84 194.839C1003.08 194.671 1003.36 194.582 1003.66 194.582C1004.05 194.582 1004.43 194.742 1004.71 195.029C1004.99 195.314 1005.14 195.703 1005.14 196.107Z" fill="#A2BADD"/>
<path d="M1015.2 196.107C1015.2 196.409 1015.1 196.704 1014.95 196.954C1014.78 197.205 1014.55 197.4 1014.28 197.516C1014.01 197.631 1013.71 197.662 1013.42 197.602C1013.14 197.544 1012.87 197.399 1012.66 197.185C1012.46 196.972 1012.31 196.7 1012.26 196.404C1012.2 196.108 1012.23 195.802 1012.34 195.523C1012.46 195.245 1012.65 195.007 1012.89 194.839C1013.13 194.671 1013.42 194.582 1013.72 194.582C1014.11 194.582 1014.48 194.742 1014.76 195.029C1015.04 195.314 1015.2 195.703 1015.2 196.107Z" fill="#A2BADD"/>
<path d="M964.924 206.46C964.924 206.761 964.839 207.056 964.675 207.307C964.511 207.558 964.284 207.754 964.013 207.869C963.743 207.984 963.444 208.014 963.16 207.956C962.868 207.897 962.605 207.751 962.398 207.538C962.192 207.325 962.05 207.053 961.993 206.758C961.936 206.462 961.964 206.155 962.078 205.876C962.192 205.597 962.377 205.359 962.626 205.192C962.868 205.025 963.152 204.935 963.444 204.935C963.835 204.935 964.213 205.096 964.49 205.382C964.768 205.668 964.924 206.056 964.924 206.46Z" fill="#A2BADD"/>
<path d="M974.977 206.46C974.977 206.762 974.892 207.056 974.728 207.308C974.564 207.558 974.337 207.754 974.066 207.869C973.796 207.984 973.497 208.014 973.213 207.956C972.921 207.896 972.658 207.751 972.451 207.538C972.245 207.324 972.103 207.053 972.046 206.757C971.989 206.461 972.017 206.155 972.131 205.876C972.245 205.597 972.43 205.359 972.679 205.192C972.921 205.024 973.205 204.935 973.497 204.935C973.896 204.935 974.266 205.096 974.543 205.382C974.82 205.668 974.977 206.056 974.977 206.46Z" fill="#A2BADD"/>
<path d="M985.03 206.46C985.03 206.761 984.945 207.056 984.781 207.307C984.617 207.558 984.39 207.754 984.119 207.869C983.849 207.984 983.55 208.014 983.265 207.956C982.974 207.897 982.711 207.751 982.504 207.538C982.298 207.325 982.156 207.053 982.099 206.758C982.042 206.462 982.07 206.155 982.184 205.876C982.298 205.597 982.483 205.359 982.732 205.192C982.974 205.025 983.258 204.935 983.55 204.935C983.941 204.935 984.318 205.096 984.596 205.381C984.88 205.668 985.03 206.055 985.03 206.46Z" fill="#A2BADD"/>
<path d="M995.09 206.46C995.09 206.761 994.997 207.056 994.834 207.307C994.677 207.558 994.442 207.754 994.172 207.869C993.902 207.984 993.603 208.014 993.318 207.956C993.026 207.897 992.763 207.751 992.557 207.538C992.351 207.325 992.208 207.053 992.152 206.758C992.095 206.462 992.123 206.155 992.237 205.876C992.351 205.597 992.543 205.359 992.785 205.192C993.026 205.025 993.311 204.935 993.603 204.935C994.001 204.935 994.378 205.096 994.656 205.381C994.933 205.668 995.09 206.055 995.09 206.46Z" fill="#A2BADD"/>
<path d="M1005.14 206.46C1005.14 206.761 1005.05 207.056 1004.89 207.307C1004.73 207.558 1004.5 207.754 1004.23 207.869C1003.95 207.984 1003.66 208.014 1003.37 207.956C1003.08 207.897 1002.82 207.751 1002.61 207.538C1002.4 207.325 1002.26 207.053 1002.2 206.758C1002.15 206.462 1002.18 206.155 1002.29 205.876C1002.4 205.597 1002.6 205.359 1002.84 205.192C1003.08 205.025 1003.36 204.935 1003.66 204.935C1004.05 204.935 1004.43 205.096 1004.71 205.382C1004.99 205.668 1005.14 206.056 1005.14 206.46Z" fill="#A2BADD"/>
<path d="M1015.2 206.46C1015.2 206.761 1015.1 207.056 1014.95 207.307C1014.78 207.558 1014.55 207.754 1014.28 207.869C1014.01 207.984 1013.71 208.014 1013.42 207.956C1013.14 207.897 1012.87 207.751 1012.66 207.538C1012.46 207.325 1012.31 207.053 1012.26 206.758C1012.2 206.462 1012.23 206.155 1012.34 205.876C1012.46 205.597 1012.65 205.359 1012.89 205.192C1013.13 205.025 1013.42 204.935 1013.72 204.935C1014.11 204.935 1014.48 205.096 1014.76 205.382C1015.04 205.668 1015.2 206.056 1015.2 206.46Z" fill="#A2BADD"/>
<path d="M1025.25 206.46C1025.25 206.762 1025.16 207.056 1025 207.308C1024.84 207.558 1024.6 207.754 1024.33 207.869C1024.06 207.984 1023.76 208.014 1023.48 207.956C1023.19 207.896 1022.92 207.751 1022.72 207.538C1022.51 207.324 1022.37 207.053 1022.31 206.757C1022.25 206.461 1022.29 206.155 1022.4 205.876C1022.51 205.597 1022.7 205.359 1022.94 205.192C1023.19 205.024 1023.47 204.935 1023.77 204.935C1024.16 204.935 1024.54 205.096 1024.81 205.382C1025.09 205.668 1025.25 206.056 1025.25 206.46Z" fill="#A2BADD"/>
<path d="M1027.78 608.265C1027.78 609.108 1027.54 609.932 1027.08 610.632C1026.63 611.333 1025.98 611.88 1025.22 612.202C1024.47 612.524 1023.63 612.608 1022.83 612.444C1022.03 612.279 1021.29 611.873 1020.71 611.277C1020.13 610.68 1019.74 609.921 1019.58 609.094C1019.42 608.267 1019.5 607.41 1019.81 606.631C1020.13 605.851 1020.66 605.186 1021.34 604.718C1022.02 604.249 1022.82 603.999 1023.64 603.999C1024.18 603.999 1024.72 604.11 1025.23 604.323C1025.73 604.538 1026.18 604.852 1026.56 605.249C1026.96 605.645 1027.25 606.115 1027.47 606.632C1027.67 607.15 1027.78 607.704 1027.78 608.265Z" stroke="#DFEAFC" stroke-miterlimit="10"/>
<path d="M1055.9 608.265C1055.9 609.108 1055.66 609.932 1055.2 610.634C1054.75 611.336 1054.1 611.882 1053.34 612.205C1052.58 612.528 1051.75 612.612 1050.95 612.447C1050.14 612.283 1049.4 611.877 1048.83 611.28C1048.24 610.684 1047.85 609.923 1047.7 609.097C1047.53 608.269 1047.62 607.411 1047.93 606.632C1048.24 605.853 1048.77 605.186 1049.45 604.718C1050.14 604.25 1050.93 603.999 1051.76 603.999C1052.85 603.999 1053.91 604.449 1054.68 605.249C1055.46 606.048 1055.9 607.133 1055.9 608.265Z" stroke="#DFEAFC" stroke-miterlimit="10"/>
<path d="M1084.01 608.265C1084.01 609.108 1083.77 609.932 1083.31 610.634C1082.86 611.336 1082.21 611.882 1081.45 612.205C1080.7 612.528 1079.86 612.612 1079.06 612.447C1078.26 612.283 1077.52 611.877 1076.94 611.28C1076.36 610.684 1075.97 609.923 1075.8 609.097C1075.65 608.269 1075.73 607.411 1076.04 606.632C1076.35 605.853 1076.89 605.186 1077.57 604.718C1078.25 604.25 1079.05 603.999 1079.87 603.999C1080.42 603.999 1080.95 604.109 1081.45 604.323C1081.96 604.537 1082.41 604.852 1082.8 605.248C1083.18 605.644 1083.49 606.114 1083.69 606.632C1083.9 607.149 1084.01 607.704 1084.01 608.265Z" stroke="#DFEAFC" stroke-miterlimit="10"/>
<path d="M1027.78 637.215C1027.78 638.059 1027.54 638.883 1027.08 639.584C1026.63 640.285 1025.98 640.831 1025.22 641.153C1024.47 641.475 1023.63 641.56 1022.83 641.395C1022.03 641.23 1021.29 640.824 1020.71 640.227C1020.13 639.631 1019.74 638.872 1019.58 638.045C1019.42 637.218 1019.5 636.36 1019.81 635.582C1020.13 634.802 1020.66 634.137 1021.34 633.669C1022.02 633.2 1022.82 632.95 1023.64 632.95C1024.18 632.95 1024.72 633.06 1025.23 633.275C1025.73 633.489 1026.18 633.803 1026.56 634.2C1026.96 634.595 1027.25 635.065 1027.47 635.583C1027.67 636.1 1027.78 636.655 1027.78 637.215Z" stroke="#DFEAFC" stroke-miterlimit="10"/>
<path d="M1055.9 637.215C1055.9 638.059 1055.66 638.883 1055.2 639.585C1054.75 640.286 1054.1 640.833 1053.34 641.156C1052.58 641.478 1051.75 641.563 1050.95 641.399C1050.14 641.234 1049.4 640.828 1048.83 640.231C1048.24 639.635 1047.85 638.875 1047.7 638.047C1047.53 637.22 1047.62 636.363 1047.93 635.583C1048.24 634.804 1048.77 634.137 1049.45 633.669C1050.14 633.2 1050.93 632.95 1051.76 632.95C1052.85 632.95 1053.91 633.399 1054.68 634.199C1055.46 634.999 1055.9 636.084 1055.9 637.215Z" stroke="#DFEAFC" stroke-miterlimit="10"/>
<path d="M1084.01 637.215C1084.01 638.059 1083.77 638.883 1083.31 639.585C1082.86 640.286 1082.21 640.833 1081.45 641.156C1080.7 641.478 1079.86 641.563 1079.06 641.399C1078.26 641.234 1077.52 640.828 1076.94 640.231C1076.36 639.635 1075.97 638.875 1075.8 638.047C1075.65 637.22 1075.73 636.363 1076.04 635.583C1076.35 634.804 1076.89 634.137 1077.57 633.669C1078.25 633.2 1079.05 632.95 1079.87 632.95C1080.42 632.95 1080.95 633.06 1081.45 633.274C1081.96 633.489 1082.41 633.803 1082.8 634.199C1083.18 634.595 1083.49 635.065 1083.69 635.582C1083.9 636.1 1084.01 636.655 1084.01 637.215Z" stroke="#DFEAFC" stroke-miterlimit="10"/>
<path d="M1.32603 530.672C1.89186 530.672 2.35056 530.199 2.35056 529.616C2.35056 529.033 1.89186 528.561 1.32603 528.561C0.760205 528.561 0.301514 529.033 0.301514 529.616C0.301514 530.199 0.760205 530.672 1.32603 530.672Z" fill="#4181E0"/>
<path d="M14.6894 530.672C15.2552 530.672 15.7139 530.199 15.7139 529.616C15.7139 529.033 15.2552 528.561 14.6894 528.561C14.1235 528.561 13.6648 529.033 13.6648 529.616C13.6648 530.199 14.1235 530.672 14.6894 530.672Z" fill="#4181E0"/>
<path d="M1.32603 544.316C1.89186 544.316 2.35056 543.843 2.35056 543.26C2.35056 542.677 1.89186 542.205 1.32603 542.205C0.760205 542.205 0.301514 542.677 0.301514 543.26C0.301514 543.843 0.760205 544.316 1.32603 544.316Z" fill="#4181E0"/>
<path d="M14.6894 544.316C15.2552 544.316 15.7139 543.843 15.7139 543.26C15.7139 542.677 15.2552 542.205 14.6894 542.205C14.1235 542.205 13.6648 542.677 13.6648 543.26C13.6648 543.843 14.1235 544.316 14.6894 544.316Z" fill="#4181E0"/>
<path d="M2.35056 556.904C2.35056 557.113 2.29044 557.317 2.17789 557.49C2.06531 557.664 1.90531 557.8 1.7181 557.879C1.5309 557.959 1.32489 557.98 1.12615 557.939C0.927422 557.898 0.744876 557.798 0.601589 557.651C0.458308 557.503 0.360731 557.315 0.321203 557.11C0.281667 556.905 0.301958 556.694 0.3795 556.5C0.457042 556.308 0.588356 556.143 0.756836 556.027C0.925316 555.911 1.1234 555.849 1.32603 555.849C1.59775 555.849 1.85834 555.96 2.05047 556.158C2.24263 556.356 2.35056 556.625 2.35056 556.904Z" fill="#4181E0"/>
<path d="M15.7136 556.904C15.7136 557.113 15.6535 557.317 15.5409 557.49C15.4283 557.664 15.2683 557.8 15.0811 557.879C14.8939 557.959 14.6879 557.98 14.4892 557.939C14.2904 557.898 14.1079 557.798 13.9646 557.651C13.8213 557.503 13.7238 557.315 13.6842 557.11C13.6447 556.905 13.665 556.694 13.7425 556.5C13.8201 556.308 13.9514 556.143 14.1198 556.027C14.2884 555.911 14.4864 555.849 14.6891 555.849C14.8236 555.849 14.9568 555.876 15.0811 555.93C15.2054 555.982 15.3184 556.06 15.4135 556.158C15.5086 556.256 15.5841 556.373 15.6356 556.5C15.6871 556.628 15.7136 556.766 15.7136 556.904Z" fill="#4181E0"/>
<path d="M2.35056 570.549C2.35041 570.758 2.2903 570.961 2.17767 571.135C2.06501 571.309 1.90497 571.444 1.71776 571.524C1.53054 571.604 1.32456 571.624 1.12586 571.583C0.92715 571.543 0.744653 571.442 0.601415 571.295C0.458184 571.147 0.360651 570.959 0.321165 570.754C0.281672 570.55 0.301991 570.337 0.379547 570.145C0.457103 569.952 0.588417 569.787 0.756891 569.671C0.925357 569.555 1.12342 569.494 1.32603 569.494C1.59779 569.494 1.85838 569.605 2.0505 569.803C2.24263 570 2.35056 570.269 2.35056 570.549Z" fill="#4181E0"/>
<path d="M15.7136 570.549C15.7135 570.758 15.6533 570.961 15.5407 571.135C15.4281 571.309 15.268 571.444 15.0808 571.524C14.8935 571.604 14.6876 571.624 14.4889 571.583C14.2902 571.543 14.1077 571.442 13.9645 571.295C13.8212 571.147 13.7237 570.959 13.6842 570.754C13.6447 570.55 13.665 570.337 13.7425 570.145C13.8201 569.952 13.9514 569.787 14.1199 569.671C14.2884 569.555 14.4864 569.494 14.6891 569.494C14.8236 569.494 14.9569 569.521 15.0812 569.573C15.2056 569.627 15.3185 569.705 15.4137 569.803C15.5088 569.901 15.5843 570.017 15.6357 570.145C15.6872 570.273 15.7136 570.411 15.7136 570.549Z" fill="#4181E0"/>
<path d="M26.4543 530.672C27.0201 530.672 27.4788 530.199 27.4788 529.616C27.4788 529.033 27.0201 528.561 26.4543 528.561C25.8884 528.561 25.4297 529.033 25.4297 529.616C25.4297 530.199 25.8884 530.672 26.4543 530.672Z" fill="#4181E0"/>
<path d="M39.8175 530.672C40.3834 530.672 40.842 530.199 40.842 529.616C40.842 529.033 40.3834 528.561 39.8175 528.561C39.2517 528.561 38.793 529.033 38.793 529.616C38.793 530.199 39.2517 530.672 39.8175 530.672Z" fill="#4181E0"/>
<path d="M53.1808 530.672C53.7466 530.672 54.2053 530.199 54.2053 529.616C54.2053 529.033 53.7466 528.561 53.1808 528.561C52.615 528.561 52.1562 529.033 52.1562 529.616C52.1562 530.199 52.615 530.672 53.1808 530.672Z" fill="#4181E0"/>
<path d="M66.5443 530.672C67.1099 530.672 67.5688 530.199 67.5688 529.616C67.5688 529.033 67.1099 528.561 66.5443 528.561C65.9785 528.561 65.5198 529.033 65.5198 529.616C65.5198 530.199 65.9785 530.672 66.5443 530.672Z" fill="#4181E0"/>
<path d="M26.4543 544.316C27.0201 544.316 27.4788 543.843 27.4788 543.26C27.4788 542.677 27.0201 542.205 26.4543 542.205C25.8884 542.205 25.4297 542.677 25.4297 543.26C25.4297 543.843 25.8884 544.316 26.4543 544.316Z" fill="#4181E0"/>
<path d="M39.8175 544.316C40.3834 544.316 40.842 543.843 40.842 543.26C40.842 542.677 40.3834 542.205 39.8175 542.205C39.2517 542.205 38.793 542.677 38.793 543.26C38.793 543.843 39.2517 544.316 39.8175 544.316Z" fill="#4181E0"/>
<path d="M53.1808 544.316C53.7466 544.316 54.2053 543.843 54.2053 543.26C54.2053 542.677 53.7466 542.205 53.1808 542.205C52.615 542.205 52.1562 542.677 52.1562 543.26C52.1562 543.843 52.615 544.316 53.1808 544.316Z" fill="#4181E0"/>
<path d="M66.5443 544.316C67.1099 544.316 67.5688 543.843 67.5688 543.26C67.5688 542.677 67.1099 542.205 66.5443 542.205C65.9785 542.205 65.5198 542.677 65.5198 543.26C65.5198 543.843 65.9785 544.316 66.5443 544.316Z" fill="#4181E0"/>
<path d="M27.4787 556.904C27.4787 557.113 27.4186 557.317 27.306 557.49C27.1935 557.664 27.0335 557.8 26.8462 557.879C26.659 557.959 26.4531 557.98 26.2543 557.939C26.0556 557.898 25.873 557.798 25.7297 557.651C25.5864 557.503 25.4889 557.315 25.4493 557.11C25.4099 556.905 25.4301 556.694 25.5077 556.5C25.5852 556.308 25.7165 556.143 25.885 556.027C26.0534 555.911 26.2516 555.849 26.4542 555.849C26.7259 555.849 26.9865 555.96 27.1786 556.158C27.3708 556.356 27.4787 556.625 27.4787 556.904Z" fill="#4181E0"/>
<path d="M40.842 556.904C40.842 557.113 40.7819 557.317 40.6693 557.49C40.5568 557.664 40.3968 557.8 40.2095 557.879C40.0223 557.959 39.8164 557.98 39.6176 557.939C39.4189 557.898 39.2363 557.798 39.093 557.651C38.9497 557.503 38.8522 557.315 38.8126 557.11C38.7731 556.905 38.7934 556.694 38.871 556.5C38.9485 556.308 39.0798 556.143 39.2483 556.027C39.4167 555.911 39.6149 555.849 39.8175 555.849C40.0892 555.849 40.3498 555.96 40.5419 556.158C40.7341 556.356 40.842 556.625 40.842 556.904Z" fill="#4181E0"/>
<path d="M54.2053 556.904C54.2053 557.113 54.1451 557.317 54.0326 557.49C53.92 557.664 53.76 557.8 53.5729 557.879C53.3856 557.959 53.1796 557.98 52.9809 557.939C52.7821 557.898 52.5996 557.798 52.4563 557.651C52.313 557.503 52.2155 557.315 52.1759 557.11C52.1364 556.905 52.1567 556.694 52.2342 556.5C52.3118 556.308 52.4431 556.143 52.6115 556.027C52.7801 555.911 52.9781 555.849 53.1808 555.849C53.4525 555.849 53.7131 555.96 53.9052 556.158C54.0973 556.356 54.2053 556.625 54.2053 556.904Z" fill="#4181E0"/>
<path d="M67.5681 556.904C67.5681 557.113 67.5083 557.317 67.3959 557.49C67.2828 557.664 67.1234 557.8 66.9356 557.879C66.7485 557.959 66.5429 557.98 66.3437 557.939C66.1452 557.898 65.9626 557.798 65.8193 557.651C65.6761 557.503 65.5785 557.315 65.539 557.11C65.4994 556.905 65.5197 556.694 65.5973 556.5C65.6748 556.308 65.8061 556.143 65.9746 556.027C66.1431 555.911 66.3408 555.849 66.5436 555.849C66.678 555.849 66.8118 555.876 66.9356 555.93C67.0601 555.982 67.1732 556.06 67.2685 556.158C67.3632 556.256 67.4386 556.373 67.4905 556.5C67.5417 556.628 67.5681 556.766 67.5681 556.904Z" fill="#4181E0"/>
<path d="M27.4787 570.549C27.4786 570.758 27.4184 570.961 27.3058 571.135C27.1932 571.309 27.0331 571.444 26.8459 571.524C26.6587 571.604 26.4527 571.624 26.254 571.583C26.0553 571.543 25.8728 571.442 25.7296 571.295C25.5864 571.147 25.4888 570.959 25.4493 570.754C25.4099 570.55 25.4301 570.337 25.5077 570.145C25.5852 569.952 25.7166 569.787 25.885 569.671C26.0535 569.555 26.2516 569.494 26.4542 569.494C26.5887 569.494 26.722 569.521 26.8464 569.573C26.9707 569.627 27.0836 569.705 27.1788 569.803C27.274 569.901 27.3494 570.017 27.4009 570.145C27.4523 570.273 27.4788 570.411 27.4787 570.549Z" fill="#4181E0"/>
<path d="M40.842 570.549C40.8419 570.758 40.7817 570.961 40.6691 571.135C40.5565 571.309 40.3964 571.444 40.2092 571.524C40.022 571.604 39.816 571.624 39.6173 571.583C39.4186 571.543 39.2361 571.442 39.0929 571.295C38.9497 571.147 38.8521 570.959 38.8126 570.754C38.7731 570.55 38.7934 570.337 38.871 570.145C38.9485 569.952 39.0798 569.787 39.2483 569.671C39.4168 569.555 39.6149 569.494 39.8175 569.494C39.952 569.494 40.0853 569.521 40.2096 569.573C40.334 569.627 40.4469 569.705 40.5421 569.803C40.6372 569.901 40.7126 570.017 40.7642 570.145C40.8156 570.273 40.8421 570.411 40.842 570.549Z" fill="#4181E0"/>
<path d="M54.2053 570.549C54.2052 570.758 54.145 570.961 54.0324 571.135C53.9198 571.309 53.7597 571.444 53.5725 571.524C53.3852 571.604 53.1793 571.624 52.9806 571.583C52.7819 571.543 52.5994 571.442 52.4561 571.295C52.3129 571.147 52.2154 570.959 52.1759 570.754C52.1364 570.55 52.1567 570.337 52.2342 570.145C52.3118 569.952 52.4431 569.787 52.6116 569.671C52.7801 569.555 52.9781 569.494 53.1808 569.494C53.4525 569.494 53.7131 569.605 53.9052 569.803C54.0973 570 54.2053 570.269 54.2053 570.549Z" fill="#4181E0"/>
<path d="M67.5681 570.549C67.5681 570.758 67.5083 570.961 67.3952 571.135C67.2828 571.309 67.1227 571.444 66.9356 571.524C66.7485 571.604 66.5422 571.624 66.3437 571.583C66.1449 571.543 65.9624 571.442 65.8192 571.295C65.676 571.147 65.5784 570.959 65.5389 570.754C65.4995 570.55 65.5197 570.337 65.5973 570.145C65.6749 569.952 65.8062 569.787 65.9746 569.671C66.1431 569.555 66.3415 569.494 66.5436 569.494C66.6781 569.494 66.8118 569.521 66.9363 569.573C67.0601 569.627 67.1732 569.705 67.2686 569.803C67.3639 569.901 67.4393 570.017 67.4906 570.145C67.5418 570.273 67.5681 570.411 67.5681 570.549Z" fill="#4181E0"/>
<path d="M26.4543 584.222C27.0201 584.222 27.4788 583.749 27.4788 583.166C27.4788 582.583 27.0201 582.111 26.4543 582.111C25.8884 582.111 25.4297 582.583 25.4297 583.166C25.4297 583.749 25.8884 584.222 26.4543 584.222Z" fill="#4181E0"/>
<path d="M39.8175 584.222C40.3834 584.222 40.842 583.749 40.842 583.166C40.842 582.583 40.3834 582.111 39.8175 582.111C39.2517 582.111 38.793 582.583 38.793 583.166C38.793 583.749 39.2517 584.222 39.8175 584.222Z" fill="#4181E0"/>
<path d="M53.1808 584.222C53.7466 584.222 54.2053 583.749 54.2053 583.166C54.2053 582.583 53.7466 582.111 53.1808 582.111C52.615 582.111 52.1562 582.583 52.1562 583.166C52.1562 583.749 52.615 584.222 53.1808 584.222Z" fill="#4181E0"/>
<path d="M66.5443 584.222C67.1099 584.222 67.5688 583.749 67.5688 583.166C67.5688 582.583 67.1099 582.111 66.5443 582.111C65.9785 582.111 65.5198 582.583 65.5198 583.166C65.5198 583.749 65.9785 584.222 66.5443 584.222Z" fill="#4181E0"/>
<path d="M26.4543 597.866C27.0201 597.866 27.4788 597.393 27.4788 596.81C27.4788 596.227 27.0201 595.755 26.4543 595.755C25.8884 595.755 25.4297 596.227 25.4297 596.81C25.4297 597.393 25.8884 597.866 26.4543 597.866Z" fill="#4181E0"/>
<path d="M39.8175 597.866C40.3834 597.866 40.842 597.393 40.842 596.81C40.842 596.227 40.3834 595.755 39.8175 595.755C39.2517 595.755 38.793 596.227 38.793 596.81C38.793 597.393 39.2517 597.866 39.8175 597.866Z" fill="#4181E0"/>
<path d="M53.1808 597.866C53.7466 597.866 54.2053 597.393 54.2053 596.81C54.2053 596.227 53.7466 595.755 53.1808 595.755C52.615 595.755 52.1562 596.227 52.1562 596.81C52.1562 597.393 52.615 597.866 53.1808 597.866Z" fill="#4181E0"/>
<path d="M66.5443 597.866C67.1099 597.866 67.5688 597.393 67.5688 596.81C67.5688 596.227 67.1099 595.755 66.5443 595.755C65.9785 595.755 65.5198 596.227 65.5198 596.81C65.5198 597.393 65.9785 597.866 66.5443 597.866Z" fill="#4181E0"/>
<path d="M27.4787 610.454C27.4787 610.663 27.4186 610.867 27.3061 611.041C27.1935 611.215 27.0335 611.349 26.8463 611.429C26.6591 611.509 26.4531 611.53 26.2543 611.489C26.0556 611.449 25.8731 611.348 25.7298 611.201C25.5865 611.053 25.4889 610.865 25.4494 610.66C25.4098 610.456 25.4302 610.243 25.5076 610.051C25.5852 609.858 25.7165 609.693 25.885 609.577C26.0535 609.461 26.2516 609.399 26.4542 609.399C26.7259 609.399 26.9866 609.51 27.1787 609.708C27.3708 609.906 27.4787 610.175 27.4787 610.454Z" fill="#4181E0"/>
<path d="M40.842 610.454C40.842 610.663 40.7819 610.867 40.6694 611.041C40.5568 611.215 40.3968 611.349 40.2095 611.429C40.0224 611.509 39.8164 611.53 39.6176 611.489C39.4189 611.449 39.2363 611.348 39.093 611.201C38.9498 611.053 38.8522 610.865 38.8127 610.66C38.7731 610.456 38.7934 610.243 38.871 610.051C38.9485 609.858 39.0798 609.693 39.2483 609.577C39.4168 609.461 39.6148 609.399 39.8175 609.399C40.0892 609.399 40.3498 609.51 40.5419 609.708C40.7341 609.906 40.842 610.175 40.842 610.454Z" fill="#4181E0"/>
<path d="M54.2053 610.454C54.2053 610.663 54.1451 610.867 54.0326 611.041C53.92 611.215 53.76 611.349 53.5728 611.429C53.3856 611.509 53.1796 611.53 52.9809 611.489C52.7821 611.449 52.5996 611.348 52.4563 611.201C52.313 611.053 52.2155 610.865 52.1759 610.66C52.1364 610.456 52.1567 610.243 52.2342 610.051C52.3117 609.858 52.4431 609.693 52.6115 609.577C52.78 609.461 52.9781 609.399 53.1808 609.399C53.4525 609.399 53.7131 609.51 53.9052 609.708C54.0973 609.906 54.2053 610.175 54.2053 610.454Z" fill="#4181E0"/>
<path d="M67.5681 610.454C67.5681 610.663 67.5083 610.867 67.3959 611.041C67.2828 611.215 67.1227 611.349 66.9356 611.429C66.7485 611.509 66.5429 611.53 66.3437 611.489C66.1452 611.449 65.9626 611.348 65.8193 611.201C65.676 611.053 65.5785 610.865 65.5389 610.66C65.4995 610.456 65.5197 610.243 65.5973 610.051C65.6748 609.858 65.8061 609.693 65.9746 609.577C66.1431 609.461 66.3408 609.399 66.5436 609.399C66.6781 609.399 66.8118 609.427 66.9356 609.479C67.0601 609.532 67.1732 609.611 67.2686 609.708C67.3632 609.806 67.4386 609.923 67.4906 610.051C67.5418 610.179 67.5681 610.316 67.5681 610.454Z" fill="#4181E0"/>
<path d="M27.4787 624.099C27.4786 624.308 27.4185 624.512 27.3059 624.686C27.1932 624.86 27.0332 624.994 26.846 625.074C26.6587 625.154 26.4527 625.175 26.254 625.134C26.0553 625.093 25.8728 624.993 25.7296 624.845C25.5863 624.698 25.4889 624.51 25.4494 624.305C25.4098 624.1 25.4302 623.888 25.5077 623.695C25.5853 623.502 25.7166 623.338 25.8851 623.222C26.0535 623.106 26.2516 623.044 26.4542 623.044C26.5888 623.044 26.722 623.071 26.8464 623.125C26.9707 623.177 27.0837 623.255 27.1788 623.353C27.274 623.451 27.3494 623.568 27.4009 623.696C27.4523 623.824 27.4788 623.961 27.4787 624.099Z" fill="#4181E0"/>
<path d="M40.842 624.099C40.8419 624.308 40.7818 624.512 40.6691 624.686C40.5564 624.86 40.3964 624.994 40.2093 625.074C40.022 625.154 39.816 625.175 39.6173 625.134C39.4186 625.093 39.2361 624.993 39.0929 624.845C38.9496 624.698 38.8521 624.51 38.8127 624.305C38.7731 624.1 38.7934 623.888 38.871 623.695C38.9485 623.502 39.0799 623.338 39.2484 623.222C39.4168 623.106 39.6149 623.044 39.8175 623.044C39.9521 623.044 40.0853 623.071 40.2097 623.125C40.334 623.177 40.447 623.255 40.5421 623.353C40.6373 623.451 40.7127 623.568 40.7642 623.696C40.8156 623.824 40.8421 623.961 40.842 624.099Z" fill="#4181E0"/>
<path d="M54.2053 624.099C54.2052 624.308 54.145 624.512 54.0324 624.686C53.9198 624.86 53.7597 624.994 53.5725 625.074C53.3853 625.154 53.1793 625.175 52.9806 625.134C52.7819 625.093 52.5994 624.993 52.4562 624.845C52.313 624.698 52.2154 624.51 52.1759 624.305C52.1364 624.1 52.1567 623.888 52.2343 623.695C52.3118 623.502 52.4432 623.338 52.6116 623.222C52.7801 623.106 52.9782 623.044 53.1808 623.044C53.4526 623.044 53.7131 623.155 53.9052 623.353C54.0974 623.552 54.2053 623.82 54.2053 624.099Z" fill="#4181E0"/>
<path d="M67.5681 624.099C67.5681 624.308 67.5083 624.512 67.3952 624.686C67.2828 624.86 67.1227 624.994 66.9356 625.074C66.7485 625.154 66.5422 625.175 66.3437 625.134C66.1449 625.093 65.9624 624.993 65.8192 624.845C65.676 624.698 65.5784 624.51 65.5389 624.305C65.4995 624.1 65.5197 623.888 65.5973 623.695C65.6749 623.502 65.8062 623.338 65.9746 623.222C66.1431 623.106 66.3415 623.044 66.5436 623.044C66.6781 623.044 66.8118 623.071 66.9363 623.125C67.0601 623.177 67.1732 623.255 67.2686 623.353C67.3639 623.451 67.4393 623.568 67.4906 623.696C67.5418 623.824 67.5681 623.961 67.5681 624.099Z" fill="#4181E0"/>
<path d="M1.32603 584.222C1.89186 584.222 2.35056 583.749 2.35056 583.166C2.35056 582.583 1.89186 582.111 1.32603 582.111C0.760205 582.111 0.301514 582.583 0.301514 583.166C0.301514 583.749 0.760205 584.222 1.32603 584.222Z" fill="#4181E0"/>
<path d="M14.6894 584.222C15.2552 584.222 15.7139 583.749 15.7139 583.166C15.7139 582.583 15.2552 582.111 14.6894 582.111C14.1235 582.111 13.6648 582.583 13.6648 583.166C13.6648 583.749 14.1235 584.222 14.6894 584.222Z" fill="#4181E0"/>
<path d="M1.32603 597.866C1.89186 597.866 2.35056 597.393 2.35056 596.81C2.35056 596.227 1.89186 595.755 1.32603 595.755C0.760205 595.755 0.301514 596.227 0.301514 596.81C0.301514 597.393 0.760205 597.866 1.32603 597.866Z" fill="#4181E0"/>
<path d="M14.6894 597.866C15.2552 597.866 15.7139 597.393 15.7139 596.81C15.7139 596.227 15.2552 595.755 14.6894 595.755C14.1235 595.755 13.6648 596.227 13.6648 596.81C13.6648 597.393 14.1235 597.866 14.6894 597.866Z" fill="#4181E0"/>
<path d="M2.35056 610.454C2.35056 610.663 2.29044 610.867 2.17789 611.041C2.06531 611.215 1.90531 611.349 1.7181 611.429C1.5309 611.509 1.32489 611.53 1.12615 611.489C0.927422 611.449 0.744876 611.348 0.601589 611.201C0.458308 611.053 0.360731 610.865 0.321203 610.66C0.281667 610.456 0.301958 610.243 0.3795 610.051C0.457042 609.858 0.588356 609.693 0.756836 609.577C0.925316 609.461 1.1234 609.399 1.32603 609.399C1.59775 609.399 1.85834 609.51 2.05047 609.708C2.24263 609.906 2.35056 610.175 2.35056 610.454Z" fill="#4181E0"/>
<path d="M15.7136 610.454C15.7136 610.663 15.6535 610.867 15.5409 611.041C15.4283 611.215 15.2683 611.349 15.0811 611.429C14.8939 611.509 14.6879 611.53 14.4892 611.489C14.2904 611.449 14.1079 611.348 13.9646 611.201C13.8213 611.053 13.7238 610.865 13.6842 610.66C13.6447 610.456 13.665 610.243 13.7425 610.051C13.8201 609.858 13.9514 609.693 14.1198 609.577C14.2884 609.461 14.4864 609.399 14.6891 609.399C14.8236 609.399 14.9568 609.427 15.0811 609.479C15.2054 609.532 15.3184 609.611 15.4135 609.708C15.5086 609.806 15.5841 609.923 15.6356 610.051C15.6871 610.179 15.7136 610.316 15.7136 610.454Z" fill="#4181E0"/>
<path d="M2.35056 624.099C2.35041 624.308 2.2903 624.512 2.17767 624.686C2.06501 624.86 1.90497 624.994 1.71776 625.074C1.53054 625.154 1.32456 625.175 1.12586 625.134C0.92715 625.093 0.744653 624.993 0.601415 624.845C0.458184 624.698 0.360651 624.51 0.321165 624.305C0.281672 624.1 0.301991 623.888 0.379547 623.695C0.457103 623.502 0.588417 623.338 0.756891 623.222C0.925357 623.106 1.12342 623.044 1.32603 623.044C1.59779 623.044 1.85838 623.155 2.0505 623.353C2.24263 623.552 2.35056 623.82 2.35056 624.099Z" fill="#4181E0"/>
<path d="M15.7136 624.099C15.7135 624.308 15.6533 624.512 15.5407 624.686C15.4281 624.86 15.268 624.994 15.0808 625.074C14.8935 625.154 14.6876 625.175 14.4889 625.134C14.2902 625.093 14.1077 624.993 13.9645 624.845C13.8212 624.698 13.7237 624.51 13.6842 624.305C13.6447 624.1 13.665 623.888 13.7425 623.695C13.8201 623.502 13.9514 623.338 14.1199 623.222C14.2884 623.106 14.4864 623.044 14.6891 623.044C14.8236 623.044 14.9569 623.071 15.0812 623.125C15.2056 623.177 15.3185 623.255 15.4137 623.353C15.5088 623.451 15.5843 623.568 15.6357 623.696C15.6872 623.824 15.7136 623.961 15.7136 624.099Z" fill="#4181E0"/>
<path d="M1.32603 637.772C1.89186 637.772 2.35056 637.299 2.35056 636.717C2.35056 636.134 1.89186 635.662 1.32603 635.662C0.760205 635.662 0.301514 636.134 0.301514 636.717C0.301514 637.299 0.760205 637.772 1.32603 637.772Z" fill="#4181E0"/>
<path d="M14.6894 637.772C15.2552 637.772 15.7139 637.299 15.7139 636.717C15.7139 636.134 15.2552 635.662 14.6894 635.662C14.1235 635.662 13.6648 636.134 13.6648 636.717C13.6648 637.299 14.1235 637.772 14.6894 637.772Z" fill="#4181E0"/>
<path d="M1.32603 651.416C1.89186 651.416 2.35056 650.943 2.35056 650.361C2.35056 649.778 1.89186 649.306 1.32603 649.306C0.760205 649.306 0.301514 649.778 0.301514 650.361C0.301514 650.943 0.760205 651.416 1.32603 651.416Z" fill="#4181E0"/>
<path d="M14.6894 651.416C15.2552 651.416 15.7139 650.943 15.7139 650.361C15.7139 649.778 15.2552 649.306 14.6894 649.306C14.1235 649.306 13.6648 649.778 13.6648 650.361C13.6648 650.943 14.1235 651.416 14.6894 651.416Z" fill="#4181E0"/>
<path d="M26.4543 637.772C27.0201 637.772 27.4788 637.299 27.4788 636.717C27.4788 636.134 27.0201 635.662 26.4543 635.662C25.8884 635.662 25.4297 636.134 25.4297 636.717C25.4297 637.299 25.8884 637.772 26.4543 637.772Z" fill="#4181E0"/>
<path d="M39.8175 637.772C40.3834 637.772 40.842 637.299 40.842 636.717C40.842 636.134 40.3834 635.662 39.8175 635.662C39.2517 635.662 38.793 636.134 38.793 636.717C38.793 637.299 39.2517 637.772 39.8175 637.772Z" fill="#4181E0"/>
<path d="M53.1808 637.772C53.7466 637.772 54.2053 637.299 54.2053 636.717C54.2053 636.134 53.7466 635.662 53.1808 635.662C52.615 635.662 52.1562 636.134 52.1562 636.717C52.1562 637.299 52.615 637.772 53.1808 637.772Z" fill="#4181E0"/>
<path d="M66.5443 637.772C67.1099 637.772 67.5688 637.299 67.5688 636.717C67.5688 636.134 67.1099 635.662 66.5443 635.662C65.9785 635.662 65.5198 636.134 65.5198 636.717C65.5198 637.299 65.9785 637.772 66.5443 637.772Z" fill="#4181E0"/>
<path d="M26.4543 651.416C27.0201 651.416 27.4788 650.943 27.4788 650.361C27.4788 649.778 27.0201 649.306 26.4543 649.306C25.8884 649.306 25.4297 649.778 25.4297 650.361C25.4297 650.943 25.8884 651.416 26.4543 651.416Z" fill="#4181E0"/>
<path d="M39.8175 651.416C40.3834 651.416 40.842 650.943 40.842 650.361C40.842 649.778 40.3834 649.306 39.8175 649.306C39.2517 649.306 38.793 649.778 38.793 650.361C38.793 650.943 39.2517 651.416 39.8175 651.416Z" fill="#4181E0"/>
<path d="M53.1808 651.416C53.7466 651.416 54.2053 650.943 54.2053 650.361C54.2053 649.778 53.7466 649.306 53.1808 649.306C52.615 649.306 52.1562 649.778 52.1562 650.361C52.1562 650.943 52.615 651.416 53.1808 651.416Z" fill="#4181E0"/>
<path d="M66.5443 651.416C67.1099 651.416 67.5688 650.943 67.5688 650.361C67.5688 649.778 67.1099 649.306 66.5443 649.306C65.9785 649.306 65.5198 649.778 65.5198 650.361C65.5198 650.943 65.9785 651.416 66.5443 651.416Z" fill="#4181E0"/>
<path d="M1308.96 197.671C1309.79 197.671 1310.46 196.98 1310.46 196.127C1310.46 195.273 1309.79 194.582 1308.96 194.582C1308.13 194.582 1307.46 195.273 1307.46 196.127C1307.46 196.98 1308.13 197.671 1308.96 197.671Z" fill="#4181E0" fill-opacity="0.34"/>
<path d="M1328.53 197.671C1329.36 197.671 1330.03 196.98 1330.03 196.127C1330.03 195.273 1329.36 194.582 1328.53 194.582C1327.7 194.582 1327.03 195.273 1327.03 196.127C1327.03 196.98 1327.7 197.671 1328.53 197.671Z" fill="#4181E0" fill-opacity="0.34"/>
<path d="M1348.1 197.671C1348.93 197.671 1349.6 196.98 1349.6 196.127C1349.6 195.273 1348.93 194.582 1348.1 194.582C1347.28 194.582 1346.6 195.273 1346.6 196.127C1346.6 196.98 1347.28 197.671 1348.1 197.671Z" fill="#4181E0" fill-opacity="0.34"/>
<path d="M1308.96 217.643C1309.79 217.643 1310.46 216.952 1310.46 216.099C1310.46 215.246 1309.79 214.554 1308.96 214.554C1308.13 214.554 1307.46 215.246 1307.46 216.099C1307.46 216.952 1308.13 217.643 1308.96 217.643Z" fill="#4181E0" fill-opacity="0.34"/>
<path d="M1328.53 217.643C1329.36 217.643 1330.03 216.952 1330.03 216.099C1330.03 215.246 1329.36 214.554 1328.53 214.554C1327.7 214.554 1327.03 215.246 1327.03 216.099C1327.03 216.952 1327.7 217.643 1328.53 217.643Z" fill="#4181E0" fill-opacity="0.34"/>
<path d="M1348.1 217.643C1348.93 217.643 1349.6 216.952 1349.6 216.099C1349.6 215.246 1348.93 214.554 1348.1 214.554C1347.28 214.554 1346.6 215.246 1346.6 216.099C1346.6 216.952 1347.28 217.643 1348.1 217.643Z" fill="#4181E0" fill-opacity="0.34"/>
<path d="M1310.46 236.071C1310.46 236.376 1310.37 236.675 1310.21 236.929C1310.05 237.184 1309.81 237.381 1309.53 237.498C1309.26 237.615 1308.96 237.646 1308.66 237.586C1308.37 237.526 1308.11 237.379 1307.9 237.163C1307.69 236.947 1307.55 236.672 1307.49 236.372C1307.43 236.073 1307.46 235.762 1307.58 235.48C1307.69 235.198 1307.88 234.956 1308.12 234.786C1308.37 234.617 1308.66 234.526 1308.96 234.526C1309.36 234.526 1309.74 234.689 1310.02 234.979C1310.3 235.268 1310.46 235.662 1310.46 236.071Z" fill="#4181E0" fill-opacity="0.34"/>
<path d="M1330.03 236.071C1330.03 236.376 1329.94 236.675 1329.78 236.929C1329.61 237.184 1329.38 237.381 1329.11 237.498C1328.83 237.615 1328.53 237.646 1328.24 237.586C1327.95 237.526 1327.68 237.379 1327.47 237.163C1327.26 236.947 1327.12 236.672 1327.06 236.372C1327 236.073 1327.03 235.762 1327.14 235.48C1327.26 235.198 1327.45 234.956 1327.7 234.786C1327.95 234.617 1328.24 234.526 1328.53 234.526C1328.93 234.526 1329.31 234.689 1329.59 234.979C1329.87 235.268 1330.03 235.662 1330.03 236.071Z" fill="#4181E0" fill-opacity="0.34"/>
<path d="M1349.6 236.071C1349.6 236.376 1349.52 236.675 1349.35 236.929C1349.18 237.184 1348.95 237.381 1348.68 237.498C1348.4 237.615 1348.1 237.646 1347.81 237.586C1347.52 237.526 1347.25 237.379 1347.04 237.163C1346.83 236.947 1346.69 236.672 1346.63 236.372C1346.57 236.073 1346.6 235.762 1346.71 235.48C1346.83 235.198 1347.02 234.956 1347.27 234.786C1347.52 234.617 1347.8 234.526 1348.1 234.526C1348.5 234.526 1348.88 234.689 1349.16 234.979C1349.45 235.268 1349.6 235.662 1349.6 236.071Z" fill="#4181E0" fill-opacity="0.34"/>
<path d="M1310.46 256.044C1310.46 256.35 1310.37 256.649 1310.21 256.902C1310.05 257.156 1309.81 257.354 1309.53 257.471C1309.26 257.588 1308.96 257.618 1308.66 257.558C1308.37 257.499 1308.11 257.352 1307.9 257.136C1307.69 256.92 1307.55 256.644 1307.49 256.345C1307.43 256.045 1307.46 255.735 1307.58 255.453C1307.69 255.17 1307.88 254.929 1308.12 254.759C1308.37 254.59 1308.66 254.499 1308.96 254.499C1309.16 254.499 1309.36 254.539 1309.53 254.617C1309.72 254.695 1309.88 254.808 1310.02 254.952C1310.16 255.095 1310.27 255.266 1310.34 255.453C1310.42 255.641 1310.46 255.842 1310.46 256.044Z" fill="#4181E0" fill-opacity="0.34"/>
<path d="M1330.03 256.044C1330.03 256.35 1329.94 256.649 1329.78 256.902C1329.61 257.156 1329.38 257.354 1329.11 257.471C1328.83 257.588 1328.53 257.618 1328.24 257.558C1327.95 257.499 1327.68 257.352 1327.47 257.136C1327.26 256.92 1327.12 256.644 1327.06 256.345C1327 256.045 1327.03 255.735 1327.14 255.453C1327.26 255.17 1327.45 254.929 1327.7 254.759C1327.95 254.59 1328.24 254.499 1328.53 254.499C1328.73 254.499 1328.92 254.539 1329.11 254.617C1329.29 254.695 1329.45 254.808 1329.59 254.952C1329.73 255.095 1329.85 255.266 1329.92 255.453C1329.99 255.641 1330.03 255.842 1330.03 256.044Z" fill="#4181E0" fill-opacity="0.34"/>
<path d="M1349.6 256.044C1349.6 256.35 1349.52 256.649 1349.35 256.902C1349.18 257.156 1348.95 257.354 1348.68 257.471C1348.4 257.588 1348.1 257.618 1347.81 257.558C1347.52 257.499 1347.25 257.352 1347.04 257.136C1346.83 256.92 1346.69 256.644 1346.63 256.345C1346.57 256.045 1346.6 255.735 1346.71 255.453C1346.83 255.17 1347.02 254.929 1347.27 254.759C1347.52 254.59 1347.8 254.499 1348.1 254.499C1348.5 254.499 1348.88 254.662 1349.16 254.952C1349.45 255.242 1349.6 255.635 1349.6 256.044Z" fill="#4181E0" fill-opacity="0.34"/>
<path d="M1233.02 197.671C1233.84 197.671 1234.52 196.98 1234.52 196.127C1234.52 195.273 1233.84 194.582 1233.02 194.582C1232.18 194.582 1231.51 195.273 1231.51 196.127C1231.51 196.98 1232.18 197.671 1233.02 197.671Z" fill="#4181E0" fill-opacity="0.34"/>
<path d="M1252.59 197.671C1253.41 197.671 1254.09 196.98 1254.09 196.127C1254.09 195.273 1253.41 194.582 1252.59 194.582C1251.76 194.582 1251.09 195.273 1251.09 196.127C1251.09 196.98 1251.76 197.671 1252.59 197.671Z" fill="#4181E0" fill-opacity="0.34"/>
<path d="M1272.16 197.671C1272.99 197.671 1273.66 196.98 1273.66 196.127C1273.66 195.273 1272.99 194.582 1272.16 194.582C1271.33 194.582 1270.66 195.273 1270.66 196.127C1270.66 196.98 1271.33 197.671 1272.16 197.671Z" fill="#4181E0" fill-opacity="0.34"/>
<path d="M1291.73 197.671C1292.56 197.671 1293.23 196.98 1293.23 196.127C1293.23 195.273 1292.56 194.582 1291.73 194.582C1290.9 194.582 1290.23 195.273 1290.23 196.127C1290.23 196.98 1290.9 197.671 1291.73 197.671Z" fill="#4181E0" fill-opacity="0.34"/>
<path d="M1233.02 217.643C1233.84 217.643 1234.52 216.952 1234.52 216.099C1234.52 215.246 1233.84 214.554 1233.02 214.554C1232.18 214.554 1231.51 215.246 1231.51 216.099C1231.51 216.952 1232.18 217.643 1233.02 217.643Z" fill="#4181E0" fill-opacity="0.34"/>
<path d="M1252.59 217.643C1253.41 217.643 1254.09 216.952 1254.09 216.099C1254.09 215.246 1253.41 214.554 1252.59 214.554C1251.76 214.554 1251.09 215.246 1251.09 216.099C1251.09 216.952 1251.76 217.643 1252.59 217.643Z" fill="#4181E0" fill-opacity="0.34"/>
<path d="M1272.16 217.643C1272.99 217.643 1273.66 216.952 1273.66 216.099C1273.66 215.246 1272.99 214.554 1272.16 214.554C1271.33 214.554 1270.66 215.246 1270.66 216.099C1270.66 216.952 1271.33 217.643 1272.16 217.643Z" fill="#4181E0" fill-opacity="0.34"/>
<path d="M1291.73 217.643C1292.56 217.643 1293.23 216.952 1293.23 216.099C1293.23 215.246 1292.56 214.554 1291.73 214.554C1290.9 214.554 1290.23 215.246 1290.23 216.099C1290.23 216.952 1290.9 217.643 1291.73 217.643Z" fill="#4181E0" fill-opacity="0.34"/>
<path d="M1234.52 236.071C1234.52 236.376 1234.42 236.675 1234.26 236.929C1234.1 237.184 1233.86 237.381 1233.59 237.498C1233.31 237.615 1233.02 237.646 1232.72 237.586C1232.43 237.526 1232.16 237.379 1231.96 237.163C1231.74 236.947 1231.6 236.672 1231.54 236.372C1231.49 236.073 1231.51 235.762 1231.63 235.48C1231.74 235.198 1231.93 234.956 1232.18 234.786C1232.43 234.617 1232.72 234.526 1233.02 234.526C1233.41 234.526 1233.79 234.689 1234.08 234.979C1234.36 235.268 1234.52 235.662 1234.52 236.071Z" fill="#4181E0" fill-opacity="0.34"/>
<path d="M1254.09 236.071C1254.09 236.376 1254 236.675 1253.83 236.929C1253.67 237.184 1253.43 237.381 1253.16 237.498C1252.89 237.615 1252.59 237.646 1252.3 237.586C1252 237.526 1251.73 237.379 1251.53 237.163C1251.31 236.947 1251.17 236.672 1251.12 236.372C1251.06 236.073 1251.09 235.762 1251.2 235.48C1251.31 235.198 1251.51 234.956 1251.76 234.786C1252 234.617 1252.29 234.526 1252.59 234.526C1252.99 234.526 1253.36 234.689 1253.65 234.979C1253.93 235.268 1254.09 235.662 1254.09 236.071Z" fill="#4181E0" fill-opacity="0.34"/>
<path d="M1273.66 236.071C1273.66 236.376 1273.57 236.675 1273.41 236.929C1273.24 237.184 1273.01 237.381 1272.73 237.498C1272.46 237.615 1272.15 237.646 1271.87 237.586C1271.58 237.526 1271.31 237.379 1271.1 237.163C1270.89 236.947 1270.74 236.672 1270.69 236.372C1270.63 236.073 1270.66 235.762 1270.77 235.48C1270.89 235.198 1271.08 234.956 1271.33 234.786C1271.57 234.617 1271.86 234.526 1272.16 234.526C1272.56 234.526 1272.94 234.689 1273.22 234.979C1273.5 235.268 1273.66 235.662 1273.66 236.071Z" fill="#4181E0" fill-opacity="0.34"/>
<path d="M1293.23 236.071C1293.23 236.376 1293.14 236.675 1292.98 236.929C1292.81 237.184 1292.58 237.381 1292.3 237.498C1292.03 237.615 1291.73 237.646 1291.43 237.586C1291.14 237.526 1290.88 237.379 1290.67 237.163C1290.46 236.947 1290.32 236.672 1290.26 236.372C1290.2 236.073 1290.23 235.762 1290.35 235.48C1290.46 235.198 1290.65 234.956 1290.89 234.786C1291.14 234.617 1291.43 234.526 1291.73 234.526C1291.92 234.526 1292.12 234.567 1292.3 234.644C1292.49 234.722 1292.65 234.835 1292.79 234.979C1292.93 235.123 1293.04 235.292 1293.11 235.48C1293.19 235.667 1293.23 235.868 1293.23 236.071Z" fill="#4181E0" fill-opacity="0.34"/>
<path d="M1234.52 256.044C1234.52 256.35 1234.42 256.649 1234.26 256.902C1234.1 257.156 1233.86 257.354 1233.59 257.471C1233.31 257.588 1233.02 257.618 1232.72 257.558C1232.43 257.499 1232.16 257.352 1231.96 257.136C1231.74 256.92 1231.6 256.644 1231.54 256.345C1231.49 256.045 1231.51 255.735 1231.63 255.453C1231.74 255.17 1231.93 254.929 1232.18 254.759C1232.43 254.59 1232.72 254.499 1233.02 254.499C1233.21 254.499 1233.41 254.539 1233.59 254.617C1233.77 254.695 1233.93 254.808 1234.08 254.952C1234.22 255.095 1234.32 255.266 1234.4 255.453C1234.47 255.641 1234.52 255.842 1234.52 256.044Z" fill="#4181E0" fill-opacity="0.34"/>
<path d="M1254.09 256.044C1254.09 256.35 1254 256.649 1253.83 256.902C1253.67 257.156 1253.43 257.354 1253.16 257.471C1252.89 257.588 1252.58 257.618 1252.3 257.558C1252 257.499 1251.73 257.352 1251.53 257.136C1251.31 256.92 1251.17 256.644 1251.12 256.345C1251.06 256.045 1251.09 255.735 1251.2 255.453C1251.31 255.17 1251.51 254.929 1251.76 254.759C1252 254.59 1252.29 254.499 1252.59 254.499C1252.79 254.499 1252.98 254.539 1253.16 254.617C1253.34 254.695 1253.51 254.808 1253.65 254.952C1253.79 255.095 1253.9 255.266 1253.98 255.453C1254.05 255.641 1254.09 255.842 1254.09 256.044Z" fill="#4181E0" fill-opacity="0.34"/>
<path d="M1273.66 256.044C1273.66 256.35 1273.57 256.649 1273.41 256.902C1273.24 257.156 1273.01 257.354 1272.73 257.471C1272.46 257.588 1272.15 257.618 1271.86 257.558C1271.58 257.499 1271.31 257.352 1271.1 257.136C1270.89 256.92 1270.74 256.644 1270.69 256.345C1270.63 256.045 1270.66 255.735 1270.77 255.453C1270.89 255.17 1271.08 254.929 1271.33 254.759C1271.57 254.59 1271.86 254.499 1272.16 254.499C1272.56 254.499 1272.94 254.662 1273.22 254.952C1273.5 255.242 1273.66 255.635 1273.66 256.044Z" fill="#4181E0" fill-opacity="0.34"/>
<path d="M1293.23 256.044C1293.23 256.35 1293.14 256.649 1292.98 256.902C1292.81 257.156 1292.58 257.354 1292.3 257.471C1292.03 257.588 1291.73 257.618 1291.43 257.558C1291.14 257.499 1290.88 257.352 1290.67 257.136C1290.46 256.92 1290.32 256.644 1290.26 256.345C1290.2 256.045 1290.23 255.735 1290.35 255.453C1290.46 255.17 1290.65 254.929 1290.89 254.759C1291.14 254.59 1291.43 254.499 1291.73 254.499C1291.92 254.499 1292.12 254.539 1292.3 254.617C1292.49 254.695 1292.65 254.808 1292.79 254.952C1292.93 255.095 1293.04 255.266 1293.11 255.453C1293.19 255.641 1293.23 255.842 1293.23 256.044Z" fill="#4181E0" fill-opacity="0.34"/>
<path d="M1233.02 276.059C1233.84 276.059 1234.52 275.367 1234.52 274.514C1234.52 273.661 1233.84 272.969 1233.02 272.969C1232.18 272.969 1231.51 273.661 1231.51 274.514C1231.51 275.367 1232.18 276.059 1233.02 276.059Z" fill="#4181E0" fill-opacity="0.34"/>
<path d="M1252.59 276.059C1253.41 276.059 1254.09 275.367 1254.09 274.514C1254.09 273.661 1253.41 272.969 1252.59 272.969C1251.76 272.969 1251.09 273.661 1251.09 274.514C1251.09 275.367 1251.76 276.059 1252.59 276.059Z" fill="#4181E0" fill-opacity="0.34"/>
<path d="M1272.16 276.059C1272.99 276.059 1273.66 275.367 1273.66 274.514C1273.66 273.661 1272.99 272.969 1272.16 272.969C1271.33 272.969 1270.66 273.661 1270.66 274.514C1270.66 275.367 1271.33 276.059 1272.16 276.059Z" fill="#4181E0" fill-opacity="0.34"/>
<path d="M1291.73 276.059C1292.56 276.059 1293.23 275.367 1293.23 274.514C1293.23 273.661 1292.56 272.969 1291.73 272.969C1290.9 272.969 1290.23 273.661 1290.23 274.514C1290.23 275.367 1290.9 276.059 1291.73 276.059Z" fill="#4181E0" fill-opacity="0.34"/>
<path d="M1233.02 296.03C1233.84 296.03 1234.52 295.339 1234.52 294.486C1234.52 293.632 1233.84 292.941 1233.02 292.941C1232.18 292.941 1231.51 293.632 1231.51 294.486C1231.51 295.339 1232.18 296.03 1233.02 296.03Z" fill="#4181E0" fill-opacity="0.34"/>
<path d="M1252.59 296.03C1253.41 296.03 1254.09 295.339 1254.09 294.486C1254.09 293.632 1253.41 292.941 1252.59 292.941C1251.76 292.941 1251.09 293.632 1251.09 294.486C1251.09 295.339 1251.76 296.03 1252.59 296.03Z" fill="#4181E0" fill-opacity="0.34"/>
<path d="M1272.16 296.03C1272.99 296.03 1273.66 295.339 1273.66 294.486C1273.66 293.632 1272.99 292.941 1272.16 292.941C1271.33 292.941 1270.66 293.632 1270.66 294.486C1270.66 295.339 1271.33 296.03 1272.16 296.03Z" fill="#4181E0" fill-opacity="0.34"/>
<path d="M1291.73 296.03C1292.56 296.03 1293.23 295.339 1293.23 294.486C1293.23 293.632 1292.56 292.941 1291.73 292.941C1290.9 292.941 1290.23 293.632 1290.23 294.486C1290.23 295.339 1290.9 296.03 1291.73 296.03Z" fill="#4181E0" fill-opacity="0.34"/>
<path d="M1234.52 314.458C1234.52 314.763 1234.42 315.062 1234.26 315.316C1234.1 315.57 1233.86 315.768 1233.59 315.884C1233.31 316.002 1233.02 316.032 1232.72 315.972C1232.43 315.913 1232.16 315.766 1231.96 315.55C1231.74 315.334 1231.6 315.059 1231.54 314.759C1231.49 314.459 1231.51 314.149 1231.63 313.867C1231.74 313.585 1231.93 313.343 1232.18 313.173C1232.43 313.004 1232.72 312.913 1233.02 312.913C1233.41 312.913 1233.79 313.076 1234.08 313.366C1234.36 313.655 1234.52 314.048 1234.52 314.458Z" fill="#4181E0" fill-opacity="0.34"/>
<path d="M1254.09 314.458C1254.09 314.763 1254 315.062 1253.83 315.316C1253.67 315.57 1253.43 315.768 1253.16 315.884C1252.89 316.002 1252.59 316.032 1252.3 315.972C1252 315.913 1251.73 315.766 1251.53 315.55C1251.31 315.334 1251.17 315.059 1251.12 314.759C1251.06 314.459 1251.09 314.149 1251.2 313.867C1251.31 313.585 1251.51 313.343 1251.76 313.173C1252 313.004 1252.29 312.913 1252.59 312.913C1252.99 312.913 1253.36 313.076 1253.65 313.366C1253.93 313.655 1254.09 314.048 1254.09 314.458Z" fill="#4181E0" fill-opacity="0.34"/>
<path d="M1273.66 314.458C1273.66 314.763 1273.57 315.062 1273.41 315.316C1273.24 315.57 1273.01 315.768 1272.73 315.884C1272.46 316.002 1272.15 316.032 1271.87 315.972C1271.58 315.913 1271.31 315.766 1271.1 315.55C1270.89 315.334 1270.74 315.059 1270.69 314.759C1270.63 314.459 1270.66 314.149 1270.77 313.867C1270.89 313.585 1271.08 313.343 1271.33 313.173C1271.57 313.004 1271.86 312.913 1272.16 312.913C1272.56 312.913 1272.94 313.076 1273.22 313.366C1273.5 313.655 1273.66 314.048 1273.66 314.458Z" fill="#4181E0" fill-opacity="0.34"/>
<path d="M1293.23 314.458C1293.23 314.763 1293.14 315.062 1292.98 315.316C1292.81 315.57 1292.58 315.768 1292.3 315.884C1292.03 316.002 1291.73 316.032 1291.43 315.972C1291.14 315.913 1290.88 315.766 1290.67 315.55C1290.46 315.334 1290.32 315.059 1290.26 314.759C1290.2 314.459 1290.23 314.149 1290.35 313.867C1290.46 313.585 1290.65 313.343 1290.89 313.173C1291.14 313.004 1291.43 312.913 1291.73 312.913C1291.92 312.913 1292.12 312.953 1292.3 313.031C1292.49 313.109 1292.65 313.222 1292.79 313.366C1292.93 313.509 1293.04 313.679 1293.11 313.867C1293.19 314.054 1293.23 314.255 1293.23 314.458Z" fill="#4181E0" fill-opacity="0.34"/>
<path d="M1234.52 334.431C1234.52 334.737 1234.42 335.035 1234.26 335.289C1234.1 335.543 1233.86 335.741 1233.59 335.858C1233.31 335.974 1233.02 336.005 1232.72 335.945C1232.43 335.886 1232.16 335.738 1231.96 335.522C1231.74 335.306 1231.6 335.031 1231.54 334.731C1231.49 334.432 1231.51 334.121 1231.63 333.839C1231.74 333.557 1231.93 333.316 1232.18 333.146C1232.43 332.977 1232.72 332.886 1233.02 332.886C1233.21 332.886 1233.41 332.926 1233.59 333.004C1233.77 333.081 1233.93 333.195 1234.08 333.338C1234.22 333.482 1234.32 333.653 1234.4 333.84C1234.47 334.028 1234.52 334.228 1234.52 334.431Z" fill="#4181E0" fill-opacity="0.34"/>
<path d="M1254.09 334.431C1254.09 334.737 1254 335.035 1253.83 335.289C1253.67 335.543 1253.43 335.741 1253.16 335.858C1252.89 335.974 1252.58 336.005 1252.3 335.945C1252 335.886 1251.73 335.738 1251.53 335.522C1251.31 335.306 1251.17 335.031 1251.12 334.731C1251.06 334.432 1251.09 334.121 1251.2 333.839C1251.31 333.557 1251.51 333.316 1251.76 333.146C1252 332.977 1252.29 332.886 1252.59 332.886C1252.79 332.886 1252.98 332.926 1253.16 333.004C1253.34 333.081 1253.51 333.195 1253.65 333.338C1253.79 333.482 1253.9 333.653 1253.98 333.84C1254.05 334.028 1254.09 334.228 1254.09 334.431Z" fill="#4181E0" fill-opacity="0.34"/>
<path d="M1273.66 334.431C1273.66 334.737 1273.57 335.035 1273.41 335.289C1273.24 335.543 1273.01 335.741 1272.73 335.858C1272.46 335.974 1272.15 336.005 1271.86 335.945C1271.58 335.886 1271.31 335.738 1271.1 335.522C1270.89 335.306 1270.74 335.031 1270.69 334.731C1270.63 334.432 1270.66 334.121 1270.77 333.839C1270.89 333.557 1271.08 333.316 1271.33 333.146C1271.57 332.977 1271.86 332.886 1272.16 332.886C1272.56 332.886 1272.94 333.049 1273.22 333.338C1273.5 333.628 1273.66 334.022 1273.66 334.431Z" fill="#4181E0" fill-opacity="0.34"/>
<path d="M1293.23 334.431C1293.23 334.737 1293.14 335.035 1292.98 335.289C1292.81 335.543 1292.58 335.741 1292.3 335.858C1292.03 335.974 1291.73 336.005 1291.43 335.945C1291.14 335.886 1290.88 335.738 1290.67 335.522C1290.46 335.306 1290.32 335.031 1290.26 334.731C1290.2 334.432 1290.23 334.121 1290.35 333.839C1290.46 333.557 1290.65 333.316 1290.89 333.146C1291.14 332.977 1291.43 332.886 1291.73 332.886C1291.92 332.886 1292.12 332.926 1292.3 333.004C1292.49 333.081 1292.65 333.195 1292.79 333.338C1292.93 333.482 1293.04 333.653 1293.11 333.84C1293.19 334.028 1293.23 334.228 1293.23 334.431Z" fill="#4181E0" fill-opacity="0.34"/>
<path d="M1308.96 276.059C1309.79 276.059 1310.46 275.367 1310.46 274.514C1310.46 273.661 1309.79 272.969 1308.96 272.969C1308.13 272.969 1307.46 273.661 1307.46 274.514C1307.46 275.367 1308.13 276.059 1308.96 276.059Z" fill="#4181E0" fill-opacity="0.34"/>
<path d="M1328.53 276.059C1329.36 276.059 1330.03 275.367 1330.03 274.514C1330.03 273.661 1329.36 272.969 1328.53 272.969C1327.7 272.969 1327.03 273.661 1327.03 274.514C1327.03 275.367 1327.7 276.059 1328.53 276.059Z" fill="#4181E0" fill-opacity="0.34"/>
<path d="M1348.1 276.059C1348.93 276.059 1349.6 275.367 1349.6 274.514C1349.6 273.661 1348.93 272.969 1348.1 272.969C1347.28 272.969 1346.6 273.661 1346.6 274.514C1346.6 275.367 1347.28 276.059 1348.1 276.059Z" fill="#4181E0" fill-opacity="0.34"/>
<path d="M1308.96 296.03C1309.79 296.03 1310.46 295.339 1310.46 294.486C1310.46 293.632 1309.79 292.941 1308.96 292.941C1308.13 292.941 1307.46 293.632 1307.46 294.486C1307.46 295.339 1308.13 296.03 1308.96 296.03Z" fill="#4181E0" fill-opacity="0.34"/>
<path d="M1328.53 296.03C1329.36 296.03 1330.03 295.339 1330.03 294.486C1330.03 293.632 1329.36 292.941 1328.53 292.941C1327.7 292.941 1327.03 293.632 1327.03 294.486C1327.03 295.339 1327.7 296.03 1328.53 296.03Z" fill="#4181E0" fill-opacity="0.34"/>
<path d="M1348.1 296.03C1348.93 296.03 1349.6 295.339 1349.6 294.486C1349.6 293.632 1348.93 292.941 1348.1 292.941C1347.28 292.941 1346.6 293.632 1346.6 294.486C1346.6 295.339 1347.28 296.03 1348.1 296.03Z" fill="#4181E0" fill-opacity="0.34"/>
<path d="M1310.46 314.458C1310.46 314.763 1310.37 315.062 1310.21 315.316C1310.05 315.57 1309.81 315.768 1309.53 315.884C1309.26 316.002 1308.96 316.032 1308.66 315.972C1308.37 315.913 1308.11 315.766 1307.9 315.55C1307.69 315.334 1307.55 315.059 1307.49 314.759C1307.43 314.459 1307.46 314.149 1307.58 313.867C1307.69 313.585 1307.88 313.343 1308.12 313.173C1308.37 313.004 1308.66 312.913 1308.96 312.913C1309.36 312.913 1309.74 313.076 1310.02 313.366C1310.3 313.655 1310.46 314.048 1310.46 314.458Z" fill="#4181E0" fill-opacity="0.34"/>
<path d="M1330.03 314.458C1330.03 314.763 1329.94 315.062 1329.78 315.316C1329.61 315.57 1329.38 315.768 1329.11 315.884C1328.83 316.002 1328.53 316.032 1328.24 315.972C1327.95 315.913 1327.68 315.766 1327.47 315.55C1327.26 315.334 1327.12 315.059 1327.06 314.759C1327 314.459 1327.03 314.149 1327.14 313.867C1327.26 313.585 1327.45 313.343 1327.7 313.173C1327.95 313.004 1328.24 312.913 1328.53 312.913C1328.93 312.913 1329.31 313.076 1329.59 313.366C1329.87 313.655 1330.03 314.048 1330.03 314.458Z" fill="#4181E0" fill-opacity="0.34"/>
<path d="M1349.6 314.458C1349.6 314.763 1349.52 315.062 1349.35 315.316C1349.18 315.57 1348.95 315.768 1348.68 315.884C1348.4 316.002 1348.1 316.032 1347.81 315.972C1347.52 315.913 1347.25 315.766 1347.04 315.55C1346.83 315.334 1346.69 315.059 1346.63 314.759C1346.57 314.459 1346.6 314.149 1346.71 313.867C1346.83 313.585 1347.02 313.343 1347.27 313.173C1347.52 313.004 1347.8 312.913 1348.1 312.913C1348.5 312.913 1348.88 313.076 1349.16 313.366C1349.45 313.655 1349.6 314.048 1349.6 314.458Z" fill="#4181E0" fill-opacity="0.34"/>
<path d="M1310.46 334.431C1310.46 334.737 1310.37 335.035 1310.21 335.289C1310.05 335.543 1309.81 335.741 1309.53 335.858C1309.26 335.974 1308.96 336.005 1308.66 335.945C1308.37 335.886 1308.11 335.738 1307.9 335.522C1307.69 335.306 1307.55 335.031 1307.49 334.731C1307.43 334.432 1307.46 334.121 1307.58 333.839C1307.69 333.557 1307.88 333.316 1308.12 333.146C1308.37 332.977 1308.66 332.886 1308.96 332.886C1309.16 332.886 1309.36 332.926 1309.53 333.004C1309.72 333.081 1309.88 333.195 1310.02 333.338C1310.16 333.482 1310.27 333.653 1310.34 333.84C1310.42 334.028 1310.46 334.228 1310.46 334.431Z" fill="#4181E0" fill-opacity="0.34"/>
<path d="M1330.03 334.431C1330.03 334.737 1329.94 335.035 1329.78 335.289C1329.61 335.543 1329.38 335.741 1329.11 335.858C1328.83 335.974 1328.53 336.005 1328.24 335.945C1327.95 335.886 1327.68 335.738 1327.47 335.522C1327.26 335.306 1327.12 335.031 1327.06 334.731C1327 334.432 1327.03 334.121 1327.14 333.839C1327.26 333.557 1327.45 333.316 1327.7 333.146C1327.95 332.977 1328.24 332.886 1328.53 332.886C1328.73 332.886 1328.92 332.926 1329.11 333.004C1329.29 333.081 1329.45 333.195 1329.59 333.338C1329.73 333.482 1329.85 333.653 1329.92 333.84C1329.99 334.028 1330.03 334.228 1330.03 334.431Z" fill="#4181E0" fill-opacity="0.34"/>
<path d="M1349.6 334.431C1349.6 334.737 1349.52 335.035 1349.35 335.289C1349.18 335.543 1348.95 335.741 1348.68 335.858C1348.4 335.974 1348.1 336.005 1347.81 335.945C1347.52 335.886 1347.25 335.738 1347.04 335.522C1346.83 335.306 1346.69 335.031 1346.63 334.731C1346.57 334.432 1346.6 334.121 1346.71 333.839C1346.83 333.557 1347.02 333.316 1347.27 333.146C1347.52 332.977 1347.8 332.886 1348.1 332.886C1348.5 332.886 1348.88 333.049 1349.16 333.338C1349.45 333.628 1349.6 334.022 1349.6 334.431Z" fill="#4181E0" fill-opacity="0.34"/>
<path d="M1233.02 354.445C1233.84 354.445 1234.52 353.754 1234.52 352.901C1234.52 352.047 1233.84 351.356 1233.02 351.356C1232.18 351.356 1231.51 352.047 1231.51 352.901C1231.51 353.754 1232.18 354.445 1233.02 354.445Z" fill="#4181E0" fill-opacity="0.34"/>
<path d="M1252.59 354.445C1253.41 354.445 1254.09 353.754 1254.09 352.901C1254.09 352.047 1253.41 351.356 1252.59 351.356C1251.76 351.356 1251.09 352.047 1251.09 352.901C1251.09 353.754 1251.76 354.445 1252.59 354.445Z" fill="#4181E0" fill-opacity="0.34"/>
<path d="M1272.16 354.445C1272.99 354.445 1273.66 353.754 1273.66 352.901C1273.66 352.047 1272.99 351.356 1272.16 351.356C1271.33 351.356 1270.66 352.047 1270.66 352.901C1270.66 353.754 1271.33 354.445 1272.16 354.445Z" fill="#4181E0" fill-opacity="0.34"/>
<path d="M1291.73 354.445C1292.56 354.445 1293.23 353.754 1293.23 352.901C1293.23 352.047 1292.56 351.356 1291.73 351.356C1290.9 351.356 1290.23 352.047 1290.23 352.901C1290.23 353.754 1290.9 354.445 1291.73 354.445Z" fill="#4181E0" fill-opacity="0.34"/>
<path d="M1233.02 374.417C1233.84 374.417 1234.52 373.726 1234.52 372.873C1234.52 372.02 1233.84 371.328 1233.02 371.328C1232.18 371.328 1231.51 372.02 1231.51 372.873C1231.51 373.726 1232.18 374.417 1233.02 374.417Z" fill="#4181E0" fill-opacity="0.34"/>
<path d="M1252.59 374.417C1253.41 374.417 1254.09 373.726 1254.09 372.873C1254.09 372.02 1253.41 371.328 1252.59 371.328C1251.76 371.328 1251.09 372.02 1251.09 372.873C1251.09 373.726 1251.76 374.417 1252.59 374.417Z" fill="#4181E0" fill-opacity="0.34"/>
<path d="M1272.16 374.417C1272.99 374.417 1273.66 373.726 1273.66 372.873C1273.66 372.02 1272.99 371.328 1272.16 371.328C1271.33 371.328 1270.66 372.02 1270.66 372.873C1270.66 373.726 1271.33 374.417 1272.16 374.417Z" fill="#4181E0" fill-opacity="0.34"/>
<path d="M1291.73 374.417C1292.56 374.417 1293.23 373.726 1293.23 372.873C1293.23 372.02 1292.56 371.328 1291.73 371.328C1290.9 371.328 1290.23 372.02 1290.23 372.873C1290.23 373.726 1290.9 374.417 1291.73 374.417Z" fill="#4181E0" fill-opacity="0.34"/>
<path d="M1234.52 392.844C1234.52 393.15 1234.42 393.449 1234.26 393.703C1234.1 393.957 1233.86 394.155 1233.59 394.271C1233.31 394.388 1233.02 394.419 1232.72 394.359C1232.43 394.3 1232.16 394.153 1231.96 393.936C1231.74 393.72 1231.6 393.446 1231.54 393.145C1231.49 392.846 1231.51 392.535 1231.63 392.253C1231.74 391.971 1231.93 391.73 1232.18 391.56C1232.43 391.391 1232.72 391.3 1233.02 391.3C1233.41 391.3 1233.79 391.462 1234.08 391.752C1234.36 392.042 1234.52 392.435 1234.52 392.844Z" fill="#4181E0" fill-opacity="0.34"/>
<path d="M1254.09 392.844C1254.09 393.15 1254 393.449 1253.83 393.703C1253.67 393.957 1253.43 394.155 1253.16 394.271C1252.89 394.388 1252.59 394.419 1252.3 394.359C1252 394.3 1251.73 394.153 1251.53 393.936C1251.31 393.72 1251.17 393.446 1251.12 393.145C1251.06 392.846 1251.09 392.535 1251.2 392.253C1251.31 391.971 1251.51 391.73 1251.76 391.56C1252 391.391 1252.29 391.3 1252.59 391.3C1252.99 391.3 1253.36 391.462 1253.65 391.752C1253.93 392.042 1254.09 392.435 1254.09 392.844Z" fill="#4181E0" fill-opacity="0.34"/>
<path d="M1273.66 392.844C1273.66 393.15 1273.57 393.449 1273.41 393.703C1273.24 393.957 1273.01 394.155 1272.73 394.271C1272.46 394.388 1272.15 394.419 1271.87 394.359C1271.58 394.3 1271.31 394.153 1271.1 393.936C1270.89 393.72 1270.74 393.446 1270.69 393.145C1270.63 392.846 1270.66 392.535 1270.77 392.253C1270.89 391.971 1271.08 391.73 1271.33 391.56C1271.57 391.391 1271.86 391.3 1272.16 391.3C1272.56 391.3 1272.94 391.462 1273.22 391.752C1273.5 392.042 1273.66 392.435 1273.66 392.844Z" fill="#4181E0" fill-opacity="0.34"/>
<path d="M1293.23 392.844C1293.23 393.15 1293.14 393.449 1292.98 393.703C1292.81 393.957 1292.58 394.155 1292.3 394.271C1292.03 394.388 1291.73 394.419 1291.43 394.359C1291.14 394.3 1290.88 394.153 1290.67 393.936C1290.46 393.72 1290.32 393.446 1290.26 393.145C1290.2 392.846 1290.23 392.535 1290.35 392.253C1290.46 391.971 1290.65 391.73 1290.89 391.56C1291.14 391.391 1291.43 391.3 1291.73 391.3C1291.92 391.3 1292.12 391.34 1292.3 391.418C1292.49 391.495 1292.65 391.609 1292.79 391.752C1292.93 391.896 1293.04 392.066 1293.11 392.253C1293.19 392.441 1293.23 392.642 1293.23 392.844Z" fill="#4181E0" fill-opacity="0.34"/>
<path d="M1234.52 412.818C1234.52 413.124 1234.42 413.423 1234.26 413.676C1234.1 413.93 1233.86 414.128 1233.59 414.245C1233.31 414.362 1233.02 414.392 1232.72 414.332C1232.43 414.273 1232.16 414.126 1231.96 413.91C1231.74 413.694 1231.6 413.418 1231.54 413.119C1231.49 412.819 1231.51 412.509 1231.63 412.227C1231.74 411.944 1231.93 411.703 1232.18 411.533C1232.43 411.364 1232.72 411.273 1233.02 411.273C1233.21 411.273 1233.41 411.313 1233.59 411.391C1233.77 411.469 1233.93 411.582 1234.08 411.726C1234.22 411.869 1234.32 412.04 1234.4 412.227C1234.47 412.415 1234.52 412.615 1234.52 412.818Z" fill="#4181E0" fill-opacity="0.34"/>
<path d="M1254.09 412.818C1254.09 413.124 1254 413.423 1253.83 413.676C1253.67 413.93 1253.43 414.128 1253.16 414.245C1252.89 414.362 1252.58 414.392 1252.3 414.332C1252 414.273 1251.73 414.126 1251.53 413.91C1251.31 413.694 1251.17 413.418 1251.12 413.119C1251.06 412.819 1251.09 412.509 1251.2 412.227C1251.31 411.944 1251.51 411.703 1251.76 411.533C1252 411.364 1252.29 411.273 1252.59 411.273C1252.79 411.273 1252.98 411.313 1253.16 411.391C1253.34 411.469 1253.51 411.582 1253.65 411.726C1253.79 411.869 1253.9 412.04 1253.98 412.227C1254.05 412.415 1254.09 412.615 1254.09 412.818Z" fill="#4181E0" fill-opacity="0.34"/>
<path d="M1273.66 412.818C1273.66 413.124 1273.57 413.423 1273.41 413.676C1273.24 413.93 1273.01 414.128 1272.73 414.245C1272.46 414.362 1272.15 414.392 1271.86 414.332C1271.58 414.273 1271.31 414.126 1271.1 413.91C1270.89 413.694 1270.74 413.418 1270.69 413.119C1270.63 412.819 1270.66 412.509 1270.77 412.227C1270.89 411.944 1271.08 411.703 1271.33 411.533C1271.57 411.364 1271.86 411.273 1272.16 411.273C1272.56 411.273 1272.94 411.436 1273.22 411.726C1273.5 412.016 1273.66 412.409 1273.66 412.818Z" fill="#4181E0" fill-opacity="0.34"/>
<path d="M1293.23 412.818C1293.23 413.124 1293.14 413.423 1292.98 413.676C1292.81 413.93 1292.58 414.128 1292.3 414.245C1292.03 414.362 1291.73 414.392 1291.43 414.332C1291.14 414.273 1290.88 414.126 1290.67 413.91C1290.46 413.694 1290.32 413.418 1290.26 413.119C1290.2 412.819 1290.23 412.509 1290.35 412.227C1290.46 411.944 1290.65 411.703 1290.89 411.533C1291.14 411.364 1291.43 411.273 1291.73 411.273C1291.92 411.273 1292.12 411.313 1292.3 411.391C1292.49 411.469 1292.65 411.582 1292.79 411.726C1292.93 411.869 1293.04 412.04 1293.11 412.227C1293.19 412.415 1293.23 412.615 1293.23 412.818Z" fill="#4181E0" fill-opacity="0.34"/>
<path d="M1308.96 354.445C1309.79 354.445 1310.46 353.754 1310.46 352.901C1310.46 352.047 1309.79 351.356 1308.96 351.356C1308.13 351.356 1307.46 352.047 1307.46 352.901C1307.46 353.754 1308.13 354.445 1308.96 354.445Z" fill="#4181E0" fill-opacity="0.34"/>
<path d="M1328.53 354.445C1329.36 354.445 1330.03 353.754 1330.03 352.901C1330.03 352.047 1329.36 351.356 1328.53 351.356C1327.7 351.356 1327.03 352.047 1327.03 352.901C1327.03 353.754 1327.7 354.445 1328.53 354.445Z" fill="#4181E0" fill-opacity="0.34"/>
<path d="M1348.1 354.445C1348.93 354.445 1349.6 353.754 1349.6 352.901C1349.6 352.047 1348.93 351.356 1348.1 351.356C1347.28 351.356 1346.6 352.047 1346.6 352.901C1346.6 353.754 1347.28 354.445 1348.1 354.445Z" fill="#4181E0" fill-opacity="0.34"/>
<path d="M1308.96 374.417C1309.79 374.417 1310.46 373.726 1310.46 372.873C1310.46 372.02 1309.79 371.328 1308.96 371.328C1308.13 371.328 1307.46 372.02 1307.46 372.873C1307.46 373.726 1308.13 374.417 1308.96 374.417Z" fill="#4181E0" fill-opacity="0.34"/>
<path d="M1328.53 374.417C1329.36 374.417 1330.03 373.726 1330.03 372.873C1330.03 372.02 1329.36 371.328 1328.53 371.328C1327.7 371.328 1327.03 372.02 1327.03 372.873C1327.03 373.726 1327.7 374.417 1328.53 374.417Z" fill="#4181E0" fill-opacity="0.34"/>
<path d="M1348.1 374.417C1348.93 374.417 1349.6 373.726 1349.6 372.873C1349.6 372.02 1348.93 371.328 1348.1 371.328C1347.28 371.328 1346.6 372.02 1346.6 372.873C1346.6 373.726 1347.28 374.417 1348.1 374.417Z" fill="#4181E0" fill-opacity="0.34"/>
<path d="M1310.46 392.844C1310.46 393.15 1310.37 393.449 1310.21 393.703C1310.05 393.957 1309.81 394.155 1309.53 394.271C1309.26 394.388 1308.96 394.419 1308.66 394.359C1308.37 394.3 1308.11 394.153 1307.9 393.936C1307.69 393.72 1307.55 393.446 1307.49 393.145C1307.43 392.846 1307.46 392.535 1307.58 392.253C1307.69 391.971 1307.88 391.73 1308.12 391.56C1308.37 391.391 1308.66 391.3 1308.96 391.3C1309.36 391.3 1309.74 391.462 1310.02 391.752C1310.3 392.042 1310.46 392.435 1310.46 392.844Z" fill="#4181E0" fill-opacity="0.34"/>
<path d="M1330.03 392.844C1330.03 393.15 1329.94 393.449 1329.78 393.703C1329.61 393.957 1329.38 394.155 1329.11 394.271C1328.83 394.388 1328.53 394.419 1328.24 394.359C1327.95 394.3 1327.68 394.153 1327.47 393.936C1327.26 393.72 1327.12 393.446 1327.06 393.145C1327 392.846 1327.03 392.535 1327.14 392.253C1327.26 391.971 1327.45 391.73 1327.7 391.56C1327.95 391.391 1328.24 391.3 1328.53 391.3C1328.93 391.3 1329.31 391.462 1329.59 391.752C1329.87 392.042 1330.03 392.435 1330.03 392.844Z" fill="#4181E0" fill-opacity="0.34"/>
<path d="M1349.6 392.844C1349.6 393.15 1349.52 393.449 1349.35 393.703C1349.18 393.957 1348.95 394.155 1348.68 394.271C1348.4 394.388 1348.1 394.419 1347.81 394.359C1347.52 394.3 1347.25 394.153 1347.04 393.936C1346.83 393.72 1346.69 393.446 1346.63 393.145C1346.57 392.846 1346.6 392.535 1346.71 392.253C1346.83 391.971 1347.02 391.73 1347.27 391.56C1347.52 391.391 1347.8 391.3 1348.1 391.3C1348.5 391.3 1348.88 391.462 1349.16 391.752C1349.45 392.042 1349.6 392.435 1349.6 392.844Z" fill="#4181E0" fill-opacity="0.34"/>
<path d="M1310.46 412.818C1310.46 413.124 1310.37 413.423 1310.21 413.676C1310.05 413.93 1309.81 414.128 1309.53 414.245C1309.26 414.362 1308.96 414.392 1308.66 414.332C1308.37 414.273 1308.11 414.126 1307.9 413.91C1307.69 413.694 1307.55 413.418 1307.49 413.119C1307.43 412.819 1307.46 412.509 1307.58 412.227C1307.69 411.944 1307.88 411.703 1308.12 411.533C1308.37 411.364 1308.66 411.273 1308.96 411.273C1309.16 411.273 1309.36 411.313 1309.53 411.391C1309.72 411.469 1309.88 411.582 1310.02 411.726C1310.16 411.869 1310.27 412.04 1310.34 412.227C1310.42 412.415 1310.46 412.615 1310.46 412.818Z" fill="#4181E0" fill-opacity="0.34"/>
<path d="M1330.03 412.818C1330.03 413.124 1329.94 413.423 1329.78 413.676C1329.61 413.93 1329.38 414.128 1329.11 414.245C1328.83 414.362 1328.53 414.392 1328.24 414.332C1327.95 414.273 1327.68 414.126 1327.47 413.91C1327.26 413.694 1327.12 413.418 1327.06 413.119C1327 412.819 1327.03 412.509 1327.14 412.227C1327.26 411.944 1327.45 411.703 1327.7 411.533C1327.95 411.364 1328.24 411.273 1328.53 411.273C1328.73 411.273 1328.92 411.313 1329.11 411.391C1329.29 411.469 1329.45 411.582 1329.59 411.726C1329.73 411.869 1329.85 412.04 1329.92 412.227C1329.99 412.415 1330.03 412.615 1330.03 412.818Z" fill="#4181E0" fill-opacity="0.34"/>
<path d="M1349.6 412.818C1349.6 413.124 1349.52 413.423 1349.35 413.676C1349.18 413.93 1348.95 414.128 1348.68 414.245C1348.4 414.362 1348.1 414.392 1347.81 414.332C1347.52 414.273 1347.25 414.126 1347.04 413.91C1346.83 413.694 1346.69 413.418 1346.63 413.119C1346.57 412.819 1346.6 412.509 1346.71 412.227C1346.83 411.944 1347.02 411.703 1347.27 411.533C1347.52 411.364 1347.8 411.273 1348.1 411.273C1348.5 411.273 1348.88 411.436 1349.16 411.726C1349.45 412.016 1349.6 412.409 1349.6 412.818Z" fill="#4181E0" fill-opacity="0.34"/>
</svg>
