<svg width="259" height="54" viewBox="0 0 259 54" fill="none" xmlns="http://www.w3.org/2000/svg">
<path d="M51.0586 4.46875L53.25 10.6562L55.4297 4.46875H57.7383V13H55.9746V10.668L56.1504 6.64258L53.8477 13H52.6406L50.3438 6.64844L50.5195 10.668V13H48.7617V4.46875H51.0586ZM66.1953 11.2422H63.1133L62.5273 13H60.6582L63.834 4.46875H65.4629L68.6562 13H66.7871L66.1953 11.2422ZM63.5879 9.81836H65.7207L64.6484 6.625L63.5879 9.81836ZM73.3223 13H71.5645V4.46875H73.3223V13ZM87.6113 13H81.7637V11.8398L84.5234 8.89844C84.9023 8.48438 85.1816 8.12305 85.3613 7.81445C85.5449 7.50586 85.6367 7.21289 85.6367 6.93555C85.6367 6.55664 85.541 6.25977 85.3496 6.04492C85.1582 5.82617 84.8848 5.7168 84.5293 5.7168C84.1465 5.7168 83.8438 5.84961 83.6211 6.11523C83.4023 6.37695 83.293 6.72266 83.293 7.15234H81.5938C81.5938 6.63281 81.7168 6.1582 81.9629 5.72852C82.2129 5.29883 82.5645 4.96289 83.0176 4.7207C83.4707 4.47461 83.9844 4.35156 84.5586 4.35156C85.4375 4.35156 86.1191 4.5625 86.6035 4.98438C87.0918 5.40625 87.3359 6.00195 87.3359 6.77148C87.3359 7.19336 87.2266 7.62305 87.0078 8.06055C86.7891 8.49805 86.4141 9.00781 85.8828 9.58984L83.9434 11.6348H87.6113V13ZM96.3965 9.47266C96.3965 10.6523 96.1523 11.5547 95.6641 12.1797C95.1758 12.8047 94.4609 13.1172 93.5195 13.1172C92.5898 13.1172 91.8789 12.8105 91.3867 12.1973C90.8945 11.584 90.6426 10.7051 90.6309 9.56055V7.99023C90.6309 6.79883 90.877 5.89453 91.3691 5.27734C91.8652 4.66016 92.5781 4.35156 93.5078 4.35156C94.4375 4.35156 95.1484 4.6582 95.6406 5.27148C96.1328 5.88086 96.3848 6.75781 96.3965 7.90234V9.47266ZM94.7031 7.75C94.7031 7.04297 94.6055 6.5293 94.4102 6.20898C94.2188 5.88477 93.918 5.72266 93.5078 5.72266C93.1094 5.72266 92.8145 5.87695 92.623 6.18555C92.4355 6.49023 92.3359 6.96875 92.3242 7.62109V9.69531C92.3242 10.3906 92.418 10.9082 92.6055 11.248C92.7969 11.584 93.1016 11.752 93.5195 11.752C93.9336 11.752 94.2324 11.5898 94.416 11.2656C94.5996 10.9414 94.6953 10.4453 94.7031 9.77734V7.75ZM103.658 13H101.965V6.47266L99.9434 7.09961V5.72266L103.477 4.45703H103.658V13ZM114.178 9.47266C114.178 10.6523 113.934 11.5547 113.445 12.1797C112.957 12.8047 112.242 13.1172 111.301 13.1172C110.371 13.1172 109.66 12.8105 109.168 12.1973C108.676 11.584 108.424 10.7051 108.412 9.56055V7.99023C108.412 6.79883 108.658 5.89453 109.15 5.27734C109.646 4.66016 110.359 4.35156 111.289 4.35156C112.219 4.35156 112.93 4.6582 113.422 5.27148C113.914 5.88086 114.166 6.75781 114.178 7.90234V9.47266ZM112.484 7.75C112.484 7.04297 112.387 6.5293 112.191 6.20898C112 5.88477 111.699 5.72266 111.289 5.72266C110.891 5.72266 110.596 5.87695 110.404 6.18555C110.217 6.49023 110.117 6.96875 110.105 7.62109V9.69531C110.105 10.3906 110.199 10.9082 110.387 11.248C110.578 11.584 110.883 11.752 111.301 11.752C111.715 11.752 112.014 11.5898 112.197 11.2656C112.381 10.9414 112.477 10.4453 112.484 9.77734V7.75ZM125.678 10.0293H122.379V8.66406H125.678V10.0293ZM138.953 11.2422H135.871L135.285 13H133.416L136.592 4.46875H138.221L141.414 13H139.545L138.953 11.2422ZM136.346 9.81836H138.479L137.406 6.625L136.346 9.81836ZM146.906 10.8848L148.84 4.46875H150.797L147.826 13H145.992L143.033 4.46875H144.984L146.906 10.8848ZM156.764 9.87695H155.363V13H153.605V4.46875H156.775C157.783 4.46875 158.561 4.69336 159.107 5.14258C159.654 5.5918 159.928 6.22656 159.928 7.04688C159.928 7.62891 159.801 8.11523 159.547 8.50586C159.297 8.89258 158.916 9.20117 158.404 9.43164L160.25 12.918V13H158.363L156.764 9.87695ZM155.363 8.45312H156.781C157.223 8.45312 157.564 8.3418 157.807 8.11914C158.049 7.89258 158.17 7.58203 158.17 7.1875C158.17 6.78516 158.055 6.46875 157.824 6.23828C157.598 6.00781 157.248 5.89258 156.775 5.89258H155.363V8.45312ZM165.139 13H163.381V4.46875H165.139V13ZM170.531 11.5879H174.264V13H168.773V4.46875H170.531V11.5879ZM187.932 13H182.084V11.8398L184.844 8.89844C185.223 8.48438 185.502 8.12305 185.682 7.81445C185.865 7.50586 185.957 7.21289 185.957 6.93555C185.957 6.55664 185.861 6.25977 185.67 6.04492C185.479 5.82617 185.205 5.7168 184.85 5.7168C184.467 5.7168 184.164 5.84961 183.941 6.11523C183.723 6.37695 183.613 6.72266 183.613 7.15234H181.914C181.914 6.63281 182.037 6.1582 182.283 5.72852C182.533 5.29883 182.885 4.96289 183.338 4.7207C183.791 4.47461 184.305 4.35156 184.879 4.35156C185.758 4.35156 186.439 4.5625 186.924 4.98438C187.412 5.40625 187.656 6.00195 187.656 6.77148C187.656 7.19336 187.547 7.62305 187.328 8.06055C187.109 8.49805 186.734 9.00781 186.203 9.58984L184.264 11.6348H187.932V13ZM196.717 9.47266C196.717 10.6523 196.473 11.5547 195.984 12.1797C195.496 12.8047 194.781 13.1172 193.84 13.1172C192.91 13.1172 192.199 12.8105 191.707 12.1973C191.215 11.584 190.963 10.7051 190.951 9.56055V7.99023C190.951 6.79883 191.197 5.89453 191.689 5.27734C192.186 4.66016 192.898 4.35156 193.828 4.35156C194.758 4.35156 195.469 4.6582 195.961 5.27148C196.453 5.88086 196.705 6.75781 196.717 7.90234V9.47266ZM195.023 7.75C195.023 7.04297 194.926 6.5293 194.73 6.20898C194.539 5.88477 194.238 5.72266 193.828 5.72266C193.43 5.72266 193.135 5.87695 192.943 6.18555C192.756 6.49023 192.656 6.96875 192.645 7.62109V9.69531C192.645 10.3906 192.738 10.9082 192.926 11.248C193.117 11.584 193.422 11.752 193.84 11.752C194.254 11.752 194.553 11.5898 194.736 11.2656C194.92 10.9414 195.016 10.4453 195.023 9.77734V7.75ZM205.713 13H199.865V11.8398L202.625 8.89844C203.004 8.48438 203.283 8.12305 203.463 7.81445C203.646 7.50586 203.738 7.21289 203.738 6.93555C203.738 6.55664 203.643 6.25977 203.451 6.04492C203.26 5.82617 202.986 5.7168 202.631 5.7168C202.248 5.7168 201.945 5.84961 201.723 6.11523C201.504 6.37695 201.395 6.72266 201.395 7.15234H199.695C199.695 6.63281 199.818 6.1582 200.064 5.72852C200.314 5.29883 200.666 4.96289 201.119 4.7207C201.572 4.47461 202.086 4.35156 202.66 4.35156C203.539 4.35156 204.221 4.5625 204.705 4.98438C205.193 5.40625 205.438 6.00195 205.438 6.77148C205.438 7.19336 205.328 7.62305 205.109 8.06055C204.891 8.49805 204.516 9.00781 203.984 9.58984L202.045 11.6348H205.713V13ZM212.869 13H211.176V6.47266L209.154 7.09961V5.72266L212.688 4.45703H212.869V13Z" fill="white"/>
<path d="M2 12V14C2 15.054 2.95 16 4 16H7V18H4C2.93913 18 1.92172 17.5786 1.17157 16.8284C0.421427 16.0783 0 15.0609 0 14V12H2ZM15 7L19.4 18H17.245L16.044 15H11.954L10.755 18H8.601L13 7H15ZM14 9.885L12.753 13H15.245L14 9.885ZM0 0H6C6.57904 0.0002061 7.14564 0.167979 7.63144 0.483072C8.11724 0.798166 8.50147 1.24711 8.73776 1.77574C8.97406 2.30437 9.05232 2.89009 8.96311 3.46221C8.8739 4.03433 8.62102 4.56841 8.235 5C8.62102 5.43159 8.8739 5.96567 8.96311 6.53779C9.05232 7.10991 8.97406 7.69563 8.73776 8.22426C8.50147 8.75288 8.11724 9.20183 7.63144 9.51693C7.14564 9.83202 6.57904 9.99979 6 10H0V0ZM6 6H2V8H6C6.26522 8 6.51957 7.89464 6.70711 7.70711C6.89464 7.51957 7 7.26522 7 7C7 6.73478 6.89464 6.48043 6.70711 6.29289C6.51957 6.10536 6.26522 6 6 6ZM14 0C15.0609 0 16.0783 0.421427 16.8284 1.17157C17.5786 1.92172 18 2.93913 18 4V6H16V4C16 3.46957 15.7893 2.96086 15.4142 2.58579C15.0391 2.21071 14.5304 2 14 2H11V0H14ZM6 2H2V4H6C6.26522 4 6.51957 3.89464 6.70711 3.70711C6.89464 3.51957 7 3.26522 7 3C7 2.73478 6.89464 2.48043 6.70711 2.29289C6.51957 2.10536 6.26522 2 6 2Z" fill="#F87F28"/>
<path d="M53.7784 50C57.767 50 60.1832 47.5327 60.1832 43.4418C60.1832 39.3636 57.767 36.9091 53.8168 36.9091H49.1378V50H53.7784ZM51.9055 47.6286V39.2805H53.6697C56.1243 39.2805 57.4219 40.5334 57.4219 43.4418C57.4219 46.3629 56.1243 47.6286 53.6634 47.6286H51.9055ZM62.1824 50H64.9054V40.1818H62.1824V50ZM63.5502 38.9162C64.362 38.9162 65.0268 38.2962 65.0268 37.5355C65.0268 36.7812 64.362 36.1612 63.5502 36.1612C62.7449 36.1612 62.0801 36.7812 62.0801 37.5355C62.0801 38.2962 62.7449 38.9162 63.5502 38.9162ZM67.0866 50H69.8097V44.4453C69.8097 43.2372 70.6918 42.4062 71.8935 42.4062C72.2706 42.4062 72.7884 42.4702 73.044 42.5533V40.1371C72.8011 40.0795 72.4624 40.0412 72.1875 40.0412C71.0881 40.0412 70.1868 40.6804 69.8288 41.8949H69.7266V40.1818H67.0866V50ZM78.4693 50.1918C80.8983 50.1918 82.5346 49.0092 82.9181 47.1875L80.3997 47.0213C80.1248 47.7692 79.4217 48.1591 78.514 48.1591C77.1525 48.1591 76.2896 47.2578 76.2896 45.794V45.7876H82.9757V45.0398C82.9757 41.7031 80.9558 40.054 78.3606 40.054C75.4714 40.054 73.5985 42.1058 73.5985 45.1357C73.5985 48.2486 75.4458 50.1918 78.4693 50.1918ZM76.2896 44.1001C76.3471 42.9815 77.1973 42.0866 78.4054 42.0866C79.5879 42.0866 80.4061 42.9304 80.4125 44.1001H76.2896ZM89.1887 50.1918C91.8031 50.1918 93.4458 48.6577 93.5737 46.4013H91.0041C90.8443 47.4496 90.1539 48.0376 89.2207 48.0376C87.9487 48.0376 87.1241 46.9702 87.1241 45.0909C87.1241 43.2372 87.9551 42.1761 89.2207 42.1761C90.2179 42.1761 90.8571 42.8345 91.0041 43.8125H93.5737C93.4586 41.5433 91.7392 40.054 89.176 40.054C86.1973 40.054 84.3564 42.1186 84.3564 45.1293C84.3564 48.1143 86.1653 50.1918 89.1887 50.1918ZM100.539 40.1818H98.6921V37.8295H95.9691V40.1818H94.6268V42.2273H95.9691V47.3409C95.9563 49.2649 97.2667 50.2173 99.2418 50.1342C99.945 50.1087 100.444 49.968 100.718 49.8786L100.29 47.8523C100.156 47.8778 99.8683 47.9418 99.6126 47.9418C99.0692 47.9418 98.6921 47.7372 98.6921 46.983V42.2273H100.539V40.1818ZM106.682 50.1918C109.111 50.1918 110.748 49.0092 111.131 47.1875L108.613 47.0213C108.338 47.7692 107.635 48.1591 106.727 48.1591C105.365 48.1591 104.502 47.2578 104.502 45.794V45.7876H111.189V45.0398C111.189 41.7031 109.169 40.054 106.574 40.054C103.684 40.054 101.811 42.1058 101.811 45.1357C101.811 48.2486 103.659 50.1918 106.682 50.1918ZM104.502 44.1001C104.56 42.9815 105.41 42.0866 106.618 42.0866C107.801 42.0866 108.619 42.9304 108.625 44.1001H104.502ZM119.262 45.8196C119.268 47.1364 118.367 47.8267 117.389 47.8267C116.36 47.8267 115.695 47.1044 115.689 45.9474V40.1818H112.966V46.4332C112.972 48.728 114.314 50.1278 116.289 50.1278C117.766 50.1278 118.827 49.3672 119.268 48.2166H119.37V50H121.985V40.1818H119.262V45.8196ZM124.163 50H126.886V44.4453C126.886 43.2372 127.768 42.4062 128.97 42.4062C129.347 42.4062 129.865 42.4702 130.12 42.5533V40.1371C129.877 40.0795 129.539 40.0412 129.264 40.0412C128.164 40.0412 127.263 40.6804 126.905 41.8949H126.803V40.1818H124.163V50ZM140.386 50C144.374 50 146.791 47.5327 146.791 43.4418C146.791 39.3636 144.374 36.9091 140.424 36.9091H135.745V50H140.386ZM138.513 47.6286V39.2805H140.277C142.732 39.2805 144.029 40.5334 144.029 43.4418C144.029 46.3629 142.732 47.6286 140.271 47.6286H138.513ZM153.264 50.1918C155.693 50.1918 157.33 49.0092 157.713 47.1875L155.195 47.0213C154.92 47.7692 154.217 48.1591 153.309 48.1591C151.947 48.1591 151.085 47.2578 151.085 45.794V45.7876H157.771V45.0398C157.771 41.7031 155.751 40.054 153.156 40.054C150.266 40.054 148.393 42.1058 148.393 45.1357C148.393 48.2486 150.241 50.1918 153.264 50.1918ZM151.085 44.1001C151.142 42.9815 151.992 42.0866 153.2 42.0866C154.383 42.0866 155.201 42.9304 155.207 44.1001H151.085ZM163.765 50H166.532V45.7557H168.859C171.87 45.7557 173.621 43.9595 173.621 41.3452C173.621 38.7436 171.902 36.9091 168.93 36.9091H163.765V50ZM166.532 43.5376V39.1719H168.399C169.997 39.1719 170.77 40.0412 170.77 41.3452C170.77 42.6428 169.997 43.5376 168.412 43.5376H166.532ZM175.368 50H178.091V44.4453C178.091 43.2372 178.973 42.4062 180.175 42.4062C180.552 42.4062 181.07 42.4702 181.325 42.5533V40.1371C181.082 40.0795 180.744 40.0412 180.469 40.0412C179.369 40.0412 178.468 40.6804 178.11 41.8949H178.008V40.1818H175.368V50ZM186.712 50.1918C189.691 50.1918 191.545 48.1527 191.545 45.1293C191.545 42.0866 189.691 40.054 186.712 40.054C183.733 40.054 181.88 42.0866 181.88 45.1293C181.88 48.1527 183.733 50.1918 186.712 50.1918ZM186.725 48.0824C185.351 48.0824 184.648 46.8232 184.648 45.1101C184.648 43.397 185.351 42.1314 186.725 42.1314C188.074 42.1314 188.777 43.397 188.777 45.1101C188.777 46.8232 188.074 48.0824 186.725 48.0824ZM193.315 40.1818V50.4411C193.315 51.1825 193.002 51.5533 192.126 51.5533C192.011 51.5533 191.909 51.5533 191.768 51.5405V53.669C191.966 53.6754 192.126 53.6818 192.318 53.6818C194.632 53.6818 196.038 52.7614 196.038 50.4858V40.1818H193.315ZM194.67 38.9162C195.482 38.9162 196.147 38.2962 196.147 37.5355C196.147 36.7812 195.482 36.1612 194.67 36.1612C193.865 36.1612 193.2 36.7812 193.2 37.5355C193.2 38.2962 193.865 38.9162 194.67 38.9162ZM202.694 50.1918C205.123 50.1918 206.759 49.0092 207.143 47.1875L204.624 47.0213C204.349 47.7692 203.646 48.1591 202.739 48.1591C201.377 48.1591 200.514 47.2578 200.514 45.794V45.7876H207.2V45.0398C207.2 41.7031 205.18 40.054 202.585 40.054C199.696 40.054 197.823 42.1058 197.823 45.1357C197.823 48.2486 199.67 50.1918 202.694 50.1918ZM200.514 44.1001C200.572 42.9815 201.422 42.0866 202.63 42.0866C203.812 42.0866 204.631 42.9304 204.637 44.1001H200.514ZM214.2 40.1818H212.352V37.8295H209.629V40.1818H208.287V42.2273H209.629V47.3409C209.616 49.2649 210.927 50.2173 212.902 50.1342C213.605 50.1087 214.104 49.968 214.379 49.8786L213.95 47.8523C213.816 47.8778 213.528 47.9418 213.273 47.9418C212.729 47.9418 212.352 47.7372 212.352 46.983V42.2273H214.2V40.1818ZM223.137 50H225.835L228.321 41.4411H228.423L230.916 50H233.614L237.36 36.9091H234.336L232.169 46.0241H232.054L229.67 36.9091H227.081L224.691 46.005H224.582L222.415 36.9091H219.392L223.137 50ZM242.21 50.1918C244.638 50.1918 246.275 49.0092 246.658 47.1875L244.14 47.0213C243.865 47.7692 243.162 48.1591 242.254 48.1591C240.893 48.1591 240.03 47.2578 240.03 45.794V45.7876H246.716V45.0398C246.716 41.7031 244.696 40.054 242.101 40.054C239.212 40.054 237.339 42.1058 237.339 45.1357C237.339 48.2486 239.186 50.1918 242.21 50.1918ZM240.03 44.1001C240.087 42.9815 240.938 42.0866 242.146 42.0866C243.328 42.0866 244.146 42.9304 244.153 44.1001H240.03ZM248.544 50H251.229V48.4276H251.35C251.727 49.2457 252.552 50.1598 254.137 50.1598C256.374 50.1598 258.119 48.3892 258.119 45.1037C258.119 41.7287 256.298 40.054 254.143 40.054C252.501 40.054 251.714 41.032 251.35 41.831H251.267V36.9091H248.544V50ZM251.21 45.0909C251.21 43.3395 251.951 42.2209 253.274 42.2209C254.623 42.2209 255.339 43.3906 255.339 45.0909C255.339 46.804 254.61 47.9929 253.274 47.9929C251.964 47.9929 251.21 46.8423 251.21 45.0909Z" fill="white"/>
</svg>
