<svg width="205" height="55" viewBox="0 0 205 55" fill="none" xmlns="http://www.w3.org/2000/svg">
<path d="M49.186 11.7617C49.186 11.4297 49.0688 11.1758 48.8345 11C48.6001 10.8203 48.1782 10.6328 47.5688 10.4375C46.9595 10.2383 46.4771 10.043 46.1216 9.85156C45.1528 9.32812 44.6685 8.62305 44.6685 7.73633C44.6685 7.27539 44.7974 6.86523 45.0552 6.50586C45.3169 6.14258 45.6899 5.85938 46.1743 5.65625C46.6626 5.45312 47.2095 5.35156 47.8149 5.35156C48.4243 5.35156 48.9673 5.46289 49.4438 5.68555C49.9204 5.9043 50.2896 6.21484 50.5513 6.61719C50.8169 7.01953 50.9497 7.47656 50.9497 7.98828H49.1919C49.1919 7.59766 49.0688 7.29492 48.8228 7.08008C48.5767 6.86133 48.231 6.75195 47.7856 6.75195C47.356 6.75195 47.022 6.84375 46.7837 7.02734C46.5454 7.20703 46.4263 7.44531 46.4263 7.74219C46.4263 8.01953 46.5649 8.25195 46.8423 8.43945C47.1235 8.62695 47.5356 8.80273 48.0786 8.9668C49.0786 9.26758 49.8071 9.64062 50.2642 10.0859C50.7212 10.5312 50.9497 11.0859 50.9497 11.75C50.9497 12.4883 50.6704 13.0684 50.1118 13.4902C49.5532 13.9082 48.8013 14.1172 47.856 14.1172C47.1997 14.1172 46.6021 13.998 46.063 13.7598C45.5239 13.5176 45.1118 13.1875 44.8267 12.7695C44.5454 12.3516 44.4048 11.8672 44.4048 11.3164H46.1685C46.1685 12.2578 46.731 12.7285 47.856 12.7285C48.2739 12.7285 48.6001 12.6445 48.8345 12.4766C49.0688 12.3047 49.186 12.0664 49.186 11.7617ZM59.2778 10.3027H55.9028V12.5879H59.8638V14H54.145V5.46875H59.8521V6.89258H55.9028V8.92578H59.2778V10.3027ZM64.6528 10.9941V14H62.895V5.46875H66.2231C66.8638 5.46875 67.4263 5.58594 67.9106 5.82031C68.3989 6.05469 68.7739 6.38867 69.0356 6.82227C69.2974 7.25195 69.4282 7.74219 69.4282 8.29297C69.4282 9.12891 69.1411 9.78906 68.5669 10.2734C67.9966 10.7539 67.2056 10.9941 66.1938 10.9941H64.6528ZM64.6528 9.57031H66.2231C66.688 9.57031 67.0415 9.46094 67.2837 9.24219C67.5298 9.02344 67.6528 8.71094 67.6528 8.30469C67.6528 7.88672 67.5298 7.54883 67.2837 7.29102C67.0376 7.0332 66.6978 6.90039 66.2642 6.89258H64.6528V9.57031ZM79.063 6.89258H76.4497V14H74.6919V6.89258H72.1138V5.46875H79.063V6.89258ZM92.3735 14H86.5259V12.8398L89.2856 9.89844C89.6646 9.48438 89.9438 9.12305 90.1235 8.81445C90.3071 8.50586 90.3989 8.21289 90.3989 7.93555C90.3989 7.55664 90.3032 7.25977 90.1118 7.04492C89.9204 6.82617 89.647 6.7168 89.2915 6.7168C88.9087 6.7168 88.606 6.84961 88.3833 7.11523C88.1646 7.37695 88.0552 7.72266 88.0552 8.15234H86.356C86.356 7.63281 86.479 7.1582 86.7251 6.72852C86.9751 6.29883 87.3267 5.96289 87.7798 5.7207C88.2329 5.47461 88.7466 5.35156 89.3208 5.35156C90.1997 5.35156 90.8813 5.5625 91.3657 5.98438C91.854 6.40625 92.0981 7.00195 92.0981 7.77148C92.0981 8.19336 91.9888 8.62305 91.77 9.06055C91.5513 9.49805 91.1763 10.0078 90.645 10.5898L88.7056 12.6348H92.3735V14ZM101.159 10.4727C101.159 11.6523 100.915 12.5547 100.426 13.1797C99.938 13.8047 99.2231 14.1172 98.2817 14.1172C97.3521 14.1172 96.6411 13.8105 96.1489 13.1973C95.6567 12.584 95.4048 11.7051 95.3931 10.5605V8.99023C95.3931 7.79883 95.6392 6.89453 96.1313 6.27734C96.6274 5.66016 97.3403 5.35156 98.27 5.35156C99.1997 5.35156 99.9106 5.6582 100.403 6.27148C100.895 6.88086 101.147 7.75781 101.159 8.90234V10.4727ZM99.4653 8.75C99.4653 8.04297 99.3677 7.5293 99.1724 7.20898C98.981 6.88477 98.6802 6.72266 98.27 6.72266C97.8716 6.72266 97.5767 6.87695 97.3853 7.18555C97.1978 7.49023 97.0981 7.96875 97.0864 8.62109V10.6953C97.0864 11.3906 97.1802 11.9082 97.3677 12.248C97.5591 12.584 97.8638 12.752 98.2817 12.752C98.6958 12.752 98.9946 12.5898 99.1782 12.2656C99.3618 11.9414 99.4575 11.4453 99.4653 10.7773V8.75ZM110.049 10.4727C110.049 11.6523 109.805 12.5547 109.317 13.1797C108.829 13.8047 108.114 14.1172 107.172 14.1172C106.243 14.1172 105.532 13.8105 105.04 13.1973C104.547 12.584 104.295 11.7051 104.284 10.5605V8.99023C104.284 7.79883 104.53 6.89453 105.022 6.27734C105.518 5.66016 106.231 5.35156 107.161 5.35156C108.09 5.35156 108.801 5.6582 109.293 6.27148C109.786 6.88086 110.038 7.75781 110.049 8.90234V10.4727ZM108.356 8.75C108.356 8.04297 108.258 7.5293 108.063 7.20898C107.872 6.88477 107.571 6.72266 107.161 6.72266C106.762 6.72266 106.467 6.87695 106.276 7.18555C106.088 7.49023 105.989 7.96875 105.977 8.62109V10.6953C105.977 11.3906 106.071 11.9082 106.258 12.248C106.45 12.584 106.754 12.752 107.172 12.752C107.586 12.752 107.885 12.5898 108.069 12.2656C108.252 11.9414 108.348 11.4453 108.356 10.7773V8.75ZM118.758 7.73633C118.758 8.15039 118.655 8.51758 118.448 8.83789C118.241 9.1582 117.956 9.41406 117.592 9.60547C118.006 9.80469 118.334 10.0801 118.577 10.4316C118.819 10.7793 118.94 11.1895 118.94 11.6621C118.94 12.4199 118.682 13.0195 118.167 13.4609C117.651 13.8984 116.95 14.1172 116.063 14.1172C115.176 14.1172 114.473 13.8965 113.954 13.4551C113.434 13.0137 113.174 12.416 113.174 11.6621C113.174 11.1895 113.295 10.7773 113.538 10.4258C113.78 10.0742 114.106 9.80078 114.516 9.60547C114.153 9.41406 113.868 9.1582 113.661 8.83789C113.458 8.51758 113.356 8.15039 113.356 7.73633C113.356 7.00977 113.598 6.43164 114.083 6.00195C114.567 5.56836 115.225 5.35156 116.057 5.35156C116.885 5.35156 117.542 5.56641 118.026 5.99609C118.514 6.42188 118.758 7.00195 118.758 7.73633ZM117.241 11.5391C117.241 11.168 117.133 10.8711 116.918 10.6484C116.704 10.4258 116.415 10.3145 116.051 10.3145C115.692 10.3145 115.405 10.4258 115.19 10.6484C114.975 10.8672 114.868 11.1641 114.868 11.5391C114.868 11.9023 114.973 12.1953 115.184 12.418C115.395 12.6406 115.688 12.752 116.063 12.752C116.43 12.752 116.717 12.6445 116.924 12.4297C117.135 12.2148 117.241 11.918 117.241 11.5391ZM117.065 7.81836C117.065 7.48633 116.977 7.2207 116.801 7.02148C116.625 6.81836 116.377 6.7168 116.057 6.7168C115.741 6.7168 115.495 6.81445 115.319 7.00977C115.143 7.20508 115.055 7.47461 115.055 7.81836C115.055 8.1582 115.143 8.43164 115.319 8.63867C115.495 8.8457 115.743 8.94922 116.063 8.94922C116.383 8.94922 116.629 8.8457 116.801 8.63867C116.977 8.43164 117.065 8.1582 117.065 7.81836ZM130.44 11.0293H127.141V9.66406H130.44V11.0293ZM141.196 5.46875L143.387 11.6562L145.567 5.46875H147.875V14H146.112V11.668L146.288 7.64258L143.985 14H142.778L140.481 7.64844L140.657 11.668V14H138.899V5.46875H141.196ZM156.333 12.2422H153.25L152.665 14H150.795L153.971 5.46875H155.6L158.793 14H156.924L156.333 12.2422ZM153.725 10.8184H155.858L154.786 7.625L153.725 10.8184ZM163.459 14H161.702V5.46875H163.459V14ZM177.749 14H171.901V12.8398L174.661 9.89844C175.04 9.48438 175.319 9.12305 175.499 8.81445C175.682 8.50586 175.774 8.21289 175.774 7.93555C175.774 7.55664 175.678 7.25977 175.487 7.04492C175.295 6.82617 175.022 6.7168 174.667 6.7168C174.284 6.7168 173.981 6.84961 173.758 7.11523C173.54 7.37695 173.43 7.72266 173.43 8.15234H171.731C171.731 7.63281 171.854 7.1582 172.1 6.72852C172.35 6.29883 172.702 5.96289 173.155 5.7207C173.608 5.47461 174.122 5.35156 174.696 5.35156C175.575 5.35156 176.256 5.5625 176.741 5.98438C177.229 6.40625 177.473 7.00195 177.473 7.77148C177.473 8.19336 177.364 8.62305 177.145 9.06055C176.926 9.49805 176.551 10.0078 176.02 10.5898L174.081 12.6348H177.749V14ZM186.534 10.4727C186.534 11.6523 186.29 12.5547 185.801 13.1797C185.313 13.8047 184.598 14.1172 183.657 14.1172C182.727 14.1172 182.016 13.8105 181.524 13.1973C181.032 12.584 180.78 11.7051 180.768 10.5605V8.99023C180.768 7.79883 181.014 6.89453 181.506 6.27734C182.002 5.66016 182.715 5.35156 183.645 5.35156C184.575 5.35156 185.286 5.6582 185.778 6.27148C186.27 6.88086 186.522 7.75781 186.534 8.90234V10.4727ZM184.84 8.75C184.84 8.04297 184.743 7.5293 184.547 7.20898C184.356 6.88477 184.055 6.72266 183.645 6.72266C183.247 6.72266 182.952 6.87695 182.76 7.18555C182.573 7.49023 182.473 7.96875 182.461 8.62109V10.6953C182.461 11.3906 182.555 11.9082 182.743 12.248C182.934 12.584 183.239 12.752 183.657 12.752C184.071 12.752 184.37 12.5898 184.553 12.2656C184.737 11.9414 184.833 11.4453 184.84 10.7773V8.75ZM195.424 10.4727C195.424 11.6523 195.18 12.5547 194.692 13.1797C194.204 13.8047 193.489 14.1172 192.547 14.1172C191.618 14.1172 190.907 13.8105 190.415 13.1973C189.922 12.584 189.67 11.7051 189.659 10.5605V8.99023C189.659 7.79883 189.905 6.89453 190.397 6.27734C190.893 5.66016 191.606 5.35156 192.536 5.35156C193.465 5.35156 194.176 5.6582 194.668 6.27148C195.161 6.88086 195.413 7.75781 195.424 8.90234V10.4727ZM193.731 8.75C193.731 8.04297 193.633 7.5293 193.438 7.20898C193.247 6.88477 192.946 6.72266 192.536 6.72266C192.137 6.72266 191.842 6.87695 191.651 7.18555C191.463 7.49023 191.364 7.96875 191.352 8.62109V10.6953C191.352 11.3906 191.446 11.9082 191.633 12.248C191.825 12.584 192.129 12.752 192.547 12.752C192.961 12.752 193.26 12.5898 193.444 12.2656C193.627 11.9414 193.723 11.4453 193.731 10.7773V8.75ZM202.534 10.5898C202.092 11.0234 201.577 11.2402 200.987 11.2402C200.233 11.2402 199.629 10.9824 199.176 10.4668C198.723 9.94727 198.497 9.24805 198.497 8.36914C198.497 7.81055 198.618 7.29883 198.86 6.83398C199.106 6.36523 199.448 6.00195 199.885 5.74414C200.323 5.48242 200.815 5.35156 201.362 5.35156C201.924 5.35156 202.424 5.49219 202.862 5.77344C203.299 6.05469 203.639 6.45898 203.881 6.98633C204.124 7.51367 204.247 8.11719 204.25 8.79688V9.42383C204.25 10.8457 203.897 11.9629 203.19 12.7754C202.483 13.5879 201.481 14.0215 200.184 14.0762L199.768 14.082V12.6699L200.143 12.6641C201.616 12.5977 202.413 11.9062 202.534 10.5898ZM201.403 9.94531C201.676 9.94531 201.911 9.875 202.106 9.73438C202.305 9.59375 202.456 9.42383 202.557 9.22461V8.52734C202.557 7.95312 202.448 7.50781 202.229 7.19141C202.01 6.875 201.717 6.7168 201.35 6.7168C201.01 6.7168 200.731 6.87305 200.512 7.18555C200.293 7.49414 200.184 7.88281 200.184 8.35156C200.184 8.81641 200.29 9.19922 200.5 9.5C200.715 9.79688 201.016 9.94531 201.403 9.94531Z" fill="white"/>
<path d="M48.085 51H50.7824L53.269 42.4411H53.3712L55.8641 51H58.5616L62.3073 37.9091H59.2839L57.117 47.0241H57.0019L54.6177 37.9091H52.0289L49.6383 47.005H49.5296L47.3627 37.9091H44.3393L48.085 51ZM67.1573 51.1918C69.5862 51.1918 71.2226 50.0092 71.6061 48.1875L69.0877 48.0213C68.8128 48.7692 68.1097 49.1591 67.202 49.1591C65.8405 49.1591 64.9776 48.2578 64.9776 46.794V46.7876H71.6637V46.0398C71.6637 42.7031 69.6438 41.054 67.0486 41.054C64.1594 41.054 62.2865 43.1058 62.2865 46.1357C62.2865 49.2486 64.1338 51.1918 67.1573 51.1918ZM64.9776 45.1001C65.0351 43.9815 65.8853 43.0866 67.0934 43.0866C68.2759 43.0866 69.0941 43.9304 69.1005 45.1001H64.9776ZM73.4918 51H76.1764V49.4276H76.2979C76.675 50.2457 77.4996 51.1598 79.0848 51.1598C81.322 51.1598 83.0671 49.3892 83.0671 46.1037C83.0671 42.7287 81.2453 41.054 79.0912 41.054C77.4485 41.054 76.6622 42.032 76.2979 42.831H76.2148V37.9091H73.4918V51ZM76.1573 46.0909C76.1573 44.3395 76.8987 43.2209 78.2219 43.2209C79.5706 43.2209 80.2865 44.3906 80.2865 46.0909C80.2865 47.804 79.5578 48.9929 78.2219 48.9929C76.9115 48.9929 76.1573 47.8423 76.1573 46.0909ZM93.7418 51C97.7304 51 100.147 48.5327 100.147 44.4418C100.147 40.3636 97.7304 37.9091 93.7801 37.9091H89.1012V51H93.7418ZM91.8689 48.6286V40.2805H93.6331C96.0877 40.2805 97.3853 41.5334 97.3853 44.4418C97.3853 47.3629 96.0877 48.6286 93.6267 48.6286H91.8689ZM106.62 51.1918C109.049 51.1918 110.686 50.0092 111.069 48.1875L108.551 48.0213C108.276 48.7692 107.573 49.1591 106.665 49.1591C105.303 49.1591 104.44 48.2578 104.44 46.794V46.7876H111.127V46.0398C111.127 42.7031 109.107 41.054 106.511 41.054C103.622 41.054 101.749 43.1058 101.749 46.1357C101.749 49.2486 103.597 51.1918 106.62 51.1918ZM104.44 45.1001C104.498 43.9815 105.348 43.0866 106.556 43.0866C107.739 43.0866 108.557 43.9304 108.563 45.1001H104.44ZM121.776 41.1818H118.893L116.86 48.2067H116.758L114.719 41.1818H111.842L115.275 51H118.343L121.776 41.1818ZM127.31 51.1918C129.739 51.1918 131.375 50.0092 131.758 48.1875L129.24 48.0213C128.965 48.7692 128.262 49.1591 127.354 49.1591C125.993 49.1591 125.13 48.2578 125.13 46.794V46.7876H131.816V46.0398C131.816 42.7031 129.796 41.054 127.201 41.054C124.312 41.054 122.439 43.1058 122.439 46.1357C122.439 49.2486 124.286 51.1918 127.31 51.1918ZM125.13 45.1001C125.187 43.9815 126.038 43.0866 127.246 43.0866C128.428 43.0866 129.246 43.9304 129.253 45.1001H125.13ZM136.316 37.9091H133.593V51H136.316V37.9091ZM142.933 51.1918C145.912 51.1918 147.766 49.1527 147.766 46.1293C147.766 43.0866 145.912 41.054 142.933 41.054C139.955 41.054 138.101 43.0866 138.101 46.1293C138.101 49.1527 139.955 51.1918 142.933 51.1918ZM142.946 49.0824C141.572 49.0824 140.869 47.8232 140.869 46.1101C140.869 44.397 141.572 43.1314 142.946 43.1314C144.295 43.1314 144.998 44.397 144.998 46.1101C144.998 47.8232 144.295 49.0824 142.946 49.0824ZM149.536 54.6818H152.259V49.4276H152.342C152.72 50.2457 153.544 51.1598 155.129 51.1598C157.367 51.1598 159.112 49.3892 159.112 46.1037C159.112 42.7287 157.29 41.054 155.136 41.054C153.493 41.054 152.707 42.032 152.342 42.831H152.221V41.1818H149.536V54.6818ZM152.202 46.0909C152.202 44.3395 152.943 43.2209 154.266 43.2209C155.615 43.2209 156.331 44.3906 156.331 46.0909C156.331 47.804 155.602 48.9929 154.266 48.9929C152.956 48.9929 152.202 47.8423 152.202 46.0909ZM160.927 54.6818H163.65V49.4276H163.733C164.11 50.2457 164.935 51.1598 166.52 51.1598C168.757 51.1598 170.502 49.3892 170.502 46.1037C170.502 42.7287 168.681 41.054 166.526 41.054C164.884 41.054 164.097 42.032 163.733 42.831H163.612V41.1818H160.927V54.6818ZM163.592 46.0909C163.592 44.3395 164.334 43.2209 165.657 43.2209C167.006 43.2209 167.722 44.3906 167.722 46.0909C167.722 47.804 166.993 48.9929 165.657 48.9929C164.347 48.9929 163.592 47.8423 163.592 46.0909ZM176.792 51.1918C179.221 51.1918 180.857 50.0092 181.241 48.1875L178.722 48.0213C178.448 48.7692 177.744 49.1591 176.837 49.1591C175.475 49.1591 174.612 48.2578 174.612 46.794V46.7876H181.298V46.0398C181.298 42.7031 179.279 41.054 176.683 41.054C173.794 41.054 171.921 43.1058 171.921 46.1357C171.921 49.2486 173.769 51.1918 176.792 51.1918ZM174.612 45.1001C174.67 43.9815 175.52 43.0866 176.728 43.0866C177.911 43.0866 178.729 43.9304 178.735 45.1001H174.612ZM183.075 51H185.798V45.4453C185.798 44.2372 186.681 43.4062 187.882 43.4062C188.259 43.4062 188.777 43.4702 189.033 43.5533V41.1371C188.79 41.0795 188.451 41.0412 188.176 41.0412C187.077 41.0412 186.176 41.6804 185.818 42.8949H185.715V41.1818H183.075V51Z" fill="white"/>
<path d="M14.0005 11L20.9645 15.062L17.9915 15.912L20.1165 19.593L18.3845 20.593L16.2595 16.913L14.0365 19.063L14.0005 11ZM12.0005 4H14.0005V6H19.0005C19.2657 6 19.5201 6.10536 19.7076 6.29289C19.8951 6.48043 20.0005 6.73478 20.0005 7V11H18.0005V8H8.00049V18H12.0005V20H7.00049C6.73527 20 6.48092 19.8946 6.29338 19.7071C6.10585 19.5196 6.00049 19.2652 6.00049 19V14H4.00049V12H6.00049V7C6.00049 6.73478 6.10585 6.48043 6.29338 6.29289C6.48092 6.10536 6.73527 6 7.00049 6H12.0005V4ZM2.00049 12V14H0.000488281V12H2.00049ZM2.00049 8V10H0.000488281V8H2.00049ZM2.00049 4V6H0.000488281V4H2.00049ZM2.00049 0V2H0.000488281V0H2.00049ZM6.00049 0V2H4.00049V0H6.00049ZM10.0005 0V2H8.00049V0H10.0005ZM14.0005 0V2H12.0005V0H14.0005Z" fill="#F87F28"/>
</svg>
