<svg width="72" height="956" viewBox="0 0 72 956" fill="none" xmlns="http://www.w3.org/2000/svg">
<circle cx="25.3354" cy="42.3112" r="24.5" fill="#F87F28"/>
<line x1="17.0396" y1="34.3523" x2="36.1411" y2="34.3523" stroke="white"/>
<line x1="17.0396" y1="42.3112" x2="36.1411" y2="42.3112" stroke="white"/>
<line x1="17.0396" y1="50.2702" x2="36.1411" y2="50.2702" stroke="white"/>
<path d="M147.767 956C144.354 954.718 140.917 952.921 137.55 950.658C133.632 948.028 129.693 944.683 125.845 940.729C121.945 936.723 118.038 931.985 114.234 926.647C110.04 920.764 105.906 914.307 101.949 907.456C97.9806 900.586 94.0895 893.148 90.3832 885.351C86.661 877.518 83.0323 869.125 79.6 860.405C76.1477 851.636 72.804 842.311 69.6614 832.691C56.7397 793.109 46.6278 746.969 39.6111 695.547C37.8153 682.385 36.2215 668.867 34.8371 655.057C33.4341 641.032 32.2477 626.73 31.2834 612.218C30.2987 597.349 29.5412 582.291 29.0147 567.115C28.4733 551.42 28.1656 535.63 28.093 519.814C28.0203 503.319 28.1833 486.822 28.5813 470.389C28.9872 453.515 29.6465 436.193 30.5414 418.908C31.4503 401.355 32.6261 383.368 34.037 365.446C35.4699 347.24 37.1835 328.611 39.1302 310.076C42.893 274.246 47.8204 236.905 53.7754 199.09C59.863 160.658 66.5957 123.641 73.9349 88.2498C81.5283 51.5357 89.6823 16.4163 98.358 -16.9409C106.993 -50.2211 116.154 -81.625 125.793 -110.992C128.264 -118.499 130.786 -125.903 133.289 -133H147.767V955.999V956Z" fill="#1E5DE9" fill-opacity="0.07"/>
</svg>
