<svg width="110" height="110" viewBox="0 0 110 110" fill="none" xmlns="http://www.w3.org/2000/svg">
<g filter="url(#filter0_d_0_1)">
<path d="M29 47C29 37.0589 37.0589 29 47 29H63C72.9411 29 81 37.0589 81 47V63C81 72.9411 72.9411 81 63 81H47C37.0589 81 29 72.9411 29 63V47Z" fill="white"/>
</g>
<path d="M44.7911 47.257L52.364 55L50.9811 56.414L47.6107 52.968C47.1778 53.7185 46.9964 54.5931 47.0941 55.4587C47.1918 56.3243 47.5633 57.1336 48.1521 57.7636C48.7408 58.3935 49.5147 58.8097 50.356 58.9488C51.1973 59.0879 52.06 58.9423 52.8129 58.5341C53.5659 58.126 54.1679 57.4776 54.5274 56.6876C54.8869 55.8976 54.9843 55.0092 54.8048 54.1574C54.6253 53.3056 54.1786 52.537 53.5327 51.9686C52.8868 51.4001 52.0771 51.0628 51.2266 51.008L49.4612 49.203C50.7955 48.8372 52.2132 48.9643 53.4648 49.5621C54.7164 50.1599 55.7216 51.19 56.3035 52.4711C56.8853 53.7521 57.0065 55.202 56.6457 56.5654C56.2849 57.9288 55.4652 59.1184 54.3309 59.9246C53.1967 60.7309 51.8206 61.1022 50.445 60.9731C49.0693 60.8441 47.7823 60.223 46.8105 59.2191C45.8387 58.2153 45.2444 56.8931 45.1323 55.4853C45.0202 54.0775 45.3974 52.6744 46.1975 51.523L44.7999 50.094C43.6335 51.6314 43.0551 53.5506 43.1729 55.4925C43.2907 57.4344 44.0966 59.2659 45.4398 60.6441C46.783 62.0223 48.5714 62.8528 50.4702 62.9802C52.369 63.1075 54.2482 62.5229 55.7559 61.3359C57.2636 60.1488 58.2966 58.4407 58.6614 56.5311C59.0262 54.6216 58.6979 52.6415 57.738 50.9616C56.778 49.2817 55.2522 48.017 53.4461 47.4043C51.64 46.7916 49.6774 46.8729 47.9257 47.633L46.4567 46.132C47.853 45.386 49.4056 44.9976 50.9811 45C56.3828 45 60.7614 49.477 60.7614 55C60.7614 60.523 56.3828 65 50.9811 65C45.5794 65 41.2007 60.523 41.2007 55C41.1992 53.5178 41.5207 52.0538 42.1417 50.7145C42.7628 49.3751 43.6678 48.194 44.7911 47.257Z" fill="#BFBFBF"/>
<defs>
<filter id="filter0_d_0_1" x="0" y="0" width="110" height="110" filterUnits="userSpaceOnUse" color-interpolation-filters="sRGB">
<feFlood flood-opacity="0" result="BackgroundImageFix"/>
<feColorMatrix in="SourceAlpha" type="matrix" values="0 0 0 0 0 0 0 0 0 0 0 0 0 0 0 0 0 0 127 0" result="hardAlpha"/>
<feOffset/>
<feGaussianBlur stdDeviation="14.5"/>
<feColorMatrix type="matrix" values="0 0 0 0 0.266667 0 0 0 0 0.345098 0 0 0 0 0.564706 0 0 0 0.12 0"/>
<feBlend mode="normal" in2="BackgroundImageFix" result="effect1_dropShadow_0_1"/>
<feBlend mode="normal" in="SourceGraphic" in2="effect1_dropShadow_0_1" result="shape"/>
</filter>
</defs>
</svg>
