<svg width="195" height="52" viewBox="0 0 195 52" fill="none" xmlns="http://www.w3.org/2000/svg">
<path d="M54.5781 9.24219H51.4961L50.9102 11H49.041L52.2168 2.46875H53.8457L57.0391 11H55.1699L54.5781 9.24219ZM51.9707 7.81836H54.1035L53.0312 4.625L51.9707 7.81836ZM66.1875 2.46875V8.08789C66.1875 9.02148 65.8945 9.75977 65.3086 10.3027C64.7266 10.8457 63.9297 11.1172 62.918 11.1172C61.9219 11.1172 61.1309 10.8535 60.5449 10.3262C59.959 9.79883 59.6602 9.07422 59.6484 8.15234V2.46875H61.4062V8.09961C61.4062 8.6582 61.5391 9.06641 61.8047 9.32422C62.0742 9.57812 62.4453 9.70508 62.918 9.70508C63.9062 9.70508 64.4082 9.18555 64.4238 8.14648V2.46875H66.1875ZM73.0684 2.46875H74.8262V8.375C74.8262 8.91797 74.7051 9.39844 74.4629 9.81641C74.2246 10.2305 73.8867 10.5508 73.4492 10.7773C73.0117 11.0039 72.5176 11.1172 71.9668 11.1172C71.0645 11.1172 70.3613 10.8887 69.8574 10.4316C69.3535 9.9707 69.1016 9.32031 69.1016 8.48047H70.8711C70.8711 8.89844 70.959 9.20703 71.1348 9.40625C71.3105 9.60547 71.5879 9.70508 71.9668 9.70508C72.3027 9.70508 72.5703 9.58984 72.7695 9.35938C72.9688 9.12891 73.0684 8.80078 73.0684 8.375V2.46875ZM85.3398 6.92773C85.3398 7.76758 85.1914 8.50391 84.8945 9.13672C84.5977 9.76953 84.1719 10.2578 83.6172 10.6016C83.0664 10.9453 82.4336 11.1172 81.7188 11.1172C81.0117 11.1172 80.3809 10.9473 79.8262 10.6074C79.2715 10.2676 78.8418 9.7832 78.5371 9.1543C78.2324 8.52148 78.0781 7.79492 78.0742 6.97461V6.55273C78.0742 5.71289 78.2246 4.97461 78.5254 4.33789C78.8301 3.69727 79.2578 3.20703 79.8086 2.86719C80.3633 2.52344 80.9961 2.35156 81.707 2.35156C82.418 2.35156 83.0488 2.52344 83.5996 2.86719C84.1543 3.20703 84.582 3.69727 84.8828 4.33789C85.1875 4.97461 85.3398 5.71094 85.3398 6.54688V6.92773ZM83.5586 6.54102C83.5586 5.64648 83.3984 4.9668 83.0781 4.50195C82.7578 4.03711 82.3008 3.80469 81.707 3.80469C81.1172 3.80469 80.6621 4.03516 80.3418 4.49609C80.0215 4.95312 79.8594 5.625 79.8555 6.51172V6.92773C79.8555 7.79883 80.0156 8.47461 80.3359 8.95508C80.6562 9.43555 81.1172 9.67578 81.7188 9.67578C82.3086 9.67578 82.7617 9.44531 83.0781 8.98438C83.3945 8.51953 83.5547 7.84375 83.5586 6.95703V6.54102ZM95.0742 2.46875V8.08789C95.0742 9.02148 94.7812 9.75977 94.1953 10.3027C93.6133 10.8457 92.8164 11.1172 91.8047 11.1172C90.8086 11.1172 90.0176 10.8535 89.4316 10.3262C88.8457 9.79883 88.5469 9.07422 88.5352 8.15234V2.46875H90.293V8.09961C90.293 8.6582 90.4258 9.06641 90.6914 9.32422C90.9609 9.57812 91.332 9.70508 91.8047 9.70508C92.793 9.70508 93.2949 9.18555 93.3105 8.14648V2.46875H95.0742ZM101.674 7.87695H100.273V11H98.5156V2.46875H101.686C102.693 2.46875 103.471 2.69336 104.018 3.14258C104.564 3.5918 104.838 4.22656 104.838 5.04688C104.838 5.62891 104.711 6.11523 104.457 6.50586C104.207 6.89258 103.826 7.20117 103.314 7.43164L105.16 10.918V11H103.273L101.674 7.87695ZM100.273 6.45312H101.691C102.133 6.45312 102.475 6.3418 102.717 6.11914C102.959 5.89258 103.08 5.58203 103.08 5.1875C103.08 4.78516 102.965 4.46875 102.734 4.23828C102.508 4.00781 102.158 3.89258 101.686 3.89258H100.273V6.45312ZM108.18 11V2.46875H110.805C111.555 2.46875 112.225 2.63867 112.814 2.97852C113.408 3.31445 113.871 3.79492 114.203 4.41992C114.535 5.04102 114.701 5.74805 114.701 6.54102V6.93359C114.701 7.72656 114.537 8.43164 114.209 9.04883C113.885 9.66602 113.426 10.1445 112.832 10.4844C112.238 10.8242 111.568 10.9961 110.822 11H108.18ZM109.938 3.89258V9.58789H110.787C111.475 9.58789 112 9.36328 112.363 8.91406C112.727 8.46484 112.912 7.82227 112.92 6.98633V6.53516C112.92 5.66797 112.74 5.01172 112.381 4.56641C112.021 4.11719 111.496 3.89258 110.805 3.89258H109.938ZM118.359 5.08789L117.562 4.625C117.898 4.09766 118.072 3.55273 118.084 2.99023V2H119.432V2.9082C119.432 3.25977 119.334 3.64062 119.139 4.05078C118.943 4.46094 118.684 4.80664 118.359 5.08789ZM129.682 11H127.924V7.34375H124.496V11H122.738V2.46875H124.496V5.92578H127.924V2.46875H129.682V11ZM139.68 2.46875V8.08789C139.68 9.02148 139.387 9.75977 138.801 10.3027C138.219 10.8457 137.422 11.1172 136.41 11.1172C135.414 11.1172 134.623 10.8535 134.037 10.3262C133.451 9.79883 133.152 9.07422 133.141 8.15234V2.46875H134.898V8.09961C134.898 8.6582 135.031 9.06641 135.297 9.32422C135.566 9.57812 135.938 9.70508 136.41 9.70508C137.398 9.70508 137.9 9.18555 137.916 8.14648V2.46875H139.68ZM144.99 11H143.232V2.46875H144.99V11Z" fill="white"/>
<path d="M53.0845 48H55.782L58.2685 39.4411H58.3707L60.8636 48H63.5611L67.3068 34.9091H64.2834L62.1165 44.0241H62.0014L59.6172 34.9091H57.0284L54.6378 44.005H54.5291L52.3622 34.9091H49.3388L53.0845 48ZM72.1568 48.1918C74.5858 48.1918 76.2221 47.0092 76.6056 45.1875L74.0872 45.0213C73.8123 45.7692 73.1092 46.1591 72.2015 46.1591C70.84 46.1591 69.9771 45.2578 69.9771 43.794V43.7876H76.6632V43.0398C76.6632 39.7031 74.6433 38.054 72.0481 38.054C69.1589 38.054 67.286 40.1058 67.286 43.1357C67.286 46.2486 69.1333 48.1918 72.1568 48.1918ZM69.9771 42.1001C70.0346 40.9815 70.8848 40.0866 72.0929 40.0866C73.2754 40.0866 74.0936 40.9304 74.1 42.1001H69.9771ZM78.4913 48H81.176V46.4276H81.2974C81.6745 47.2457 82.4991 48.1598 84.0843 48.1598C86.3216 48.1598 88.0666 46.3892 88.0666 43.1037C88.0666 39.7287 86.2449 38.054 84.0907 38.054C82.448 38.054 81.6618 39.032 81.2974 39.831H81.2143V34.9091H78.4913V48ZM81.1568 43.0909C81.1568 41.3395 81.8983 40.2209 83.2214 40.2209C84.5701 40.2209 85.286 41.3906 85.286 43.0909C85.286 44.804 84.5574 45.9929 83.2214 45.9929C81.911 45.9929 81.1568 44.8423 81.1568 43.0909ZM98.7413 48C102.73 48 105.146 45.5327 105.146 41.4418C105.146 37.3636 102.73 34.9091 98.7797 34.9091H94.1007V48H98.7413ZM96.8684 45.6286V37.2805H98.6326C101.087 37.2805 102.385 38.5334 102.385 41.4418C102.385 44.3629 101.087 45.6286 98.6262 45.6286H96.8684ZM111.62 48.1918C114.049 48.1918 115.685 47.0092 116.069 45.1875L113.55 45.0213C113.275 45.7692 112.572 46.1591 111.664 46.1591C110.303 46.1591 109.44 45.2578 109.44 43.794V43.7876H116.126V43.0398C116.126 39.7031 114.106 38.054 111.511 38.054C108.622 38.054 106.749 40.1058 106.749 43.1357C106.749 46.2486 108.596 48.1918 111.62 48.1918ZM109.44 42.1001C109.498 40.9815 110.348 40.0866 111.556 40.0866C112.738 40.0866 113.556 40.9304 113.563 42.1001H109.44ZM126.775 38.1818H123.892L121.86 45.2067H121.757L119.718 38.1818H116.842L120.275 48H123.343L126.775 38.1818ZM132.309 48.1918C134.738 48.1918 136.374 47.0092 136.758 45.1875L134.24 45.0213C133.965 45.7692 133.262 46.1591 132.354 46.1591C130.992 46.1591 130.129 45.2578 130.129 43.794V43.7876H136.816V43.0398C136.816 39.7031 134.796 38.054 132.2 38.054C129.311 38.054 127.438 40.1058 127.438 43.1357C127.438 46.2486 129.286 48.1918 132.309 48.1918ZM130.129 42.1001C130.187 40.9815 131.037 40.0866 132.245 40.0866C133.428 40.0866 134.246 40.9304 134.252 42.1001H130.129ZM141.316 34.9091H138.593V48H141.316V34.9091ZM147.933 48.1918C150.912 48.1918 152.765 46.1527 152.765 43.1293C152.765 40.0866 150.912 38.054 147.933 38.054C144.954 38.054 143.1 40.0866 143.1 43.1293C143.1 46.1527 144.954 48.1918 147.933 48.1918ZM147.946 46.0824C146.571 46.0824 145.868 44.8232 145.868 43.1101C145.868 41.397 146.571 40.1314 147.946 40.1314C149.294 40.1314 149.998 41.397 149.998 43.1101C149.998 44.8232 149.294 46.0824 147.946 46.0824ZM154.536 51.6818H157.259V46.4276H157.342C157.719 47.2457 158.544 48.1598 160.129 48.1598C162.366 48.1598 164.111 46.3892 164.111 43.1037C164.111 39.7287 162.289 38.054 160.135 38.054C158.493 38.054 157.706 39.032 157.342 39.831H157.221V38.1818H154.536V51.6818ZM157.201 43.0909C157.201 41.3395 157.943 40.2209 159.266 40.2209C160.615 40.2209 161.331 41.3906 161.331 43.0909C161.331 44.804 160.602 45.9929 159.266 45.9929C157.956 45.9929 157.201 44.8423 157.201 43.0909ZM165.926 51.6818H168.65V46.4276H168.733C169.11 47.2457 169.934 48.1598 171.52 48.1598C173.757 48.1598 175.502 46.3892 175.502 43.1037C175.502 39.7287 173.68 38.054 171.526 38.054C169.883 38.054 169.097 39.032 168.733 39.831H168.611V38.1818H165.926V51.6818ZM168.592 43.0909C168.592 41.3395 169.333 40.2209 170.657 40.2209C172.005 40.2209 172.721 41.3906 172.721 43.0909C172.721 44.804 171.993 45.9929 170.657 45.9929C169.346 45.9929 168.592 44.8423 168.592 43.0909ZM181.792 48.1918C184.221 48.1918 185.857 47.0092 186.24 45.1875L183.722 45.0213C183.447 45.7692 182.744 46.1591 181.836 46.1591C180.475 46.1591 179.612 45.2578 179.612 43.794V43.7876H186.298V43.0398C186.298 39.7031 184.278 38.054 181.683 38.054C178.794 38.054 176.921 40.1058 176.921 43.1357C176.921 46.2486 178.768 48.1918 181.792 48.1918ZM179.612 42.1001C179.669 40.9815 180.52 40.0866 181.728 40.0866C182.91 40.0866 183.728 40.9304 183.735 42.1001H179.612ZM188.075 48H190.798V42.4453C190.798 41.2372 191.68 40.4062 192.882 40.4062C193.259 40.4062 193.777 40.4702 194.032 40.5533V38.1371C193.789 38.0795 193.451 38.0412 193.176 38.0412C192.076 38.0412 191.175 38.6804 190.817 39.8949H190.715V38.1818H188.075V48Z" fill="white"/>
<path d="M18 6V2H2V6H18ZM18 8H2V16H18V8ZM1 0H19C19.2652 0 19.5196 0.105357 19.7071 0.292893C19.8946 0.48043 20 0.734784 20 1V17C20 17.2652 19.8946 17.5196 19.7071 17.7071C19.5196 17.8946 19.2652 18 19 18H1C0.734784 18 0.48043 17.8946 0.292893 17.7071C0.105357 17.5196 0 17.2652 0 17V1C0 0.734784 0.105357 0.48043 0.292893 0.292893C0.48043 0.105357 0.734784 0 1 0ZM3 9H6V14H3V9ZM3 3H5V5H3V3ZM7 3H9V5H7V3Z" fill="#F87F28"/>
</svg>
