<svg width="375" height="956" viewBox="0 0 375 956" fill="none" xmlns="http://www.w3.org/2000/svg">
<g opacity="0.19">
<path opacity="0.19" d="M1.32555 13.9664C0.780922 13.5423 0.231094 13.1302 -0.325035 12.7305L-92.5881 101.309C-92.1679 101.839 -91.7372 102.367 -91.2982 102.893L1.32555 13.9664Z" fill="#4181E0"/>
<path opacity="0.19" d="M6.58886 18.508C6.34111 18.2694 6.09231 18.0419 5.84351 17.8112L-87.2966 107.233C-87.0552 107.472 -86.8158 107.711 -86.5712 107.949C-86.3255 108.188 -86.0736 108.415 -85.8248 108.646L7.31433 19.2238C7.07285 18.9852 6.83347 18.7418 6.58886 18.508Z" fill="#4181E0"/>
<path opacity="0.19" d="M25.7258 67.5661C25.7948 66.5816 25.8419 65.5961 25.8649 64.6105L-38.5503 126.453C-37.5227 126.431 -36.4962 126.387 -35.4717 126.32L25.7258 67.5661Z" fill="#4181E0"/>
<path opacity="0.19" d="M25.5346 56.7463C25.4436 55.9065 25.3402 55.0674 25.2158 54.2306L-49.3601 125.83C-48.4893 125.949 -47.6165 126.05 -46.7405 126.136L25.5346 56.7463Z" fill="#4181E0"/>
<path opacity="0.19" d="M23.2558 80.9411C23.6363 79.6836 23.976 78.417 24.2729 77.1425L-25.4949 124.926C-24.1694 124.638 -22.8512 124.311 -21.5382 123.947L23.2558 80.9411Z" fill="#4181E0"/>
<path opacity="0.19" d="M-6.53345 117.723C3.07118 112.265 11.0858 104.571 16.7704 95.3497L-6.53345 117.723Z" fill="#4181E0"/>
<path opacity="0.19" d="M17.1675 31.7673C16.8131 31.174 16.4473 30.5844 16.072 29.9985L-74.6001 117.051C-73.9928 117.413 -73.3791 117.763 -72.7582 118.103L17.1675 31.7673Z" fill="#4181E0"/>
<path opacity="0.19" d="M12.6058 25.1452C12.1856 24.6113 11.757 24.0826 11.319 23.5593L-81.3069 112.487C-80.7633 112.911 -80.2135 113.323 -79.6573 113.723L12.6058 25.1452Z" fill="#4181E0"/>
<path opacity="0.19" d="M23.7951 47.4113C23.5965 46.6716 23.3875 45.9327 23.1617 45.1986L-58.7693 123.86C-58.0051 124.078 -57.2358 124.276 -56.4653 124.467L23.7951 47.4113Z" fill="#4181E0"/>
<path opacity="0.19" d="M20.9383 39.1515C20.6539 38.4913 20.3591 37.8349 20.0508 37.1821L-67.1194 120.874C-66.4389 121.169 -65.7552 121.455 -65.0674 121.726L20.9383 39.1515Z" fill="#4181E0"/>
</g>
<path d="M311.063 397.04V410.924" stroke="#EAF1FD" stroke-width="2" stroke-linecap="round" stroke-linejoin="round"/>
<path d="M318.292 403.981H303.835" stroke="#EAF1FD" stroke-width="2" stroke-linecap="round" stroke-linejoin="round"/>
<path d="M78.2566 302.859V316.744" stroke="#F87F28" stroke-width="2" stroke-linecap="round" stroke-linejoin="round"/>
<path d="M85.4862 309.8H71.0291" stroke="#F87F28" stroke-width="2" stroke-linecap="round" stroke-linejoin="round"/>
<g clip-path="url(#clip0_0_1)">
<path d="M450.767 956C447.354 954.718 443.917 952.921 440.55 950.658C436.632 948.028 432.693 944.683 428.845 940.729C424.945 936.723 421.038 931.985 417.234 926.647C413.04 920.764 408.906 914.307 404.949 907.456C400.981 900.586 397.09 893.148 393.383 885.351C389.661 877.518 386.032 869.125 382.6 860.405C379.148 851.636 375.804 842.311 372.661 832.691C359.74 793.109 349.628 746.969 342.611 695.547C340.815 682.385 339.221 668.867 337.837 655.057C336.434 641.032 335.248 626.73 334.283 612.218C333.299 597.349 332.541 582.291 332.015 567.115C331.473 551.42 331.166 535.63 331.093 519.814C331.02 503.319 331.183 486.822 331.581 470.389C331.987 453.515 332.646 436.193 333.541 418.908C334.45 401.355 335.626 383.368 337.037 365.446C338.47 347.24 340.183 328.611 342.13 310.076C345.893 274.246 350.82 236.905 356.775 199.09C362.863 160.658 369.596 123.641 376.935 88.2498C384.528 51.5357 392.682 16.4163 401.358 -16.9409C409.993 -50.2211 419.154 -81.625 428.793 -110.992C431.264 -118.499 433.786 -125.903 436.289 -133H450.767V955.999V956Z" fill="#1E5DE9" fill-opacity="0.07"/>
</g>
<defs>
<clipPath id="clip0_0_1">
<rect width="119.693" height="1089" fill="white" transform="translate(331.076 -133)"/>
</clipPath>
</defs>
</svg>
